<svg xmlns="http://www.w3.org/2000/svg" viewBox="0 0 500 500"><defs><style>.cls-1{fill:#fff;}</style></defs><title>logo2</title><g id="Layer_2" data-name="Layer 2"><path class="cls-1" d="M388.36,422.72H320.07a21.65,21.65,0,0,0-21.57-21.6H276.93v-45h34.15a21.65,21.65,0,0,0,21.57-21.6v-12.6a21.4,21.4,0,0,0-.3-3.41c47.58-28.23,79.38-79.42,79.38-137.89,0-89-73.63-161.1-164.45-161.1S82.83,91.65,82.83,180.62c0,62.67,36.53,117,89.86,143.61v10.29a21.65,21.65,0,0,0,21.57,21.6H232v45H212.23a21.65,21.65,0,0,0-21.57,21.6H124.17a21.64,21.64,0,0,0-21.57,21.6v3.6a21.64,21.64,0,0,0,21.57,21.6H388.36a21.64,21.64,0,0,0,21.57-21.6v-3.6A21.64,21.64,0,0,0,388.36,422.72Zm-249.82-237c0-60,49.09-108.62,109.64-108.62s109.63,48.63,109.63,108.62S308.73,294.37,248.18,294.37,138.54,245.73,138.54,185.74Z"/><path class="cls-1" d="M248.86,116c-40.2,0-72.79,31.71-72.79,70.82s32.59,70.83,72.79,70.83,72.79-31.71,72.79-70.83S289.06,116,248.86,116Zm-22.47,72a23.4,23.4,0,1,1,23.37-23.4A23.38,23.38,0,0,1,226.39,188Z"/></g></svg>