<?xml version="1.0" encoding="UTF-8" standalone="no"?>
<svg
   width="20.1614mm"
   height="20.1614mm"
   viewBox="0 0 762 762"
   version="1.1"
   id="svg17"
   sodipodi:docname="LogoF.svg"
   inkscape:version="1.1.2 (b8e25be833, 2022-02-05)"
   xmlns:inkscape="http://www.inkscape.org/namespaces/inkscape"
   xmlns:sodipodi="http://sodipodi.sourceforge.net/DTD/sodipodi-0.dtd"
   xmlns="http://www.w3.org/2000/svg"
   xmlns:svg="http://www.w3.org/2000/svg">
  <defs
     id="defs21" />
  <sodipodi:namedview
     id="namedview19"
     pagecolor="#ffffff"
     bordercolor="#666666"
     borderopacity="1.0"
     inkscape:pageshadow="2"
     inkscape:pageopacity="0.0"
     inkscape:pagecheckerboard="0"
     inkscape:document-units="mm"
     showgrid="false"
     showguides="true"
     inkscape:guide-bbox="true"
     inkscape:zoom="5.6568543"
     inkscape:cx="3.4471455"
     inkscape:cy="50.734911"
     inkscape:window-width="1920"
     inkscape:window-height="1013"
     inkscape:window-x="-9"
     inkscape:window-y="-9"
     inkscape:window-maximized="1"
     inkscape:current-layer="svg17">
    <sodipodi:guide
       position="-456.96434,267.9128"
       orientation="1,0"
       id="guide179" />
  </sodipodi:namedview>
  <path
     style="fill:#000000;stroke-width:0.0883883"
     d="M 39.553785,33.587572 V 17.500893 h 7.718405 c 6.701165,0 7.828212,0.01881 8.551573,0.142704 2.485385,0.425696 4.258909,1.682162 5.30159,3.755951 0.402358,0.800251 0.734948,1.886334 0.944095,3.082973 0.218957,1.252769 0.212691,5.018753 -0.01037,6.23243 -0.454405,2.472425 -1.326742,4.314363 -2.550493,5.385358 -0.605128,0.529593 -1.658679,1.073274 -2.49359,1.286808 -0.836058,0.213828 -2.793153,0.442673 -3.319075,0.388104 -0.218761,-0.0227 -2.004077,-0.218485 -3.967367,-0.435081 -1.963292,-0.216596 -3.663662,-0.393811 -3.778602,-0.393811 H 45.74097 v 6.363961 6.363961 h -3.093592 -3.093593 z m 14.573568,-1.383331 c 1.285466,-0.415158 1.927388,-1.765794 2.022047,-4.254482 0.0874,-2.297745 -0.444411,-3.962819 -1.485794,-4.651974 -0.697842,-0.46181 -1.028831,-0.493591 -5.140508,-0.493591 H 45.74097 v 4.77297 4.772971 h 3.967326 c 3.446008,0 4.026684,-0.01917 4.419057,-0.145894 z"
     id="path218"
     transform="scale(9.9999253)" />
  <path
     style="fill:#000000;stroke-width:0.0883883"
     d="m 20.111825,49.659277 c -0.314076,-0.04485 -0.870923,-0.181786 -1.237437,-0.304306 -1.992549,-0.666074 -3.105649,-1.862558 -3.649939,-3.92336 L 15.026019,44.68031 V 33.67596 22.671611 l 0.198188,-0.743319 c 0.472836,-1.77341 1.437326,-3.02581 2.85121,-3.702324 1.190841,-0.569792 1.598045,-0.651704 3.484863,-0.701011 3.575187,-0.09343 14.083947,0.409308 14.422097,0.689947 0.101321,0.08409 0.124263,0.558064 0.124263,2.56718 v 2.464051 h -6.748519 c -4.863204,0 -6.832455,0.02847 -7.048971,0.101908 -0.484091,0.164194 -0.757618,0.401641 -0.977875,0.848884 -0.202345,0.410872 -0.207038,0.480228 -0.235473,3.479686 l -0.02901,3.060459 2.194528,0.05807 c 1.206991,0.03194 2.691713,0.09476 3.299382,0.139603 0.60767,0.04484 2.099224,0.104014 3.314563,0.131489 1.21534,0.02747 2.657175,0.07446 3.204078,0.10442 l 0.994369,0.05447 v 2.496308 2.496308 l -1.524699,0.05728 c -0.838585,0.03151 -3.115689,0.09523 -5.060233,0.141599 -1.944544,0.04638 -4.184658,0.110807 -4.978032,0.143182 l -1.442498,0.05887 0.02829,2.970164 c 0.02779,2.918424 0.03194,2.977579 0.237866,3.395841 0.253896,0.515682 0.68344,0.820357 1.329246,0.942831 0.292491,0.05547 2.800405,0.0899 6.548434,0.0899 3.340916,0 6.258932,0.02529 6.484479,0.05621 l 0.410084,0.05621 v 2.446661 2.44666 l -1.392117,0.106476 c -3.984255,0.304736 -11.472845,0.653249 -13.367622,0.622119 -0.365215,-0.006 -0.920999,-0.0476 -1.235076,-0.09245 z"
     id="path257"
     transform="scale(9.9999253)" />
  <path
     style="display:inline;fill:#f62626;fill-opacity:1;stroke-width:0.127634"
     d="m 377.40681,610.28187 c -0.08,-0.17548 -0.18386,-0.31906 -0.2309,-0.31906 -0.047,0 -0.28093,-0.27282 -0.51975,-0.60629 -0.77994,-1.08893 -3.61682,-4.05958 -5.16113,-5.40446 -0.56159,-0.48907 -1.18498,-1.04055 -1.3853,-1.22553 -0.20032,-0.18495 -0.55393,-0.46502 -0.78576,-0.62235 -0.23181,-0.1573 -0.5274,-0.38146 -0.65684,-0.49812 -0.41647,-0.37534 -2.31434,-1.72634 -2.42533,-1.72653 -0.0591,-1e-4 -0.27446,-0.14381 -0.47864,-0.3194 -0.59215,-0.50927 -3.14776,-1.97524 -4.79795,-2.75223 -0.59668,-0.28095 -1.28592,-0.61656 -1.5316,-0.74579 -0.24569,-0.12924 -0.84876,-0.36584 -1.34016,-0.52578 -0.49139,-0.15996 -1.00833,-0.36247 -1.14872,-0.45005 -0.14038,-0.0876 -1.00192,-0.34202 -1.91451,-0.56543 -0.91259,-0.22343 -1.75621,-0.45706 -1.87469,-0.51923 -0.32267,-0.16927 -2.94081,-0.60177 -4.58801,-0.75792 -0.79783,-0.0756 -1.91009,-0.19823 -2.47169,-0.27245 -1.80342,-0.23833 -5.81107,0.0201 -9.21547,0.59418 -0.99701,0.16813 -1.91596,0.3602 -2.04214,0.42683 -0.12621,0.0666 -0.94672,0.30414 -1.82333,0.52784 -0.87665,0.22369 -1.75282,0.48889 -1.94706,0.58935 -0.19425,0.10043 -0.85127,0.35204 -1.46005,0.55911 -0.60881,0.20705 -1.13981,0.42744 -1.18001,0.48973 -0.0402,0.0623 -0.21349,0.15712 -0.38512,0.21075 -0.46264,0.14458 -1.96957,0.8322 -2.04645,0.9338 -0.0366,0.0484 -0.43518,0.2603 -0.88567,0.4709 -0.45052,0.21059 -0.88129,0.44076 -0.95728,0.51145 -0.076,0.0707 -0.50957,0.32089 -0.96353,0.55599 -0.45399,0.23509 -1.02706,0.59365 -1.27353,0.79679 -0.24644,0.20316 -0.50118,0.36936 -0.56606,0.36936 -0.0649,0 -0.35334,0.17632 -0.641,0.39183 -0.75466,0.56532 -2.53432,1.79888 -3.02543,2.09703 -1.51862,0.92201 -1.82026,0.93542 -2.4958,0.111 -0.38118,-0.46518 -0.48427,-0.69954 -0.48427,-1.10091 0,-0.55643 -0.047,-0.5039 2.47959,-2.77529 0.58565,-0.52648 1.24241,-1.13764 1.45948,-1.35813 0.21709,-0.22051 1.25623,-1.15927 2.30919,-2.08618 1.05299,-0.92691 2.11556,-1.88145 2.36124,-2.12121 0.60474,-0.59014 10.89361,-9.75054 13.97596,-12.44308 1.39079,-1.21491 1.93021,-1.69715 2.04215,-1.82563 0.0702,-0.0806 0.29991,-0.27957 0.51051,-0.44219 0.2106,-0.16263 0.81367,-0.68718 1.34018,-1.16566 1.01942,-0.92647 8.44349,-7.44298 9.49927,-8.33804 0.34578,-0.29314 0.77585,-0.67659 0.95569,-0.85207 0.17987,-0.17549 0.50778,-0.46268 0.7287,-0.63816 0.22093,-0.17552 1.20717,-1.00833 2.19163,-1.8507 2.24557,-1.92152 2.69095,-2.28136 3.51286,-2.83818 0.65381,-0.44295 2.72771,-1.52073 3.46948,-1.80304 0.63333,-0.24104 2.61332,-0.671 3.70139,-0.80381 1.09998,-0.13424 4.36494,-0.0382 4.58712,0.13495 0.0744,0.058 0.33962,0.13675 0.5893,0.17496 0.68516,0.1049 1.39676,0.43933 1.39676,0.65642 0,0.10615 -0.10495,0.29575 -0.23319,0.42133 -0.12824,0.12558 -0.40106,0.45365 -0.60626,0.72899 -0.2052,0.27537 -0.51667,0.65616 -0.69218,0.84618 -0.17549,0.19001 -0.60626,0.67682 -0.95725,1.08181 -0.70108,0.8089 -1.13227,1.2926 -2.82334,3.16722 -0.62332,0.69098 -1.18632,1.35147 -1.25112,1.46779 -0.0648,0.11632 -0.21759,0.28294 -0.33957,0.37028 -0.21433,0.15344 -0.47342,0.52747 -1.60608,2.31866 -0.63224,0.99978 -4.50969,8.22613 -4.50969,8.40462 0,0.0681 -0.10443,0.26084 -0.23202,0.42824 -0.12761,0.16742 -0.42516,0.74952 -0.66124,1.29356 -0.23609,0.54404 -0.46816,0.98916 -0.51576,0.98916 -0.0476,0 -0.26379,0.44514 -0.48042,0.98918 -0.21665,0.54404 -0.50882,1.22401 -0.64924,1.51104 -0.33415,0.68288 -0.5832,2.06114 -0.47585,2.63335 0.0961,0.51209 0.93406,1.53868 1.49117,1.82678 0.41324,0.2137 0.91436,0.24156 1.23789,0.0689 0.1219,-0.0651 0.62214,-0.29778 1.11163,-0.51715 0.48949,-0.21936 0.92026,-0.44031 0.95726,-0.491 0.037,-0.0507 0.4406,-0.28541 0.89688,-0.52163 0.45629,-0.23619 0.9482,-0.53637 1.09311,-0.66704 0.14494,-0.13066 0.30718,-0.23757 0.36055,-0.23757 0.0534,0 0.48046,-0.24751 0.94903,-0.55004 0.4686,-0.3025 1.15351,-0.71368 1.52206,-0.91371 0.36855,-0.20003 0.67009,-0.41199 0.67009,-0.47105 0,-0.059 0.0536,-0.10734 0.11914,-0.10734 0.15383,0 1.40171,-0.76231 1.7237,-1.05297 0.1361,-0.12287 0.29736,-0.22338 0.35838,-0.22338 0.12634,0 2.34327,-1.41852 2.67645,-1.71254 0.12044,-0.1063 0.46507,-0.3456 0.7658,-0.53175 0.30073,-0.18616 0.66166,-0.44666 0.80203,-0.57889 0.1404,-0.13224 0.57746,-0.49536 0.97121,-0.80694 0.39376,-0.31161 1.49887,-1.38842 2.45578,-2.39296 l 1.73988,-1.82641 v 17.26252 c 0,9.49439 -0.0288,17.26252 -0.0654,17.26252 -0.0366,0 -0.13197,-0.14359 -0.21193,-0.3191 z"
     id="path5524" />
  <path
     style="display:inline;fill:#f62626;fill-opacity:1;stroke-width:0.127634"
     d="m 380.49326,591.9834 v -18.79626 l 0.34476,-0.47013 c 0.18962,-0.25855 0.49116,-0.61996 0.67006,-0.80308 0.17893,-0.18316 0.58377,-0.63655 0.89968,-1.00758 0.58823,-0.69088 1.50369,-1.70364 2.2974,-2.5416 0.24572,-0.25941 0.87748,-0.95475 1.40399,-1.54522 3.19004,-3.57774 6.01343,-6.46914 6.49922,-6.65579 0.34586,-0.13286 1.89316,-0.0266 2.11608,0.14528 0.0702,0.0542 0.35738,0.13781 0.63818,0.18592 0.78545,0.1346 2.65735,0.71683 2.87176,0.89323 0.10531,0.0866 0.52987,0.31917 0.9435,0.51675 0.41361,0.19758 1.03724,0.5664 1.38581,0.81959 0.9483,0.68882 1.37904,1.04488 3.7994,3.14069 0.32428,0.2808 0.89401,0.76898 1.26606,1.08489 0.37205,0.31589 1.22963,1.05414 1.90574,1.64052 0.67612,0.5864 1.5165,1.31213 1.86747,1.61273 0.351,0.3006 1.18382,1.01869 1.8507,1.59575 0.6669,0.57707 1.5549,1.34467 1.97335,1.70576 0.65767,0.56759 2.02086,1.75782 3.65389,3.19035 0.25189,0.22098 0.79139,0.68898 1.19882,1.03997 0.40742,0.351 1.32129,1.14717 2.03082,1.76926 1.89293,1.65969 2.13747,1.873 2.8968,2.52704 0.37985,0.32721 1.49886,1.30363 2.48672,2.16979 0.98782,0.86618 2.19146,1.91949 2.67474,2.34066 0.80384,0.70053 3.95585,3.47856 5.04525,4.44664 0.24976,0.22192 0.78628,0.69064 1.19232,1.04164 0.40604,0.35099 0.9236,0.81049 1.15011,1.02108 0.22652,0.21058 0.77754,0.69879 1.22449,1.08487 2.06974,1.78791 5.86168,5.20634 6.35952,5.73313 0.71475,0.75631 0.78753,0.90216 0.78753,1.5784 0,0.9133 -0.20376,1.31926 -0.77728,1.54875 -1.02215,0.40898 -1.30989,0.31379 -3.42982,-1.1347 -0.73975,-0.50545 -1.41424,-0.9428 -1.4989,-0.97188 -0.0846,-0.0291 -0.31437,-0.1823 -0.51054,-0.34044 -0.59211,-0.47738 -2.10499,-1.45848 -2.74487,-1.78002 -0.33075,-0.1662 -0.63289,-0.35322 -0.67144,-0.41559 -0.0386,-0.0624 -0.45717,-0.29888 -0.93026,-0.52554 -0.47308,-0.22667 -0.94647,-0.48566 -1.05197,-0.57555 -0.10549,-0.0899 -0.65112,-0.3462 -1.21251,-0.56961 -0.56139,-0.2234 -1.08516,-0.45803 -1.16391,-0.52137 -0.0788,-0.0634 -0.56697,-0.26146 -1.0849,-0.44026 -0.51792,-0.1788 -1.28631,-0.46075 -1.7075,-0.62658 -0.4212,-0.16581 -1.36888,-0.44986 -2.10596,-0.63127 -0.7371,-0.18138 -1.43474,-0.38348 -1.55033,-0.44911 -0.44392,-0.252 -3.07046,-0.66052 -5.08665,-0.79118 -2.27784,-0.1476 -8.08771,-0.0525 -9.70019,0.15871 -1.25179,0.164 -2.92784,0.49674 -3.18151,0.63161 -0.11045,0.0587 -0.91874,0.28784 -1.79622,0.50913 -0.87748,0.22132 -1.82519,0.50462 -2.10598,0.62963 -0.28078,0.12498 -0.98436,0.38293 -1.56351,0.57323 -0.57915,0.1903 -1.05299,0.39871 -1.05299,0.46315 0,0.0644 -0.079,0.11715 -0.17556,0.11715 -0.32645,0 -4.11756,1.8027 -4.29163,2.04069 -0.0351,0.048 -0.44604,0.29958 -0.9132,0.55909 -0.46716,0.25951 -0.91932,0.55609 -1.00478,0.65908 -0.0855,0.10299 -0.21313,0.18727 -0.28367,0.18727 -0.22583,0 -2.26007,1.51901 -3.97128,2.96541 -1.95147,1.64949 -4.38528,4.0905 -6.58763,6.60714 -0.58361,0.66691 -1.11017,1.26708 -1.17014,1.33379 -0.0604,0.0671 -0.10904,-8.26975 -0.10904,-18.67501 z"
     id="path5563" />
  <path
     style="display:inline;fill:#f62626;fill-opacity:1;stroke-width:0.127634"
     d="m 443.22544,622.77678 c -2.03575,-0.23467 -5.71742,-0.64927 -8.18145,-0.9213 -2.46402,-0.27203 -4.53168,-0.52541 -4.59481,-0.56308 -0.0631,-0.0377 -2.21118,-0.28158 -4.77345,-0.54203 -2.56226,-0.26045 -4.77353,-0.52158 -4.9139,-0.5803 -0.1404,-0.0587 -2.15064,-0.31223 -4.46719,-0.56337 -2.31658,-0.25114 -4.84373,-0.53783 -5.61592,-0.63706 -0.77217,-0.0993 -2.98344,-0.3336 -4.91391,-0.52077 -1.93047,-0.18715 -3.62482,-0.3893 -3.76522,-0.44919 -0.14038,-0.0599 -2.23678,-0.31354 -4.65865,-0.56363 -2.42184,-0.25012 -4.71927,-0.5088 -5.10535,-0.57487 -0.38611,-0.0661 -1.64672,-0.20849 -2.80143,-0.31646 -2.55107,-0.23856 -2.60436,-0.22088 -2.73665,0.9073 -0.13813,1.1781 -0.34108,1.6817 -0.95109,2.36019 -0.97492,1.08432 -2.5235,1.9545 -4.07073,2.28736 -0.40466,0.0871 -0.81344,0.21817 -0.90839,0.29134 -0.24063,0.18545 -3.24759,0.18461 -3.47721,0 -0.0985,-0.0796 -0.38018,-0.18673 -0.62587,-0.23799 -0.72406,-0.15104 -1.87519,-0.67492 -2.58931,-1.17839 -1.41722,-0.99915 -2.19053,-2.10342 -2.64201,-3.77271 -0.091,-0.33626 -0.27178,-0.66834 -0.40182,-0.73794 -0.22661,-0.12128 -5.49936,0.31567 -5.76109,0.47744 -0.0995,0.0615 -2.18153,0.29238 -14.10071,1.56369 -2.57979,0.27516 -4.97771,0.56266 -5.3287,0.63886 -0.351,0.0762 -2.47613,0.3139 -4.72248,0.52823 -2.24636,0.2143 -4.19915,0.43726 -4.33955,0.49549 -0.1404,0.0582 -2.43783,0.31641 -5.10538,0.57378 -2.66755,0.25734 -4.99368,0.51813 -5.16919,0.57951 -0.17548,0.0614 -2.27187,0.29241 -4.65864,0.51342 -2.38676,0.221 -4.45444,0.45057 -4.59484,0.51015 -0.1404,0.0595 -1.55172,0.22197 -3.13627,0.36088 -3.71115,0.32541 -4.41302,0.21029 -4.89366,-0.80263 -0.42253,-0.89042 -0.18112,-1.75264 0.67314,-2.4041 0.74613,-0.56901 0.92842,-0.60657 5.05939,-1.04235 1.68478,-0.17773 3.32167,-0.38115 3.63758,-0.45206 0.54315,-0.12195 2.46663,-0.33899 13.52922,-1.52659 2.56224,-0.27509 4.91709,-0.55922 5.233,-0.63143 0.31588,-0.0722 2.41229,-0.30905 4.65864,-0.52627 2.24635,-0.21725 4.17046,-0.42984 4.27574,-0.47241 0.18905,-0.0764 6.42595,-0.76014 14.86938,-1.63003 2.38678,-0.24586 4.43931,-0.5042 4.56118,-0.57404 0.12191,-0.0699 0.36929,-0.12699 0.54976,-0.12699 0.54623,0 1.47966,-0.27985 1.55067,-0.46489 0.14274,-0.37194 -0.11069,-0.81442 -0.69579,-1.2148 -0.33284,-0.22777 -0.67032,-0.47431 -0.74991,-0.54782 -0.13281,-0.12269 -1.1655,-0.79933 -2.13786,-1.40081 -0.21876,-0.13531 -0.70181,-0.44412 -1.07347,-0.68624 -0.78169,-0.50918 -1.61419,-0.97042 -2.96183,-1.64085 -0.52648,-0.26191 -0.98598,-0.5167 -1.02106,-0.56616 -0.10111,-0.14254 -2.48766,-1.12729 -3.95668,-1.63264 -0.73708,-0.25356 -1.37049,-0.50123 -1.40756,-0.55037 -0.0628,-0.0833 -3.55938,-0.99628 -4.84652,-1.26558 -0.9446,-0.1976 -3.64956,-0.47501 -5.48825,-0.56284 -2.68652,-0.1283 -7.52879,0.27187 -9.24104,0.76371 -0.35783,0.10278 -1.31112,0.34004 -2.1184,0.52724 -0.8073,0.1872 -1.6401,0.41405 -1.85069,0.50413 -0.2106,0.0901 -0.87112,0.32024 -1.4678,0.51148 -1.9949,0.63931 -4.72266,1.87297 -7.10344,3.21266 -0.50222,0.28259 -0.99043,0.58063 -1.08487,0.66231 -0.0945,0.0816 -0.49499,0.36188 -0.8901,0.62267 -1.14004,0.75252 -1.95142,1.32763 -2.08957,1.48112 -0.0702,0.078 -0.35739,0.30861 -0.63819,0.51253 -0.2808,0.20389 -0.6254,0.47671 -0.7658,0.60623 -0.1404,0.12949 -0.97322,0.84004 -1.8507,1.57897 -0.87747,0.73891 -1.74507,1.481 -1.92793,1.64907 -0.1829,0.16808 -0.64236,0.49461 -1.02109,0.72558 -0.3787,0.23097 -0.70771,0.46531 -0.73111,0.52072 -0.0998,0.23634 -0.96873,0.0899 -1.39483,-0.23515 -0.82942,-0.63263 -0.92073,-1.48485 -0.28823,-2.69066 0.53814,-1.02594 3.39769,-3.75299 6.129,-5.84502 0.59668,-0.45704 1.14301,-0.87734 1.21402,-0.93403 0.071,-0.0567 0.47308,-0.32228 0.89344,-0.59016 0.42037,-0.26789 0.79301,-0.52627 0.82813,-0.57425 0.0351,-0.0479 0.40844,-0.27897 0.82961,-0.51336 0.42119,-0.23441 0.85196,-0.49786 0.95727,-0.58544 0.31396,-0.26112 4.7146,-2.4347 5.67971,-2.80531 0.49139,-0.18871 0.95089,-0.38822 1.02108,-0.44337 0.0702,-0.0552 0.81686,-0.31372 1.65925,-0.57459 0.84237,-0.26086 1.58905,-0.51998 1.65925,-0.57583 0.0702,-0.0558 0.98915,-0.28534 2.04214,-0.51 1.05297,-0.22463 2.02937,-0.46012 2.16976,-0.52325 0.43544,-0.19583 2.8272,-0.48403 5.32942,-0.64222 1.81548,-0.11476 2.9564,-0.11625 4.72245,-0.006 2.49243,0.15535 5.10264,0.46782 5.5195,0.66073 0.1404,0.065 0.74348,0.21268 1.34018,0.32827 0.59668,0.11557 1.37206,0.28599 1.72306,0.37873 1.05064,0.27759 4.33467,1.36574 4.40338,1.45906 0.0351,0.0477 0.43714,0.22374 0.89342,0.39127 1.43581,0.52721 4.27441,1.94633 6.31789,3.15853 0.94663,0.56154 1.09828,0.66171 2.63538,1.74066 0.53689,0.37685 1.15431,0.79045 1.37209,0.91909 0.21774,0.12863 0.39591,0.27587 0.39591,0.32718 0,0.0513 0.31591,0.30297 0.702,0.55922 0.38608,0.25627 0.70199,0.51018 0.70199,0.56423 0,0.054 0.21537,0.2418 0.47861,0.41726 0.87915,0.58593 3.3715,3.07364 3.92754,3.9202 0.57787,0.87986 0.82685,1.77406 0.82685,2.96977 0,1.79875 1.17387,2.59163 3.82903,2.58626 1.31506,-0.003 2.11428,-0.17353 2.81366,-0.60153 0.53914,-0.3299 0.79565,-0.96318 0.90234,-2.22773 0.16857,-1.99806 0.79319,-2.97668 3.4315,-5.37616 1.84754,-1.68027 1.99417,-1.80677 2.6165,-2.25692 0.28079,-0.20311 0.56798,-0.43233 0.63818,-0.50937 0.0702,-0.077 0.41481,-0.33571 0.7658,-0.57484 0.351,-0.23914 1.04021,-0.71308 1.53161,-1.05323 1.93135,-1.33687 4.87474,-3.03073 6.06263,-3.48892 0.31588,-0.12185 0.66049,-0.28878 0.7658,-0.37092 0.10529,-0.0822 0.70836,-0.34189 1.34015,-0.57717 0.6318,-0.23528 1.21661,-0.47882 1.29956,-0.54122 0.44061,-0.33136 4.74909,-1.5452 6.54994,-1.84532 0.7371,-0.12285 1.3689,-0.25915 1.40398,-0.3029 0.1056,-0.1316 1.45144,-0.25082 4.19738,-0.37178 2.64853,-0.11666 7.83329,0.0229 9.2042,0.24777 1.34201,0.22012 3.89707,0.74349 4.59484,0.94118 1.5994,0.45315 4.03572,1.23257 4.24389,1.35768 0.12289,0.0738 0.58236,0.26961 1.02109,0.43502 0.4387,0.16539 1.35924,0.56695 2.04566,0.8923 0.6864,0.32538 1.29972,0.59157 1.36296,0.59157 0.0632,0 0.19523,0.0803 0.29339,0.17846 0.0981,0.0981 0.54736,0.36466 0.99826,0.59225 0.45091,0.2276 0.99756,0.54933 1.21478,0.71498 0.21723,0.16568 0.44001,0.3012 0.4951,0.3012 0.19826,0 2.93507,1.91758 4.50536,3.15672 1.3005,1.02623 4.37902,3.85359 4.94649,4.54288 1.05252,1.27851 1.23669,1.58526 1.30251,2.16916 0.0792,0.70244 -0.25576,1.33154 -0.96579,1.81402 -0.80785,0.54894 -1.26669,0.3704 -2.79884,-1.08915 -1.64972,-1.57157 -3.21654,-2.98677 -3.44945,-3.11567 -0.12012,-0.0665 -0.36385,-0.26856 -0.54163,-0.44903 -0.43988,-0.44652 -2.92237,-2.21948 -4.21249,-3.00845 -2.97793,-1.82119 -5.66201,-3.11089 -8.2915,-3.98404 -0.73708,-0.24477 -1.51246,-0.52051 -1.72308,-0.61275 -0.21057,-0.0922 -1.10084,-0.31967 -1.97831,-0.50535 -0.87748,-0.18571 -1.91973,-0.42164 -2.31609,-0.52432 -1.57331,-0.40755 -4.35815,-0.59199 -7.89465,-0.52283 -1.86027,0.0364 -3.81307,0.13088 -4.33957,0.21 -1.62012,0.24354 -6.09284,1.23654 -6.31789,1.40266 -0.0702,0.0518 -0.64455,0.25473 -1.27635,0.45093 -0.63177,0.19622 -1.47731,0.5209 -1.87895,0.72151 -0.40165,0.20063 -0.78547,0.36479 -0.85298,0.36479 -0.0675,0 -0.9699,0.4164 -2.00539,0.92535 -2.43822,1.1984 -2.64783,1.30833 -3.55888,1.86638 -0.4212,0.25799 -0.92279,0.54868 -1.11466,0.64595 -0.19184,0.0973 -0.46228,0.28258 -0.60091,0.41176 -0.13865,0.12915 -0.28567,0.23486 -0.32671,0.23486 -0.12537,0 -1.36457,0.94955 -2.07392,1.5892 -0.4466,0.4027 -0.67009,0.70418 -0.67009,0.90396 0,0.38438 0.0685,0.42054 0.97189,0.51302 0.41314,0.0423 0.86605,0.12707 1.00645,0.18837 0.14038,0.0613 2.06448,0.28659 4.27575,0.5006 2.21124,0.21402 4.19276,0.44236 4.40336,0.50742 0.21059,0.0651 2.4793,0.3277 5.04157,0.58361 2.56223,0.25591 4.7735,0.51393 4.9139,0.57338 0.1404,0.0594 2.0932,0.28711 4.33955,0.50593 2.24638,0.21884 4.28532,0.45383 4.53103,0.52218 0.24568,0.0684 2.54311,0.35217 5.10535,0.63067 6.19846,0.67374 13.28192,1.4955 14.23122,1.65098 0.42119,0.069 2.25913,0.30537 4.08429,0.52525 1.82518,0.21991 3.37593,0.44483 3.44613,0.49982 0.0702,0.055 0.42725,0.17022 0.79343,0.25604 0.50676,0.11878 0.77491,0.27681 1.12249,0.66156 0.86328,0.95553 0.84745,1.25277 -0.12984,2.43859 -0.73285,0.88924 -0.32629,0.86895 -5.48747,0.27394 z"
     id="path5602" />
  <path
     style="display:inline;fill:#3c729c;fill-opacity:1;stroke-width:0.255268"
     d="m 359.17835,585.7122 c 0,-0.14045 1.01735,-2.23683 2.26083,-4.65864 1.24345,-2.42181 2.81512,-5.49454 3.49257,-6.82833 0.67747,-1.33378 1.297,-2.48249 1.37675,-2.55268 0.0797,-0.0702 1.35113,-1.44865 2.8253,-3.06321 1.47418,-1.61459 2.73774,-2.99303 2.80794,-3.06323 0.0702,-0.0702 1.27543,-1.39121 2.67827,-2.93559 1.40284,-1.54436 3.13422,-3.43975 3.84751,-4.21191 2.40704,-2.60583 4.82145,-5.23493 7.27415,-7.92097 5.05586,-5.53691 8.78574,-9.61111 10.04351,-10.97064 2.73853,-2.96014 10.82602,-11.95171 12.34541,-13.72547 1.55978,-1.82096 2.07142,-3.1205 1.22856,-3.1205 -0.19928,0 -2.00714,1.75178 -4.01749,3.89285 -2.01035,2.14106 -4.88648,5.14581 -6.39145,6.6772 -2.34116,2.38227 -2.79319,2.73718 -3.13004,2.45761 -0.831,-0.68963 -0.44173,-1.38088 2.87989,-5.11433 2.64736,-2.97556 3.7957,-4.23807 7.06475,-7.76714 1.40396,-1.51566 2.64454,-2.91524 2.75682,-3.11021 0.33261,-0.57756 0.78239,-0.41444 1.83802,0.66662 1.09968,1.12616 1.66853,1.25159 2.54604,0.56133 0.32144,-0.25283 1.0563,-0.61544 1.63302,-0.80576 0.93378,-0.30819 1.1617,-0.29507 2.08193,0.11992 1.29109,0.5822 2.47493,2.1582 2.6879,3.57831 0.29773,1.98541 -0.0415,2.48158 -6.62274,9.68639 -1.2794,1.4006 -2.95795,3.2419 -3.73014,4.09178 -1.69253,1.86285 -4.79669,5.25707 -10.74107,11.74476 -2.44608,2.66961 -5.53829,6.0583 -6.87161,7.5304 -1.33334,1.4721 -3.00728,3.30834 -3.71989,4.08051 -3.71701,4.02782 -5.05242,5.48098 -7.38512,8.03625 -9.00506,9.86435 -8.34613,9.2624 -13.86913,12.67013 -2.76141,1.70383 -5.44902,3.37056 -5.9725,3.7039 -1.06043,0.6752 -1.21799,0.72056 -1.21799,0.35065 z"
     id="path5754" />
  <path
     style="fill:#000000;stroke-width:0.0883883"
     d="M 15.77732,68.544046 C 13.906215,68.195803 11.912469,67.337234 10.774697,66.389762 9.4967561,65.325566 8.2706825,63.412831 7.822028,61.783455 7.388357,60.208494 7.3809793,60.021102 7.388785,50.779106 7.4007077,36.662526 7.5387767,17.981624 7.6383471,17.013048 7.9837774,13.652857 9.6725216,10.879654 12.155933,9.594407 c 1.060156,-0.5486651 1.92729,-0.8182342 3.44337,-1.0704524 l 1.314198,-0.2186329 21.19754,0.028095 c 19.547989,0.025909 21.254238,0.0398 21.926137,0.1785123 1.783095,0.3681158 3.389921,1.0488831 4.565717,1.934368 1.827842,1.376535 3.079504,4.142098 3.272836,7.231372 0.0289,0.46183 0.09466,9.948109 0.146136,21.080621 0.08528,18.443286 0.08097,20.327282 -0.04854,21.213204 -0.740853,5.067964 -3.108219,7.573074 -8.039304,8.507063 -0.62577,0.118526 -3.352504,0.138515 -22.103808,0.162037 -18.012251,0.02259 -21.494662,0.0073 -22.052893,-0.09655 z M 37.1673,66.056329 c 23.131655,-0.319584 21.68414,-0.284133 22.804194,-0.558486 0.413215,-0.101216 1.165926,-0.385831 1.672689,-0.632478 0.783145,-0.381164 1.028909,-0.556493 1.638005,-1.168559 1.218985,-1.224926 1.769025,-2.656101 1.907322,-4.962749 0.103949,-1.733746 0.10357,-38.756504 -4.42e-4,-40.481863 -0.206562,-3.427888 -1.363186,-5.401317 -3.835036,-6.543382 -0.366495,-0.169331 -0.996538,-0.383475 -1.400097,-0.475875 -0.66533,-0.152336 -2.637825,-0.326134 -3.297004,-0.290501 -0.145841,0.0079 -9.234373,0.04895 -20.196738,0.09126 -19.73072,0.07615 -19.939238,0.07877 -20.692304,0.26024 -1.690754,0.407423 -2.680064,0.939934 -3.643386,1.961106 -0.85546,0.906833 -1.337987,1.85311 -1.71434,3.361969 -0.193273,0.774867 -0.229749,9.095657 -0.124958,28.505242 0.07648,14.166037 0.08238,14.51299 0.259502,15.256421 0.413609,1.736064 1.060577,2.902531 2.200094,3.966715 1.064139,0.993788 2.343188,1.544972 4.225762,1.821018 0.893338,0.130992 3.956412,0.114298 20.196737,-0.110076 z"
     id="path296"
     transform="scale(9.9999253)" />
  <path
     style="fill:#132b80;stroke:#000080;stroke-width:0.0625;fill-opacity:1"
     d="M 20.704854,49.684146 C 19.1855,49.56479 17.716023,48.982722 16.805222,48.139482 16.062431,47.451788 15.616736,46.65504 15.241384,45.343882 L 15.0625,44.719014 V 33.682846 22.646679 l 0.189961,-0.676513 c 0.539222,-1.92034 1.444302,-3.043892 3.069319,-3.810202 1.206693,-0.56904 1.757613,-0.624677 5.70947,-0.576595 5.278958,0.06423 11.698771,0.438676 11.957991,0.69747 0.02311,0.02307 0.05028,1.136502 0.06039,2.4743 l 0.01838,2.432361 -3.455876,0.0065 c -1.900732,0.0036 -5.002751,0.02541 -6.893376,0.04847 -3.347733,0.04083 -3.444029,0.04541 -3.6875,0.175236 -0.309963,0.165282 -0.540931,0.407768 -0.720854,0.756806 -0.195587,0.379421 -0.240928,1.136344 -0.244714,4.085242 l -0.0032,2.478542 0.578125,0.03523 c 0.317969,0.01938 1.182812,0.05071 1.921875,0.06963 0.739062,0.01892 2.159375,0.07547 3.15625,0.125674 0.996875,0.0502 2.810937,0.120345 4.03125,0.155875 1.220312,0.03553 2.464844,0.08228 2.765625,0.103897 l 0.546875,0.0393 v 2.451752 2.451752 l -0.734375,0.04013 c -0.403906,0.02207 -2.351563,0.08195 -4.328125,0.133069 -1.976563,0.05112 -4.412703,0.121052 -5.413646,0.155405 -1.000943,0.03435 -1.981528,0.06246 -2.179078,0.06246 h -0.359183 l 0.03119,2.953125 c 0.01997,1.890522 0.05601,3.032612 0.100173,3.174032 0.110023,0.352346 0.418956,0.791035 0.676576,0.960749 0.546315,0.359898 0.457572,0.354968 6.956466,0.386403 3.282812,0.01588 6.257031,0.04492 6.609375,0.06455 l 0.640625,0.03567 v 2.431485 C 36.0625,47.905831 36.050817,49 36.036537,49 c -0.01428,0 -0.780685,0.05513 -1.703125,0.122517 -2.934915,0.214397 -7.779696,0.46652 -10.239662,0.532873 -0.6875,0.01854 -1.5875,0.04389 -2,0.05633 -0.4125,0.01244 -1.037503,2.9e-5 -1.388896,-0.02758 z"
     id="path1238"
     transform="scale(9.9999253)" />
  <path
     style="fill:#132b80;fill-opacity:1;stroke:#000080;stroke-width:0.176777"
     d="M 39.59798,33.587572 V 17.500893 l 3.933281,0.01471 c 2.163305,0.0081 5.961794,0.07043 8.441087,0.138532 l 4.507806,0.123825 1.282138,0.594978 c 2.098557,0.973839 3.31852,2.561036 4.01742,5.226754 0.4398,1.677461 0.387491,6.500085 -0.08899,8.204477 -0.527578,1.887168 -1.175169,3.095057 -2.146465,4.00359 -1.881127,1.759574 -3.849148,2.08569 -9.1629,1.518362 -1.993157,-0.212802 -3.882458,-0.38531 -4.198446,-0.383351 l -0.574525,0.0036 v 6.363961 6.363961 H 42.603183 39.59798 Z m 15.008546,-1.493566 c 1.117733,-0.578002 1.695838,-2.446515 1.56939,-5.072471 -0.09654,-2.004836 -0.568316,-3.179563 -1.533865,-3.819338 -0.580902,-0.384907 -0.73941,-0.398003 -4.817165,-0.398003 h -4.216499 v 4.77297 4.772971 h 4.25142 c 3.366633,0 4.354499,-0.0533 4.746719,-0.256129 z"
     id="path4192"
     transform="scale(9.9999253)" />
  <path
     style="fill:#132b80;fill-opacity:1;stroke:#000080;stroke-width:0.176777"
     d="M 15.600645,68.400088 C 14.554842,68.218256 12.862754,67.568131 11.772807,66.92938 10.135311,65.969743 8.5946318,63.836005 7.8656933,61.51829 7.4408223,60.16738 7.3539696,51.322434 7.5723338,31.643028 7.7602955,14.703557 7.7052874,15.441012 8.9594385,13.047089 10.121327,10.829278 12.200093,9.3494605 15.042647,8.7166167 16.225748,8.4532206 18.429064,8.4293256 37.918601,8.4685264 c 23.823955,0.047919 22.718676,-0.00435 25.135742,1.1887185 2.176986,1.0745651 3.600766,2.9522981 4.405945,5.8107161 0.268811,0.954288 0.312085,3.090583 0.431495,21.301592 0.073,11.132512 0.06517,21.15575 -0.0174,22.273863 -0.372055,5.038383 -2.249485,7.599733 -6.62126,9.033286 l -1.237437,0.405769 -21.743533,0.03948 c -12.514751,0.02273 -22.137405,-0.029 -22.671513,-0.121866 z m 35.054639,-2.459077 c 8.746188,-0.158358 8.861245,-0.16515 10.038443,-0.592449 2.079531,-0.75483 3.332195,-1.928102 4.089459,-3.830272 0.479917,-1.205506 0.602658,-5.909622 0.601935,-23.069359 -6.93e-4,-16.440741 -0.12874,-21.578626 -0.572926,-22.988968 -0.837312,-2.658547 -2.920072,-4.162315 -6.184793,-4.465464 -0.792078,-0.07355 -10.747434,-0.0853 -22.123015,-0.02611 -20.478711,0.106549 -20.692877,0.111298 -21.696347,0.481082 -2.140992,0.788967 -3.497343,2.158917 -4.241139,4.28366 l -0.402241,1.149048 0.04816,21.036427 c 0.02959,12.924666 0.116361,21.464053 0.225021,22.145398 0.480393,3.012263 2.368325,5.121845 5.342048,5.969221 0.796441,0.226949 2.675802,0.250079 13.476651,0.165857 6.90313,-0.05383 16.532563,-0.169959 21.398741,-0.258066 z"
     id="path4231"
     transform="scale(9.9999253)" />
</svg>
