<svg xmlns="http://www.w3.org/2000/svg" viewBox="0 0 429.71 567.97"><defs><style>.cls-1{fill:#414042;}</style></defs><title>webcam</title><g id="Layer_2" data-name="Layer 2"><path class="cls-1" d="M378,472.88H302.09a24,24,0,0,0-24-24h-24v-50H292.1a24.06,24.06,0,0,0,24-24v-14a23.73,23.73,0,0,0-.33-3.79c52.86-31.37,88.19-88.25,88.19-153.21,0-98.86-81.8-179-182.72-179S38.49,105,38.49,203.88c0,69.63,40.59,130,99.85,159.56v11.44a24,24,0,0,0,24,24h41.94v50h-22a24,24,0,0,0-24,24H84.42a24,24,0,0,0-24,24v4a24,24,0,0,0,24,24H378a24.06,24.06,0,0,0,24-24v-4A24.06,24.06,0,0,0,378,472.88ZM100.4,209.57c0-66.66,54.53-120.69,121.81-120.69S344,142.91,344,209.57,289.49,330.26,222.21,330.26,100.4,276.22,100.4,209.57Z"/><path class="cls-1" d="M223,132.09c-44.67,0-80.88,35.23-80.88,78.69S178.3,289.47,223,289.47s80.87-35.23,80.87-78.69S267.63,132.09,223,132.09Zm-25,80a26,26,0,1,1,26-26A26,26,0,0,1,198,212.09Z"/></g></svg>