<?xml version="1.0" encoding="utf-8"?>
<!-- Generator: Adobe Illustrator 23.0.6, SVG Export Plug-In . SVG Version: 6.00 Build 0)  -->
<svg version="1.1" id="Layer_1" xmlns="http://www.w3.org/2000/svg" xmlns:xlink="http://www.w3.org/1999/xlink" x="0px" y="0px"
	 viewBox="0 0 429.7 568" style="enable-background:new 0 0 429.7 568;" xml:space="preserve">
<style type="text/css">
	.st0{fill:#414042;}
</style>
<title>webcam</title>
<g>
	<path class="st0" d="M869.9,501.3H794c0-13.3-10.7-24-24-24h-24v-50h38c13.2,0,24-10.8,24-24v-14c0-1.3-0.1-2.5-0.3-3.8
		c52.9-31.4,88.2-88.2,88.2-153.2c0-98.9-81.8-179-182.7-179s-182.8,80.1-182.8,179c0,69.6,40.6,130,99.8,159.6v11.4
		c0,13.3,10.7,24,24,24h41.9v50h-22c-13.3,0-24,10.7-24,24h-73.9c-13.3,0-24,10.7-24,24v4c0,13.3,10.7,24,24,24h293.6
		c13.2,0,24-10.8,24-24v-4C893.9,512,883.1,501.3,869.9,501.3z M592.3,237.9c0-66.7,54.5-120.7,121.8-120.7s121.8,54,121.8,120.7
		s-54.5,120.7-121.8,120.7S592.3,304.6,592.3,237.9z"/>
	<path class="st0" d="M714.9,160.5c-44.7,0-80.9,35.2-80.9,78.7s36.2,78.7,80.9,78.7s80.9-35.2,80.9-78.7S759.5,160.5,714.9,160.5z
		 M689.9,240.5c-14.4,0-26-11.6-26-26s11.6-26,26-26c14.4,0,26,11.6,26,26S704.2,240.5,689.9,240.5z"/>
</g>
</svg>
