<svg xmlns="http://www.w3.org/2000/svg" xmlns:xlink="http://www.w3.org/1999/xlink" viewBox="0 0 521.91 504.03"><defs><style>.cls-1{fill:none;}.cls-2{isolation:isolate;}.cls-17,.cls-3{fill:#fff;}.cls-4{fill:#f4f7fa;}.cls-5{fill:#bfc6d1;}.cls-6{fill:#d8dee8;}.cls-7{fill:url(#linear-gradient);}.cls-8{fill:url(#linear-gradient-2);}.cls-9{fill:url(#linear-gradient-3);}.cls-10{fill:url(#linear-gradient-4);}.cls-11{fill:url(#linear-gradient-5);}.cls-12{opacity:0.8;fill:url(#linear-gradient-6);}.cls-12,.cls-22,.cls-35{mix-blend-mode:multiply;}.cls-13{fill:url(#linear-gradient-7);}.cls-14{fill:#26264f;}.cls-15{fill:url(#linear-gradient-8);}.cls-16{fill:url(#linear-gradient-9);}.cls-17{opacity:0.48;mix-blend-mode:soft-light;}.cls-18{fill:url(#linear-gradient-10);}.cls-19{fill:url(#linear-gradient-11);}.cls-20{clip-path:url(#clip-path);}.cls-21{fill:url(#linear-gradient-12);}.cls-22,.cls-35{opacity:0.3;}.cls-23{fill:url(#linear-gradient-13);}.cls-24{fill:url(#linear-gradient-14);}.cls-25{fill:url(#linear-gradient-15);}.cls-26{fill:url(#linear-gradient-16);}.cls-27{fill:url(#linear-gradient-17);}.cls-28{fill:url(#linear-gradient-18);}.cls-29{fill:url(#linear-gradient-19);}.cls-30{fill:url(#linear-gradient-20);}.cls-31{fill:url(#linear-gradient-21);}.cls-32{fill:url(#linear-gradient-22);}.cls-33{fill:url(#linear-gradient-23);}.cls-34{fill:url(#linear-gradient-24);}.cls-35{fill:url(#linear-gradient-25);}.cls-36{fill:url(#linear-gradient-26);}.cls-37{fill:url(#linear-gradient-27);}.cls-38{fill:url(#linear-gradient-28);}.cls-39{fill:url(#linear-gradient-29);}.cls-40{fill:url(#linear-gradient-30);}.cls-41{fill:url(#linear-gradient-31);}.cls-42{fill:url(#linear-gradient-32);}.cls-43{fill:url(#linear-gradient-33);}.cls-44{fill:url(#linear-gradient-34);}.cls-45{fill:url(#linear-gradient-35);}.cls-46{fill:url(#linear-gradient-36);}</style><linearGradient id="linear-gradient" x1="478.89" y1="48.17" x2="412.84" y2="111.65" gradientUnits="userSpaceOnUse"><stop offset="0" stop-color="#ffc444"/><stop offset="1" stop-color="#f36f56"/></linearGradient><linearGradient id="linear-gradient-2" x1="282.6" y1="62.64" x2="507.09" y2="429.81" xlink:href="#linear-gradient"/><linearGradient id="linear-gradient-3" x1="401.64" y1="271.69" x2="219.32" y2="-94.92" xlink:href="#linear-gradient"/><linearGradient id="linear-gradient-4" x1="264.86" y1="200.57" x2="440.9" y2="200.57" gradientUnits="userSpaceOnUse"><stop offset="0" stop-color="#311944"/><stop offset="1" stop-color="#893976"/></linearGradient><linearGradient id="linear-gradient-5" x1="408.95" y1="109.74" x2="336.55" y2="243.58" gradientUnits="userSpaceOnUse"><stop offset="0" stop-color="#e38ddd"/><stop offset="1" stop-color="#9571f6"/></linearGradient><linearGradient id="linear-gradient-6" x1="326.64" y1="80.11" x2="363.97" y2="250.07" xlink:href="#linear-gradient-5"/><linearGradient id="linear-gradient-7" x1="388.03" y1="98.43" x2="315.62" y2="232.26" xlink:href="#linear-gradient-5"/><linearGradient id="linear-gradient-8" x1="90.65" y1="316.07" x2="342.53" y2="316.07" gradientUnits="userSpaceOnUse"><stop offset="0" stop-color="#444b8c"/><stop offset="1" stop-color="#26264f"/></linearGradient><linearGradient id="linear-gradient-9" x1="90.65" y1="412.92" x2="470.1" y2="412.92" xlink:href="#linear-gradient-8"/><linearGradient id="linear-gradient-10" x1="138.23" y1="219.08" x2="248.12" y2="219.08" gradientUnits="userSpaceOnUse"><stop offset="0" stop-color="#ab316d"/><stop offset="1" stop-color="#792d3d"/></linearGradient><linearGradient id="linear-gradient-11" x1="229.26" y1="157.88" x2="142.07" y2="322.57" gradientUnits="userSpaceOnUse"><stop offset="0" stop-color="#ff9085"/><stop offset="1" stop-color="#fb6fbb"/></linearGradient><clipPath id="clip-path"><path class="cls-1" d="M244.8,219c0,26.74-20.7,48.78-46.63,49.49-26.27.72-48.26-20.69-48.8-48.08-.54-27.68,21-50.38,47.79-50.43C223.58,169.91,244.76,192,244.8,219Z"/></clipPath><linearGradient id="linear-gradient-12" x1="200.47" y1="234.08" x2="193.75" y2="180.68" gradientUnits="userSpaceOnUse"><stop offset="0" stop-color="#311944"/><stop offset="1" stop-color="#6b3976"/></linearGradient><linearGradient id="linear-gradient-13" x1="199.32" y1="234.22" x2="192.6" y2="180.83" xlink:href="#linear-gradient-12"/><linearGradient id="linear-gradient-14" x1="198.04" y1="243.84" x2="199.27" y2="283.16" xlink:href="#linear-gradient"/><linearGradient id="linear-gradient-15" x1="199.39" y1="253.59" x2="200.52" y2="219.51" xlink:href="#linear-gradient-10"/><linearGradient id="linear-gradient-16" x1="197.11" y1="224.85" x2="198.6" y2="202.18" xlink:href="#linear-gradient-10"/><linearGradient id="linear-gradient-17" x1="207.47" y1="225.45" x2="208.95" y2="202.79" xlink:href="#linear-gradient-10"/><linearGradient id="linear-gradient-18" x1="187.26" y1="224.33" x2="188.74" y2="201.76" xlink:href="#linear-gradient-10"/><linearGradient id="linear-gradient-19" x1="197.43" y1="216.66" x2="198.47" y2="174.43" xlink:href="#linear-gradient"/><linearGradient id="linear-gradient-20" x1="960.04" y1="420.14" x2="962.49" y2="451.33" gradientTransform="translate(-626.26)" gradientUnits="userSpaceOnUse"><stop offset="0" stop-color="#26264f"/><stop offset="1" stop-color="#444b8c"/></linearGradient><linearGradient id="linear-gradient-21" x1="966.36" y1="437.5" x2="965.92" y2="405.2" gradientTransform="translate(-626.26)" xlink:href="#linear-gradient-10"/><linearGradient id="linear-gradient-22" x1="1006.34" y1="416.5" x2="1008.79" y2="447.69" xlink:href="#linear-gradient-20"/><linearGradient id="linear-gradient-23" x1="1008.8" y1="436.92" x2="1008.35" y2="404.62" gradientTransform="translate(-626.26)" xlink:href="#linear-gradient-10"/><linearGradient id="linear-gradient-24" x1="332.39" y1="385.18" x2="356.27" y2="385.18" xlink:href="#linear-gradient-5"/><linearGradient id="linear-gradient-25" x1="334.04" y1="385.18" x2="356.27" y2="385.18" xlink:href="#linear-gradient-5"/><linearGradient id="linear-gradient-26" x1="339.02" y1="382.83" x2="387.1" y2="382.83" xlink:href="#linear-gradient-5"/><linearGradient id="linear-gradient-27" x1="-6380.74" y1="310.79" x2="-6393.92" y2="350.35" gradientTransform="matrix(-1, 0.02, 0.02, 1, -6095.4, 68.97)" xlink:href="#linear-gradient-10"/><linearGradient id="linear-gradient-28" x1="216.24" y1="344.61" x2="238.79" y2="438.11" gradientTransform="translate(101.15 -66.19) rotate(-1.25)" xlink:href="#linear-gradient"/><linearGradient id="linear-gradient-29" x1="251.52" y1="376" x2="270.09" y2="376" gradientTransform="translate(101.15 -66.19) rotate(-1.25)" xlink:href="#linear-gradient"/><linearGradient id="linear-gradient-30" x1="250.3" y1="376" x2="268.87" y2="376" gradientTransform="translate(101.15 -66.19) rotate(-1.25)" xlink:href="#linear-gradient"/><linearGradient id="linear-gradient-31" x1="235.01" y1="340.08" x2="257.57" y2="433.59" gradientTransform="translate(101.15 -66.19) rotate(-1.25)" xlink:href="#linear-gradient"/><linearGradient id="linear-gradient-32" x1="-1009.25" y1="342.76" x2="-1001.91" y2="354.42" gradientTransform="translate(1350.42 -93.43) rotate(-1.25)" xlink:href="#linear-gradient-11"/><linearGradient id="linear-gradient-33" x1="-815.99" y1="1331.75" x2="-824.57" y2="1345.64" gradientTransform="matrix(0.95, -0.31, 0.31, 0.95, 723.7, -1250.47)" xlink:href="#linear-gradient-10"/><linearGradient id="linear-gradient-34" x1="-2082.91" y1="1071.79" x2="-2090.71" y2="1084.41" gradientTransform="translate(1567.6 -1735.79) rotate(-31.5)" xlink:href="#linear-gradient-10"/><linearGradient id="linear-gradient-35" x1="229.72" y1="341.36" x2="252.28" y2="434.86" gradientTransform="translate(101.15 -66.19) rotate(-1.25)" xlink:href="#linear-gradient"/><linearGradient id="linear-gradient-36" x1="347.52" y1="269.76" x2="393.1" y2="269.76" xlink:href="#linear-gradient-12"/></defs><title>secure</title><g class="cls-2"><g id="Background"><rect class="cls-3" x="21.91" y="4.03" width="500" height="500"/></g><g id="Illustration"><path class="cls-4" d="M174.13,75.19c-13.19,18.88,2.27,49.49-17.3,63.68-19.05,13.83-42.45-8.83-60.4,3.07-26.63,17.65-21.76,98.4,17.17,148.58,11.71,15.09,21.49,21,25.83,38,9.3,36.65-23.4,58.45-17.18,76.57,14,40.81,229.5,75.05,316-47.59,40.39-57.28,46.43-140,10.35-202.81C383.36,41.2,203.72,32.83,174.13,75.19Z"/><path class="cls-5" d="M197.33,131.63c5.07.43,9.56-3.67,10-9.16s-3.27-10.29-8.34-10.72c-.27,0-.53,0-.78,0a59.62,59.62,0,0,0-1.32-8.32,6.43,6.43,0,0,0,.71-.32,10.43,10.43,0,0,0,4.51-13.29,8.85,8.85,0,0,0-12.24-4.7,7.1,7.1,0,0,0-.7.41,52.29,52.29,0,0,0-5-6.42c.17-.22.34-.44.49-.68a10.43,10.43,0,0,0-2.22-13.86,8.83,8.83,0,0,0-12.84,2.58c-.15.23-.29.47-.42.71a46.68,46.68,0,0,0-7.34-2.8,8,8,0,0,0,.11-.84c.47-5.49,1.47-11.69-3.61-12-11.74-.8-14.29,5-14.75,10.49,0,.28,0,.56,0,.85a46,46,0,0,0-7.7,1.53c-.09-.25-.18-.51-.29-.77-2.14-5-1.75-8.28-6.6-6.42-10.58,4.06-12.28,10.06-10.14,15,.11.26.24.51.36.75a53.65,53.65,0,0,0-6,5.5,7.75,7.75,0,0,0-.62-.52,8.85,8.85,0,0,0-12.85,2.58A10.46,10.46,0,0,0,102,95c.21.15.43.3.65.43a57.1,57.1,0,0,0-2.69,8,6.49,6.49,0,0,0-.77-.11c-5.07-.43-9.56,3.68-10,9.17s3.27,10.29,8.34,10.71q.39,0,.78,0a59.71,59.71,0,0,0,1.32,8.31c-.24.1-.48.2-.71.32a10.44,10.44,0,0,0-4.51,13.3,8.84,8.84,0,0,0,12.24,4.69c.24-.12.47-.26.7-.4a53.06,53.06,0,0,0,5,6.42c-.17.22-.34.44-.49.68A10.43,10.43,0,0,0,114,170.43c4.16,3.11,13.16,1.69,16.1-2.85.15-.24-3-.21-2.84-.45a46.72,46.72,0,0,0,7.34,2.81,7.71,7.71,0,0,0-.11.84c-.47,5.49,3.27,10.29,8.34,10.71s9.55-3.68,10-9.17q0-.42,0-.84a47.29,47.29,0,0,0,7.7-1.54c.09.26.18.52.29.77a8.85,8.85,0,0,0,12.24,4.7,10.44,10.44,0,0,0,4.5-13.3c-.11-.26-.24-.51-.37-.75a52.79,52.79,0,0,0,6-5.49c.2.17.4.35.62.51a8.84,8.84,0,0,0,12.85-2.58,10.44,10.44,0,0,0-2.22-13.86c-.21-.16-.43-.3-.65-.44a58.3,58.3,0,0,0,2.69-8C196.81,131.57,197.07,131.61,197.33,131.63Zm-52.13,22c-18.41-1.55-32-19-30.29-38.9s18-34.84,36.37-33.29,32,19,30.29,38.9S163.61,155.13,145.2,153.58Z"/><path class="cls-5" d="M197.62,103.09a10.43,10.43,0,0,0,4.51-13.29,8.85,8.85,0,0,0-12.24-4.7,7.1,7.1,0,0,0-.7.41,52.29,52.29,0,0,0-5-6.42c.17-.22.34-.44.49-.68,2.94-4.54,5.19-13.55.73-16.22-8.46-5.07-12.86.4-15.79,4.94-.15.23-.29.47-.42.71a46.68,46.68,0,0,0-7.34-2.8,8,8,0,0,0,.11-.84,10.24,10.24,0,0,0-2.52-7.75q-1.69,12.87-3.17,25.78c15.8,4,26.82,20,25.29,38.06-1.29,15.33-11.21,27.67-24.09,31.86,0,1.67.07,3.35.06,5,0,4.55-.34,9.11-.64,13.67,1.25-.26,2.48-.56,3.7-.91.09.26.18.52.29.77,2.14,5,6.91,8,15.41,4,4.71-2.21,3.47-7.63,1.33-12.6-.11-.26-.24-.51-.37-.75a52.79,52.79,0,0,0,6-5.49c.2.17.4.35.62.51,4.16,3.12,13.49,1.37,16.43-3.17s-1.64-10.16-5.8-13.27c-.21-.16-.43-.3-.65-.44a58.3,58.3,0,0,0,2.69-8c.25,0,.51.08.77.1,5.07.43,9.56-3.67,10-9.16s-3.27-10.29-8.34-10.72c-.27,0-.53,0-.78,0a59.24,59.24,0,0,0-1.32-8.31C197.15,103.32,197.39,103.21,197.62,103.09Z"/><path class="cls-6" d="M202.06,130.31c5.07.43,9.56-3.68,10-9.17s-3.27-10.28-8.34-10.71a6.89,6.89,0,0,0-.78,0,59.62,59.62,0,0,0-1.32-8.32c.24-.1.48-.2.71-.32a10.44,10.44,0,0,0,4.51-13.3,8.85,8.85,0,0,0-12.24-4.69,7.1,7.1,0,0,0-.7.41,52.29,52.29,0,0,0-5-6.42c.17-.22.34-.45.49-.68a10.45,10.45,0,0,0-2.22-13.87,8.84,8.84,0,0,0-12.84,2.59c-.15.23-.29.47-.42.71a47.73,47.73,0,0,0-7.34-2.81,7.4,7.4,0,0,0,.11-.84c.47-5.49-3.27-10.28-8.34-10.71s-9.56,3.68-10,9.17q0,.42,0,.84a47.08,47.08,0,0,0-7.7,1.54c-.09-.26-.18-.52-.29-.77a8.84,8.84,0,0,0-12.24-4.69,10.42,10.42,0,0,0-4.5,13.29c.11.26.24.51.37.75a52.88,52.88,0,0,0-6,5.5,7.75,7.75,0,0,0-.62-.52,8.84,8.84,0,0,0-12.85,2.58,10.44,10.44,0,0,0,2.22,13.86c.21.16.43.3.65.44a57.1,57.1,0,0,0-2.69,8,6.49,6.49,0,0,0-.77-.11c-5.07-.43-9.56,3.68-10,9.17s3.27,10.28,8.34,10.71a6.77,6.77,0,0,0,.78,0,59.62,59.62,0,0,0,1.32,8.32c-.24.1-.48.2-.71.32a10.44,10.44,0,0,0-4.51,13.3,8.85,8.85,0,0,0,12.24,4.69,7.1,7.1,0,0,0,.7-.41,52.29,52.29,0,0,0,5,6.42c-.17.22-.34.45-.49.68a10.45,10.45,0,0,0,2.22,13.87,8.84,8.84,0,0,0,12.84-2.59c.15-.23.29-.47.42-.71a47.73,47.73,0,0,0,7.34,2.81,7.4,7.4,0,0,0-.11.84c-.47,5.49,3.27,10.28,8.34,10.71s9.55-3.68,10-9.17q0-.42,0-.84a47.29,47.29,0,0,0,7.7-1.54c.09.26.18.51.29.77a8.84,8.84,0,0,0,12.24,4.69,10.42,10.42,0,0,0,4.5-13.29c-.11-.26-.24-.51-.37-.75a52.88,52.88,0,0,0,6-5.5,7.75,7.75,0,0,0,.62.52,8.84,8.84,0,0,0,12.85-2.58,10.44,10.44,0,0,0-2.22-13.86c-.21-.16-.43-.3-.65-.44a58.44,58.44,0,0,0,2.69-8A6.49,6.49,0,0,0,202.06,130.31Zm-52.13,21.95c-18.41-1.55-32-19-30.29-38.9s18-34.84,36.37-33.29S188,99,186.3,119,168.34,153.81,149.93,152.26Z"/><path class="cls-7" d="M347.11,345a30.18,30.18,0,0,1-16.43-4.25c-15-9-37.15-23.84-57.09-43.27-25.3-24.66-39.83-49.73-43-74.34l-.05-.39-.62-105c0-20.75,13.54-37.6,39-48.67,21-9.15,48.84-13.68,78.24-12.83,29.07.84,56,6.84,75.86,16.83,23.67,11.88,36.08,28.57,36.08,48.36l-.56,100.35-.05.37c-2.9,23.57-16.28,47.94-39.91,72.58-19,19.76-40.38,35.42-55.1,45.12A31.27,31.27,0,0,1,347.11,345Z"/><path class="cls-8" d="M352.88,345a29.44,29.44,0,0,1-16.21-4.25c-14.8-9-36.67-23.84-56.34-43.27-25-24.66-39.3-49.73-42.44-74.34l0-.39-.61-105c0-20.75,13.36-37.6,38.44-48.67,20.73-9.15,48.19-13.68,77.21-12.83,28.68.84,55.22,6.84,74.86,16.83,23.35,11.88,35.6,28.57,35.6,48.36l-.56,100.35,0,.37c-2.87,23.57-16.06,47.94-39.39,72.58-18.71,19.76-39.84,35.42-54.36,45.12A30.61,30.61,0,0,1,352.88,345Z"/><path class="cls-9" d="M244.16,117.79l.62,104.5c6.88,53.32,69.54,96.48,96.83,112.89a24.1,24.1,0,0,0,25.57-.69c26.72-17.59,85.95-61.85,92.28-113.11L460,121.3C460,47,244.16,40.26,244.16,117.79Z"/><path class="cls-10" d="M354.43,319.07a3.69,3.69,0,0,1-2-.54c-11.24-6.8-33-21-52-39.67-20.47-20.1-32.28-39.65-35-58l-.6-102.77c0-9.86,7.83-18.3,23.13-25,17.08-7.54,41.33-11.5,66.44-10.9,24.85.59,48.4,5.59,64.72,13.69,14.43,7.16,21.72,15.6,21.75,25.12l-.56,99.21c-2.53,17.77-13.61,36.92-33.06,57-18.3,18.93-39.66,33.94-50.83,41.24A3.85,3.85,0,0,1,354.43,319.07Z"/><path class="cls-4" d="M351.86,312c-11.34-7-31.52-20.48-49.13-37.81-19.24-18.93-30.37-37.1-33-53.9l-.6-102.18c0-7.05,6.5-13.51,19.21-19.14,16.18-7.17,39.37-10.94,63.5-10.4,23.91.54,46.44,5.26,61.93,12.92,12,6,18.11,12.44,18.13,19.32l-.56,98.85c-2.45,16.31-12.95,34.14-31.31,53.11C383,290.42,363.16,304.58,351.86,312Z"/><path class="cls-11" d="M392.47,178.27l-76.42.68c-5.87.06-10.66,4.63-10.66,10.23v49c0,5.56,4.77,9.87,10.62,9.63l76.15-3.12a10.25,10.25,0,0,0,9.84-10l.24-46.77A9.58,9.58,0,0,0,392.47,178.27Z"/><path class="cls-12" d="M364.72,206.35A9.46,9.46,0,0,0,354.43,197a10.11,10.11,0,0,0-9.47,9.23,9.21,9.21,0,0,0,4.93,8.69,3.42,3.42,0,0,1,1.71,3.65L349.4,231a2.48,2.48,0,0,0,2.61,2.9l5.59-.2a2.7,2.7,0,0,0,2.61-3.07l-2.14-12.25a3.65,3.65,0,0,1,1.82-3.71A9.79,9.79,0,0,0,364.72,206.35Z"/><path class="cls-13" d="M391.39,173.42a4.08,4.08,0,0,1-4.14-4.08l.05-10.66a19.81,19.81,0,0,0-19.85-19.63l-24.94-.25c-11.42-.12-20.81,8.79-20.82,19.84v11a4.37,4.37,0,0,1-4.45,4.26,4.32,4.32,0,0,1-4.46-4.22v-11c0-15.8,13.45-28.48,29.75-28.25l25,.34c15.68.22,28.2,12.77,28.13,28l-.05,10.63A4.18,4.18,0,0,1,391.39,173.42Z"/><path class="cls-14" d="M470.1,410.16,90.65,406.93v9.57a5.1,5.1,0,0,0,3.9,5.2l107.29,18.84a15.06,15.06,0,0,0,3.85.18L466,419.23a4.86,4.86,0,0,0,4.13-5.07Z"/><path class="cls-14" d="M332.4,394.83,94.57,412.33a7.2,7.2,0,0,1-7.71-7.43V227.8a7.87,7.87,0,0,1,7.71-8H332.4c3.5,0,6.34,3.24,6.34,7.24V387.12C338.74,391.12,335.9,394.57,332.4,394.83Z"/><path class="cls-15" d="M336.19,394.83,98.36,412.33a7.2,7.2,0,0,1-7.71-7.43V227.8a7.87,7.87,0,0,1,7.71-8H336.19c3.5,0,6.34,3.24,6.34,7.24V387.12C342.53,391.12,339.69,394.57,336.19,394.83Z"/><path class="cls-3" d="M328.78,383.54,107.27,398.75a5.92,5.92,0,0,1-6.28-6.11v-155a6.44,6.44,0,0,1,6.28-6.56l221.51-1c2.89,0,5.23,2.65,5.23,5.93V377.23C334,380.51,331.67,383.34,328.78,383.54Z"/><path class="cls-3" d="M225.68,224.64a2.75,2.75,0,1,1-2.74-3A2.87,2.87,0,0,1,225.68,224.64Z"/><path class="cls-16" d="M345.67,393.85l-255,18.43,111.19,19.53a15.53,15.53,0,0,0,3.85.18L470.1,410.16,349.72,394A20.31,20.31,0,0,0,345.67,393.85Z"/><polygon class="cls-14" points="127.86 412.44 340.17 396.87 405.88 405.63 195.4 422.28 127.86 412.44"/><path class="cls-6" d="M196.65,392.35l-90.36,6.08a4.58,4.58,0,0,1-4.9-4.58V235.59A4.59,4.59,0,0,1,106,231l90.69-.37Z"/><polygon class="cls-6" points="313.34 306.05 218.13 309.39 218.13 299.77 313.34 296.78 313.34 306.05"/><polygon class="cls-6" points="313.34 321.23 218.13 325.16 218.13 315.54 313.34 311.96 313.34 321.23"/><polygon class="cls-3" points="187.33 307.78 132.66 309.64 132.66 302.44 187.33 300.73 187.33 307.78"/><polygon class="cls-3" points="187.33 319.32 132.66 321.43 132.66 314.23 187.33 312.27 187.33 319.32"/><polygon class="cls-3" points="187.33 330.86 132.66 333.21 132.66 326.02 187.33 323.81 187.33 330.86"/><polygon class="cls-3" points="187.33 342.4 132.66 345 132.66 337.81 187.33 335.36 187.33 342.4"/><polygon class="cls-6" points="260.21 338.93 218.13 340.93 218.13 331.31 260.21 329.47 260.21 338.93"/><path class="cls-6" d="M253.43,263.5V278a7.47,7.47,0,0,0,7.85,7.36L272,285a7.85,7.85,0,0,0,7.73-7.69V263Zm9.88,14.95,2-6a2.61,2.61,0,0,1-1.43-2.32,2.8,2.8,0,0,1,2.78-2.74,2.66,2.66,0,0,1,2.77,2.63,2.73,2.73,0,0,1-1.43,2.37l2,5.94Z"/><path class="cls-6" d="M276.68,261.79a2,2,0,0,1-2.06-2,7.72,7.72,0,0,0-8-7.6,8,8,0,0,0-8,7.86,2.1,2.1,0,0,1-2.09,2.05,2,2,0,0,1-2.1-2,12.2,12.2,0,0,1,12.21-11.94,11.75,11.75,0,0,1,12.09,11.56A2.07,2.07,0,0,1,276.68,261.79Z"/><path class="cls-17" d="M98.36,412.33,335,394.91l1.21-.09a6.37,6.37,0,0,0,4.19-2.11c-17-.94-27.61-7-34.43-13.22-13.7-12.54-11.32-24.91-26.1-33.15-18.43-10.28-32.92,2.75-46.9-10.11-8.48-7.79-4.31-13.61-14.75-25.25-11.55-12.9-19.07-8.57-30.68-20.18-14.69-14.68-7.34-26.1-20-36.64-15.34-12.78-31.89-.95-46.49-13.21-6.3-5.29-9.76-13-11.56-21.16H98.36a7.87,7.87,0,0,0-7.71,8V404.9A7.2,7.2,0,0,0,98.36,412.33Z"/><path class="cls-18" d="M248.12,218.89c0,30.7-23.81,56-53.58,56.89-30.24.89-55.63-23.7-56.29-55.27-.67-32,24.2-58.15,55.12-58.15C223.79,162.36,248.12,187.82,248.12,218.89Z"/><path class="cls-19" d="M251.83,218.89c0,30.7-23.81,56-53.58,56.89-30.24.89-55.63-23.7-56.29-55.27-.67-32,24.2-58.15,55.12-58.15C227.51,162.36,251.83,187.82,251.83,218.89Z"/><path class="cls-3" d="M244.8,219a50.11,50.11,0,0,1-14,34.9c-8.39,8.72-56.11,10.5-64.74,2.94a49.55,49.55,0,0,1-16.74-36.43c-.54-27.68,21-50.38,47.79-50.43C223.58,169.91,244.76,192,244.8,219Z"/><g class="cls-20"><path class="cls-21" d="M198.13,235.87c-9,1.13-11.86,4.49-15.49,2.25-3.31-2.05-2-5.48-5.55-7.85-5-3.32-10.87,1.2-13.25-1.65-1.86-2.23,1.63-5.14.9-11.11-.86-7.12-6.49-8.58-5.78-14.32a11.94,11.94,0,0,1,4-7c2.51-2.07,3.77-1,6.09-2.88,3.36-2.74,1.86-5.93,5.29-9.1.27-.25,3.67-3.31,7.3-2.51,2.81.62,2.8,2.89,5.16,3.49,4.22,1.06,6.5-5.67,11.75-5.63,4.13,0,4.33,4.23,9.36,5.22,6.17,1.22,10.64-4.19,13.05-2,1.55,1.38-.17,3.7,1.61,6.32,1.95,2.86,4.87,1.35,8.08,4.34a10.89,10.89,0,0,1,3.47,7.9c-.11,3.09-1.91,3.87-1.5,6.61s2.23,2.75,2.7,5.29c.53,2.87-1.15,6.26-3.39,8.11-3.07,2.55-5.86,1.08-7.57,3.61-1.28,1.89-.13,3.32-1.21,5.54s-3.38,3.42-7.85,4.47C207.47,236.75,205.58,234.93,198.13,235.87Z"/><g class="cls-22"><path class="cls-23" d="M227.14,220c-5.17-1-5.68-6-11.16-7.48-9.44-2.6-17.23,9.59-22,6.67-4.57-2.8,1.51-14.61-4.8-21.61-4.68-5.17-11.71-2.84-13.32-6.72-.72-1.76-.23-4.54,3.59-9.17a10.74,10.74,0,0,0-5.13,2.57c-3.43,3.17-1.93,6.36-5.29,9.1-2.32,1.88-3.58.81-6.09,2.88a11.94,11.94,0,0,0-4,7c-.71,5.74,4.92,7.2,5.78,14.32.73,6-2.76,8.88-.9,11.11,2.38,2.85,8.27-1.67,13.25,1.65,3.54,2.37,2.24,5.8,5.55,7.85,3.63,2.24,6.45-1.12,15.49-2.25,7.45-.94,9.34.88,17.15-.94,4.47-1.05,6.81-2.33,7.85-4.47s-.07-3.65,1.21-5.54c1.71-2.53,4.5-1.06,7.57-3.61a9.87,9.87,0,0,0,2.16-2.57A10.8,10.8,0,0,1,227.14,220Z"/></g><path class="cls-24" d="M164.73,271c3.17,4.83,14.2,2.12,34.9,1.29s29.78,1.07,32.93-3.74c1.47-2.24.9-4.78-.18-9.6-.73-3.31-2.18-9.78-7.46-14.15-6.5-5.38-15.6-4.89-24.78-4.4-9.66.52-23.06,1.25-30.42,10-5.15,6.14-5.55,14.11-5.6,15.28C164,268.44,164,269.82,164.73,271Z"/><path class="cls-25" d="M195.13,224.71s1.39,14.71-8.61,17.85a1.47,1.47,0,0,0-.45,2.55c3.21,2.49,9,6.43,13.74,6.84,4.95.43,10.77-4.94,13.74-8.1a1.46,1.46,0,0,0-.78-2.44c-4.25-.69-11.93-3.68-11.26-16.24Z"/><path class="cls-26" d="M188.27,214.14s-.54,14.8,9.76,14.45,9.43-12.88,8.83-16.12c0,0,0-8.59-6.85-7.78S188.5,207.8,188.27,214.14Z"/><path class="cls-27" d="M206.1,217.72s1-3.87,3-2c3,2.73-3.28,6-3.28,6Z"/><path class="cls-28" d="M189.3,218s-1-3.86-3.07-1.91c-2.95,2.82,3.44,5.89,3.44,5.89Z"/><path class="cls-29" d="M188,213.94a.31.31,0,0,0,.59,0,10.24,10.24,0,0,1,8.64-6.94c5.17-.62,7.95,3.28,9.17,5.72a.58.58,0,0,0,1.09-.23c.32-3.56-.21-10.42-9-10.33C187.25,202.3,187,211.06,188,213.94Z"/></g><path class="cls-30" d="M338.55,435.69s-9.86,4.49-10,5.2,6.34-.24,9-.13,4.84-.69,4.59-1.81S341,435,341,435Z"/><path class="cls-31" d="M338.19,432.06l.6,4.44a3.51,3.51,0,0,0,2.61-.1l.45-4.87Z"/><path class="cls-32" d="M384.64,432.16l1.15,1.84a2.19,2.19,0,0,1,.26,1.73c-.4,1.53-1.2,4.51-1.55,5.29-.48,1.06-6.86,1.69-6.86,1.69s-.57-.8.76-1.77,2.17-1.12,2.64-2.54a37.12,37.12,0,0,0,.78-5.47Z"/><path class="cls-33" d="M379.87,427.48c.42.34,2.47,6.56,2.47,6.56s.66.85,1.92-.4l.57-.57-.24-6.12Z"/><path class="cls-34" d="M332.76,342.83c-.52,13.25-.54,27.64.22,43,.86,17.31,2.59,33.32,4.76,47.82.81,0,1.66,0,2.54,0q.9,0,1.74-.09a108.22,108.22,0,0,0,3.66-11.68,113.69,113.69,0,0,0,2.55-13.69c1.9-15-.33-16.31,1.22-27.43,1.36-9.85,3.3-10.24,5.58-24.22,2.47-15.17.63-17.45-.26-18.27C351,334.8,342,337.18,332.76,342.83Z"/><path class="cls-35" d="M354.77,338.3C351.13,335,342.82,337,334,342.08c10.1,10.91,11.2,18,10,22.58-1.37,5.2-5.53,6.69-5.51,12.37,0,7,6.31,8.82,6.18,16.2-.09,4.88-2.85,4.83-3.51,10.86-.77,7.14,2.84,9.59,1.67,14.87-.5,2.27-1.94,5.24-6,8.3.29,2.16.6,4.31.91,6.41.81,0,1.66,0,2.54,0q.9,0,1.74-.09a108.22,108.22,0,0,0,3.66-11.68,113.69,113.69,0,0,0,2.55-13.69c1.9-15-.33-16.31,1.22-27.43,1.36-9.85,3.3-10.24,5.58-24.22C357.5,341.4,355.66,339.12,354.77,338.3Z"/><path class="cls-36" d="M339,342.61a297.28,297.28,0,0,1,40.78,87.28,5.25,5.25,0,0,0,2.91.45,5.37,5.37,0,0,0,3.3-1.78,85.61,85.61,0,0,0,.75-21.12,72,72,0,0,0-3-15.88c-2.4-7.74-4.05-8.18-7.18-16.37-3.25-8.5-2.46-10.63-5.58-21.27a140.87,140.87,0,0,0-6.95-18.66Z"/><path class="cls-37" d="M297.88,252s-1.68-2-2.76-3.52-6-5.7-6-5.7-.36.69.71,1.76,3.32,2.89,2.83,3.69-1.9,1.53-.84,3,2.83.41,3.77,1.58,1.91,2.47,1.91,2.47Z"/><path class="cls-38" d="M298.12,249.91l-3.38,4.24a63,63,0,0,0,11.65,24.73c7.56,9.66,23.69,24.14,33.74,19.39,6.12-2.89,14.38-12.81,11.41-17.6-2.85-4.6-15.21-2.42-23.69-4.34C319.53,274.45,308.74,268.4,298.12,249.91Z"/><path class="cls-39" d="M375.67,286.65s6.58,22.39,2.5,31-17.08-.84-17.08-.84Z"/><path class="cls-40" d="M374.45,286.67s6.58,22.4,2.5,31-17.08-.85-17.08-.85Z"/><path class="cls-41" d="M355.2,278.36c-8.45-.15-15,.13-18.56,3.88-3.8,4,.22,8.27-.4,18.45-.95,15.58-10.78,19.59-11.18,35.39a40.37,40.37,0,0,0,1.61,12.25,42.57,42.57,0,0,0,11.2,9.49c7.75,4.48,12.16,3.57,23.21,6.34,18.07,4.52,19.79,10.34,28.67,8.65s16.69-9.44,15.65-13.58c-.63-2.48-4.24-1.7-8.5-5.41-5.49-4.77-3.52-9.49-7.72-14.67-6.05-7.43-14.14-2.63-19.29-9.07s-3.49-19.61.63-26.82c2.69-4.71,3.76-10.19,6-15.11a3.37,3.37,0,0,0,.29-1.91c-.46-3.16-5.79-4.77-9.82-5.95A48.39,48.39,0,0,0,355.2,278.36Z"/><path class="cls-42" d="M347,278.19l1.66-.55s.48,2.25,5.84,2.42a8,8,0,0,0,4.86-1.78l1.16.81a8.77,8.77,0,0,1-6.4,3.18A8,8,0,0,1,347,278.19Z"/><path class="cls-43" d="M348.33,270.94a7.18,7.18,0,0,1,1.23-5c1.27-1.9,1.57-2.15,2.12-2.45l.76-.38.09,0a8.29,8.29,0,0,1,2.36.07c1,.31,1.71,4.56.86,10.39l.12,1.38c2.28-.31,2.93-.1,3.05.21.25.66-1.33,4.51-3.5,5.27-2.71.95-6.49-1.53-6.72-2.43-.09-.36-.08,0,1.77-1.12.17-.54.7-2,.87-2.53C351,274.06,348.66,272.75,348.33,270.94Z"/><path class="cls-44" d="M351.43,269c.5-.58,1.23.07,1.16.86s-.91,1.55-1.64,1.32S350.75,269.73,351.43,269Z"/><g class="cls-22"><path class="cls-45" d="M383.4,359.44c-8.5-5.65-16.2.81-22.21-4.16-4.95-4.1-.89-9.44-6.24-16.66-5.88-7.91-14-5.88-16-11.79-2-6.11,6-10.26,6.25-18.74.1-4.33-1.84-10-9.6-16.73a39.67,39.67,0,0,1,.61,9.33c-.95,15.58-10.78,19.59-11.18,35.39a40.37,40.37,0,0,0,1.61,12.25,42.57,42.57,0,0,0,11.2,9.49c7.75,4.48,12.16,3.57,23.21,6.34,18.07,4.52,19.79,10.34,28.67,8.65a23.65,23.65,0,0,0,7.26-2.74,14.27,14.27,0,0,1-6-2.3C387.15,365.08,387.83,362.39,383.4,359.44Z"/></g><path class="cls-46" d="M365.51,252.87c-4.62.52-6.19-3.47-10.27-2.65-5.13,1-9.17,8.64-7.22,12.45,1.22,2.38,4.11,2,5.83,5,.72,1.27,1.08,2.85.56,6.63-1.26,9.17-4.87,10.94-3.61,14.31,1.56,4.15,8.66,5.69,13.05,5.56a14.55,14.55,0,0,0,8.61-2.65c2.88-2.22,2.67-4.39,5.63-5.78,2.42-1.14,3.32,0,6.59-.84,2.74-.67,7.59-2.77,8.33-6.1.82-3.71-4.25-5.41-3.82-10.14.28-3.07,2.48-3.21,3.26-6.81,1.1-5.07-2.19-9.57-2.78-10.34-2.64-3.48-7.83-7-12.77-6.09C371.32,246.47,370.93,252.25,365.51,252.87Z"/></g></g></svg>