<svg id="Слой_2" data-name="Слой 2" xmlns="http://www.w3.org/2000/svg" viewBox="0 0 870.6 489.33"><defs><style>.cls-1{fill:#fff;}.cls-2{fill:#ebf2f9;}.cls-3{fill:#283250;}.cls-4{fill:#adcbf9;}.cls-5{fill:#e58638;}.cls-6{fill:#163560;}.cls-7{fill:#1c468a;}.cls-8{fill:#ffb27d;}.cls-9{fill:#ee9849;}.cls-10{fill:#fca56b;}.cls-11,.cls-13{fill:#d86713;}.cls-12{fill:#f1a34f;}.cls-13{opacity:0.4;}.cls-14{fill:#699dee;}.cls-15{fill:#e9f3fe;}.cls-16{fill:#afcdfb;}.cls-17{fill:#e57970;}.cls-18{fill:#588fe0;}</style></defs><title>user_page</title><rect class="cls-1" x="-1.09" y="-0.11" width="871.69" height="489.43"/><path class="cls-2" d="M696.82,441.1s85.78,6.73,112.2-43.5c39.28-74.68-37.06-134.88-92.45-124C595.89,297.17,625,36.64,431.26,89.81c-54.46,15-201.6-73.86-242.64,68.55-9.76,33.86-44.34,37.59-94.53,59.08C-4.14,259.49,40.78,441.81,111,442.53S696.82,441.1,696.82,441.1Z"/><path class="cls-3" d="M804.75,442.79H50.87a.67.67,0,0,1-.67-.67h0a.67.67,0,0,1,.67-.67H804.75a.67.67,0,0,1,.67.67h0A.67.67,0,0,1,804.75,442.79Z"/><path class="cls-4" d="M328.48,198.56l-9.9-.23c3.18,4.12,3.9,7.92,1.92,11.13s-6.72,6-13.79,8A127.91,127.91,0,0,0,137.19,55c-1.88.81-3.76,1.66-5.58,2.53h0c-5.49-1.67-10.85-3.05-16-4.1C89.5,48.17,71,51.83,63.48,63.76c-7.15,11.35-3.26,28.43,10.93,48.36h0c-1.91,3.53-3.63,7.17-5.22,10.93-1.2,2.82-2.27,5.64-3.25,8.53-26.67,1.59-40.94,6.28-46.13,14.79-6,9.89,2.2,23.17,28.58,36.08C52,184.25,55.92,186,60,187.75a125.14,125.14,0,0,0,9.19,34.78,127.84,127.84,0,0,0,235,1.2c13-2.69,21.57-6.91,25-12.49C331.53,207.38,331.24,203.1,328.48,198.56ZM298,219.48a196.74,196.74,0,0,1-32.09,2.6c-19.58.24-42.07-1.31-65.78-4.43q3-6.53,5.86-13.37a180.9,180.9,0,0,0,21.3,5.79,108.22,108.22,0,0,0,21.27,2.37c14.89,0,25.56-4.3,30.83-12.67a22.15,22.15,0,0,0,2.12-4.38h-7.59c-.13.23-.26.46-.4.68-3.92,6.22-12.66,9.43-24.94,9.42a101.38,101.38,0,0,1-19.91-2.22,175.38,175.38,0,0,1-20.05-5.42q2.75-6.87,5.32-14c4.63-12.76,8.59-25.4,11.79-37.55a322.94,322.94,0,0,0,46.94,3.24q15.56,0,32.22-1.26a121,121,0,0,1,2.49,24.49A119.57,119.57,0,0,1,298,219.48ZM139.81,282.84c-3.7-1.34-5.57-6.64-6.49-10.85-1.46-6.65-1.72-16-.76-27,.48-5.57,1.26-11.5,2.31-17.7a328.45,328.45,0,0,1,44.71,15.47c-3.29,5.66-6.61,10.92-9.94,15.68-6.33,9.08-12.52,16.08-17.9,20.25C148.33,281.31,143.5,284.18,139.81,282.84Zm43.11-46a334.82,334.82,0,0,0-46.83-16.21c.55-2.88,1.17-5.81,1.83-8.78,4.41,1,8.89,2,13.41,2.9,13.26,2.71,26.48,5,39.42,6.88Q186.91,229.54,182.92,236.8Zm-28.67-26.89q-7.68-1.57-15.12-3.3c2.33-9.71,5.2-19.84,8.55-30.16A296,296,0,0,0,199.54,202q-3.15,7.53-6.46,14.65C180.35,214.86,167.32,212.59,154.25,209.91ZM111.75,78.78a78.64,78.64,0,0,0,4.7,8.28c8.8,13.59,20.42,23.45,28.62,29.33a139.56,139.56,0,0,0,15.06,9.37c-4.86,10.59-9.49,21.9-13.75,33.64-.79,2.18-1.56,4.37-2.32,6.55C118.63,149.4,97.11,130.41,83,112h0A121.31,121.31,0,0,1,95.11,94.93q2.82-3.32,5.87-6.42l.84-.85A120.45,120.45,0,0,1,111.75,78.78ZM220.47,60.44c3.69,1.34,5.56,6.64,6.49,10.84,1.45,6.66,1.72,16,.76,27a269.19,269.19,0,0,1-7.07,40.37q-6.51-1.11-12.71-2.54A182.65,182.65,0,0,1,169,122.72a275.55,275.55,0,0,1,21.6-37.87c6.33-9.07,12.52-16.08,17.9-20.25,2.81-2.17,6.59-4.5,9.9-4.5A5.83,5.83,0,0,1,220.47,60.44ZM206,142.62q6.34,1.47,13,2.63c-3.12,11.74-7,24-11.44,36.32q-2.59,7.14-5.36,14a289.84,289.84,0,0,1-52.24-25.93q1.37-4,2.82-8c4.16-11.47,8.67-22.51,13.41-32.85A189.42,189.42,0,0,0,206,142.62Zm66.1-55a120.26,120.26,0,0,1,31.21,54c-27.75,2-53.18,1.4-75.91-1.89a274.36,274.36,0,0,0,7.1-40.85c1.18-13.52,1-29.54-4.45-38.55,1.27.49,2.54,1,3.8,1.53A119.6,119.6,0,0,1,272.06,87.66ZM187,52.4a120.25,120.25,0,0,1,24.56,2.5C202.06,59,192.4,70.47,185.08,81A279.76,279.76,0,0,0,163,119.62a133,133,0,0,1-13.53-8.4,104.35,104.35,0,0,1-27.09-27.44,73.52,73.52,0,0,1-5.13-9.17,120.83,120.83,0,0,1,15.56-9.39h0q3.31-1.66,6.75-3.14l.5-.21.11,0q.74-.32,1.47-.6l.4-.16A119.59,119.59,0,0,1,187,52.4ZM69.35,67.46C73.26,61.25,82,58,94.29,58a101.53,101.53,0,0,1,19.91,2.23c2.79.56,5.64,1.23,8.54,2h0A125.72,125.72,0,0,0,96.57,82.44c-1.66,1.62-3.25,3.31-4.8,5.06-2,2.14-3.8,4.38-5.58,6.65a127,127,0,0,0-7.92,11.32h0C67.41,89.37,64.15,75.71,69.35,67.46ZM76,126c1.07-2.47,2.17-4.9,3.37-7.27h0c14.87,18.59,36.78,37.59,62.39,54.07-3.63,11-6.73,21.91-9.23,32.32a496.23,496.23,0,0,1-51-15.07c-3.17-1.13-6.26-2.3-9.21-3.47-1.75-.68-3.47-1.4-5.16-2.11-.26-2.6-.45-5.22-.52-7.85,0-1.27-.06-2.5-.06-3.76,0-1.46,0-3,.06-4.42a121.47,121.47,0,0,1,5.52-31.92c.55-1.75,1.13-3.47,1.78-5.19S75.25,127.7,76,126ZM54.29,178.64c-23-11.23-33.51-22.07-28.81-29.76,3.8-6.23,17.62-10.44,38.77-12a124.81,124.81,0,0,0-4.8,27c-.19,2.73-.29,5.45-.32,8.21v.72c0,2.75.1,5.51.26,8.24C57.64,180.26,56,179.45,54.29,178.64Zm17.46,13.78c3.11,1.17,6.29,2.34,9.57,3.48,15.06,5.22,32,10.07,50,14.37q-1,4.39-1.82,8.65c-1.47-.36-2.95-.71-4.43-1-25-5.69-43.71-6.84-52.39-7A117.62,117.62,0,0,1,68,191ZM76,219.64c-.27-.64-.54-1.29-.8-1.93a270.19,270.19,0,0,1,48.38,6.77c1.57.35,3.14.73,4.71,1.11-1.13,6.59-2,12.88-2.48,18.79-1,11.21-1,24.13,2.08,33.36A121,121,0,0,1,76,219.64Zm157.81,64.08a120.72,120.72,0,0,1-83.36,3.84c8.91-4.67,17.86-15.39,24.75-25.26,3.55-5.1,7.1-10.74,10.61-16.82A339.94,339.94,0,0,1,243.73,279Q238.9,281.57,233.81,283.72Zm38.25-25.79a119.47,119.47,0,0,1-21.9,17.35,346.71,346.71,0,0,0-61-35.73c2.94-5.38,5.83-11.06,8.66-17a522.12,522.12,0,0,0,55.48,4.55c4.48.13,8.83.13,13,.09a231.86,231.86,0,0,0,29-1.94A119.64,119.64,0,0,1,272.06,257.93Z"/><path class="cls-5" d="M572.94,182.69S597,206.37,598.1,215.3s-10.91,22.91-10.91,22.91Z"/><path class="cls-6" d="M564.25,428.7s-.78,12.6-3.22,12.78c-.32,0-12.35,0-12.35,0l-15.36-.09s.1-3.7,4.59-4.48,12-3.94,14.72-9.87C555.49,420.81,564.25,428.7,564.25,428.7Z"/><path class="cls-6" d="M598.46,428.7s-.78,12.6-3.22,12.78c-.32,0-12.35,0-12.35,0l-15.36-.09s.1-3.7,4.59-4.48,12-3.94,14.72-9.87C589.7,420.81,598.46,428.7,598.46,428.7Z"/><path class="cls-6" d="M547.24,293.37s4,25.7,19,71.3,17,65.36,17,65.36l16.08-.45s.13-49.84-6.77-72.78-1.49-82.68-1.49-82.68Z"/><path class="cls-7" d="M539.42,275.53a623.33,623.33,0,0,0,6.13,86.25c6.69,47.54,4.42,67.72,4.42,67.72l16,.53s9.59-47.55,6.84-71.35S586,277,586,277Z"/><path class="cls-8" d="M570.47,184.93l-7.56,5.6L552,188.23c.15-1,.87-5.13,1.53-8.88l.12-.65c.56-3.19,1-5.93,1-5.93l10.21-5.09,3.81-1.9c0,.07-.3,3.54-.33,4.05A32.7,32.7,0,0,0,570.47,184.93Z"/><path class="cls-5" d="M552.74,182.1c.24-.1,14.87-4.42,16.46-3.9s2.53,3.6,2.53,3.6l-23.94,5.42S549.68,183.38,552.74,182.1Z"/><path class="cls-9" d="M592.15,280.31c-2.48,11.32-43.77,12.66-54.42,2.38-1.21-1.17-1.27-6.62-.81-14,.89-14.35,3.76-35.94,3.87-47A87.46,87.46,0,0,1,542.56,206a127.52,127.52,0,0,1,5.23-18.81s20.17-6.52,23.94-5.42C589.91,187.15,594.63,269,592.15,280.31Z"/><path class="cls-5" d="M536.92,268.73c.89-14.35,3.76-35.94,3.87-47A87.46,87.46,0,0,1,542.56,206l12.13-2.14S566.55,252.34,536.92,268.73Z"/><path class="cls-8" d="M543.49,248.72a2.86,2.86,0,0,1-.91,3.31c-1.74,1.32-2.86,3.47-2.46,5s4.2,4.13,5.52,3.72,4-2.49,3.72-3.32,1.81-7.27-1.41-9.75S543.49,248.72,543.49,248.72Z"/><path class="cls-9" d="M557,184.7s-11.81,1.83-21.23,15.72-15.63,24.22-13.9,29.23S539.47,252,542.2,252s7.13-2,7.38-6.45c0,0-11.14-16.7-9-19.2.94-1.07,14.47-12.06,16.4-7.1C560.23,227.48,557,184.7,557,184.7Z"/><path class="cls-10" d="M567.59,170c-2.24,4.3-10.6,8-14.09,9.37l.12-.65c.56-3.19,1-5.93,1-5.93l10.21-5.09C567.14,167.65,568.51,168.22,567.59,170Z"/><path class="cls-8" d="M549.7,172.18s18.43,5.74,21.83-5.79,8.08-18.55-3.54-22.71-15.22-.44-17.29,3.14S545,170.38,549.7,172.18Z"/><path class="cls-6" d="M553.59,146.15s1.06,13.84,3.85,13.21,5.31-1.09,4.87,3.09-4.34,9,4.23,9.7,21.07-22.21,18.75-26.5C578.6,133.27,543.89,131.05,553.59,146.15Z"/><path class="cls-11" d="M269.33,218.5,251.65,428.64s-1.85,12.74,7.63,12.76c15.58,0,77.54,0,77.54,0s-11.73-2.65-11.58-8.62c.16-7,20.65-216.27,20.65-216.27Z"/><path class="cls-9" d="M341.85,437.59c-3.07,0-62.25.19-77.42,0-6.61-.08-7.77-5.88-7.83-9.63a19.89,19.89,0,0,1,.2-3.13l.46-5.46,1.18-13.92,1-12.3,1.33-15.81L261.92,364l12.56-149.31,76.56-2s-8.63,87.56-14.73,151.3c-.68,7.11-1.33,13.92-1.93,20.27-.19,2-.38,4-.56,6-.57,6-1.09,11.57-1.54,16.46-.23,2.57-.45,5-.65,7.16-.78,8.6-1.24,14.09-1.24,15.13a8.34,8.34,0,0,0,.15,1.7C331.79,437.37,340.7,437.59,341.85,437.59Z"/><polygon class="cls-12" points="83.39 104.15 126.44 277.07 132.33 300.75 152.38 381.29 524.88 381.29 450.98 104.15 83.39 104.15"/><polygon class="cls-9" points="83.39 104.15 77.42 106.14 144.45 387.31 152.38 381.29 83.39 104.15"/><polygon class="cls-11" points="144.45 387.31 514.65 387.31 524.88 381.29 152.38 381.29 144.45 387.31"/><rect class="cls-12" x="274.45" y="437.67" width="80.15" height="3.81"/><polygon class="cls-12" points="506.83 330.22 446.39 107.81 82.79 107.81 82.79 104.15 450.98 104.15 511.21 329.73 506.83 330.22"/><polygon class="cls-11" points="334.23 387.31 333.82 390.22 258.44 405.45 259.47 393.15 259.96 387.31 334.23 387.31"/><path class="cls-13" d="M341.85,437.59c-3.07,0-62.25.19-77.42,0-6.61-.08-7.77-5.88-7.83-9.63l75-14.12c-.78,8.6-1.24,14.09-1.24,15.13a8.34,8.34,0,0,0,.15,1.7C331.79,437.37,340.7,437.59,341.85,437.59Z"/><polygon class="cls-13" points="316.01 325.19 152.38 381.29 132.33 300.75 316.01 325.19"/><polygon class="cls-14" points="83.39 104.15 450.98 104.15 510.62 326.88 136.94 326.88 83.39 104.15"/><ellipse class="cls-11" cx="338.61" cy="355.04" rx="8.98" ry="10.9" transform="translate(-151.86 367.18) rotate(-47.77)"/><polygon class="cls-15" points="493.28 317.23 149.1 317.23 110.13 161.96 107.14 150.05 104.59 139.9 98.61 116.08 437.83 116.08 444.39 139.9 447.19 150.05 450.47 161.96 493.28 317.23"/><polygon class="cls-16" points="444.39 139.9 104.59 139.9 98.61 116.08 437.83 116.08 444.39 139.9"/><path class="cls-15" d="M114.88,123.87a2.24,2.24,0,0,0-2.23,3,4.06,4.06,0,0,0,3.71,3,2.25,2.25,0,0,0,2.24-3A4.07,4.07,0,0,0,114.88,123.87Z"/><path class="cls-15" d="M124.77,123.87a2.24,2.24,0,0,0-2.23,3,4.06,4.06,0,0,0,3.72,3,2.25,2.25,0,0,0,2.23-3A4.06,4.06,0,0,0,124.77,123.87Z"/><path class="cls-15" d="M139.14,126.84a4.06,4.06,0,0,0-3.72-3,2.24,2.24,0,0,0-2.23,3,4.06,4.06,0,0,0,3.72,3A2.25,2.25,0,0,0,139.14,126.84Z"/><path class="cls-12" d="M385.44,209.46c-2.49-10-12.62-18.07-22.6-18.07a14.2,14.2,0,0,0-11.54,5.22c-2.74,3.51-3.57,8.2-2.32,13.2,2.48,10,12.62,18.08,22.6,18.08a14.21,14.21,0,0,0,11.54-5.23C385.86,219.15,386.68,214.46,385.44,209.46ZM382,221.76a12.78,12.78,0,0,1-10.39,4.67c-9.35,0-18.85-7.61-21.18-17-1.14-4.56-.41-8.8,2.05-12a12.78,12.78,0,0,1,10.39-4.66c9.35,0,18.85,7.61,21.18,17C385.16,214.37,384.43,218.61,382,221.76Z"/><polygon class="cls-12" points="369.5 213.72 367.69 201.01 367.54 200.44 362.43 200.44 362.57 201.01 367.09 213.72 369.5 213.72"/><polygon class="cls-12" points="366.53 215.96 367.67 220.56 372.33 220.56 371.18 215.96 366.53 215.96"/><path class="cls-12" d="M396.55,252.62c-2.49-10-12.62-18.07-22.6-18.07a14.2,14.2,0,0,0-11.54,5.22c-2.74,3.51-3.57,8.2-2.32,13.2,2.49,10,12.62,18.08,22.6,18.08a14.21,14.21,0,0,0,11.54-5.23C397,262.31,397.8,257.62,396.55,252.62Zm-3.47,12.3a12.78,12.78,0,0,1-10.39,4.67c-9.35,0-18.85-7.61-21.18-17-1.14-4.56-.41-8.8,2.05-12A12.78,12.78,0,0,1,374,236c9.35,0,18.85,7.61,21.18,17C396.27,257.53,395.54,261.78,393.08,264.92Z"/><polygon class="cls-12" points="380.61 256.88 378.8 244.17 378.65 243.6 373.54 243.6 373.68 244.17 378.2 256.88 380.61 256.88"/><polygon class="cls-12" points="377.64 259.12 378.78 263.72 383.44 263.72 382.29 259.12 377.64 259.12"/><path class="cls-16" d="M434.64,203.91a1.55,1.55,0,0,0,1.54-2,2.81,2.81,0,0,0-2.57-2.06H397a1.56,1.56,0,0,0-1.54,2.06,2.81,2.81,0,0,0,2.57,2Z"/><path class="cls-16" d="M430.1,174.69a2.81,2.81,0,0,0-2.57-2.05H390.9a1.55,1.55,0,0,0-1.54,2.05,2.81,2.81,0,0,0,2.57,2.06h36.63A1.56,1.56,0,0,0,430.1,174.69Z"/><path class="cls-16" d="M436.59,211.75a1.56,1.56,0,0,0,1.54-2.06,2.82,2.82,0,0,0-2.57-2.06H398.94a1.56,1.56,0,0,0-1.55,2.06,2.82,2.82,0,0,0,2.57,2.06Z"/><path class="cls-16" d="M440.09,217.52a2.82,2.82,0,0,0-2.57-2.05H400.89a1.55,1.55,0,0,0-1.54,2.05,2.8,2.8,0,0,0,2.56,2.06h36.63A1.56,1.56,0,0,0,440.09,217.52Z"/><path class="cls-16" d="M445.75,247.07a1.55,1.55,0,0,0,1.54-2,2.81,2.81,0,0,0-2.57-2.06H408.09a1.56,1.56,0,0,0-1.54,2.06,2.81,2.81,0,0,0,2.57,2Z"/><path class="cls-16" d="M447.7,254.91a1.56,1.56,0,0,0,1.54-2.06,2.81,2.81,0,0,0-2.57-2.06H410.05a1.57,1.57,0,0,0-1.55,2.06,2.82,2.82,0,0,0,2.57,2.06Z"/><path class="cls-16" d="M451.2,260.68a2.82,2.82,0,0,0-2.57-2.05H412a1.55,1.55,0,0,0-1.54,2.05,2.8,2.8,0,0,0,2.57,2.06h36.62A1.56,1.56,0,0,0,451.2,260.68Z"/><path class="cls-16" d="M428.56,166.05,426,155.79a4.68,4.68,0,0,0-4.27-3.41H128.16a2.58,2.58,0,0,0-2.57,3.41l2.56,10.26a4.69,4.69,0,0,0,4.27,3.42H426A2.59,2.59,0,0,0,428.56,166.05Z"/><path class="cls-12" d="M336.27,152.38l4.26,17.09H132.42a4.69,4.69,0,0,1-4.27-3.42l-2.56-10.26a2.58,2.58,0,0,1,2.57-3.41Z"/><polygon class="cls-14" points="373.65 157.78 373.98 159.09 377.23 159.09 375.53 164.69 377.25 164.69 378.91 158.92 378.63 157.78 373.65 157.78"/><path class="cls-14" d="M382.52,157.66c-1.84,0-2.69,1.57-2.19,3.57a4.37,4.37,0,0,0,3.95,3.58c1.84,0,2.69-1.57,2.19-3.58A4.41,4.41,0,0,0,382.52,157.66Zm1.44,5.78c-.92,0-1.76-.94-2.07-2.21s0-2.2.95-2.2,1.76.95,2.07,2.2S384.87,163.44,384,163.44Z"/><path class="cls-14" d="M395.53,163a2.28,2.28,0,0,0-2.11-1.77,1.28,1.28,0,0,0-1.25,1.77,2.27,2.27,0,0,0,2.11,1.77A1.29,1.29,0,0,0,395.53,163Zm-1.46.87c-.39,0-.75-.4-.86-.87s0-.87.41-.87.75.41.87.87S394.49,163.87,394.07,163.87Z"/><polygon class="cls-14" points="392.36 157.78 389.04 164.69 390.21 164.69 393.53 157.78 392.36 157.78"/><path class="cls-14" d="M390.4,159.47a2.27,2.27,0,0,0-2.11-1.77,1.28,1.28,0,0,0-1.25,1.77,2.27,2.27,0,0,0,2.11,1.76A1.28,1.28,0,0,0,390.4,159.47Zm-2.32,0c-.12-.48,0-.87.41-.87a1,1,0,0,1,.87.87c.12.46,0,.87-.41.87S388.19,159.93,388.08,159.47Z"/><path class="cls-16" d="M322.51,243.54a2.92,2.92,0,0,0,2.9-3.86h0a5.27,5.27,0,0,0-4.82-3.86H149.4a2.91,2.91,0,0,0-2.89,3.86h0a5.27,5.27,0,0,0,4.82,3.86Z"/><path class="cls-16" d="M325.71,256.36a2.92,2.92,0,0,0,2.9-3.86,5.27,5.27,0,0,0-4.83-3.86H152.6a2.92,2.92,0,0,0-2.9,3.86,5.26,5.26,0,0,0,4.83,3.86Z"/><path class="cls-16" d="M332,265.89a5.27,5.27,0,0,0-4.83-3.86H155.94a2.92,2.92,0,0,0-2.9,3.86,5.26,5.26,0,0,0,4.82,3.86H329.05A2.92,2.92,0,0,0,332,265.89Z"/><path class="cls-16" d="M228.84,222.7a6.62,6.62,0,0,0,6.06,4.86H254a3.67,3.67,0,0,0,3.65-4.86l-9.23-37a6.63,6.63,0,0,0-6.06-4.86h-19.1a3.67,3.67,0,0,0-3.64,4.86Z"/><path class="cls-16" d="M261.88,222.7a6.63,6.63,0,0,0,6.07,4.86H287a3.67,3.67,0,0,0,3.64-4.86l-9.22-37a6.65,6.65,0,0,0-6.07-4.86H256.3a3.67,3.67,0,0,0-3.64,4.86Z"/><path class="cls-16" d="M294.31,222.7a6.63,6.63,0,0,0,6.07,4.86h19.09a3.67,3.67,0,0,0,3.64-4.86l-9.22-37a6.65,6.65,0,0,0-6.07-4.86H288.73a3.68,3.68,0,0,0-3.65,4.86Z"/><path class="cls-16" d="M222.37,219.42,214.77,189a11.12,11.12,0,0,0-10.16-8.14H140c-4.49,0-7.23,3.65-6.11,8.14l7.59,30.45a11.11,11.11,0,0,0,10.17,8.14h64.64C220.75,227.56,223.49,223.92,222.37,219.42Z"/><path class="cls-14" d="M203.79,192.52a1.41,1.41,0,0,0,1.39-1.86h0a2.54,2.54,0,0,0-2.31-1.85h-60.4a1.4,1.4,0,0,0-1.39,1.85h0a2.55,2.55,0,0,0,2.31,1.86Z"/><path class="cls-14" d="M205.57,199.64a1.4,1.4,0,0,0,1.39-1.85h0a2.54,2.54,0,0,0-2.31-1.86h-60.4a1.41,1.41,0,0,0-1.39,1.86h0a2.54,2.54,0,0,0,2.31,1.85Z"/><path class="cls-14" d="M208.74,204.91a2.55,2.55,0,0,0-2.32-1.85H146a1.4,1.4,0,0,0-1.39,1.85,2.55,2.55,0,0,0,2.32,1.85h60.4A1.41,1.41,0,0,0,208.74,204.91Z"/><path class="cls-14" d="M162.26,211H148a1.41,1.41,0,0,0-1.39,1.86,2.56,2.56,0,0,0,2.32,1.85h14.24a1.4,1.4,0,0,0,1.39-1.85A2.53,2.53,0,0,0,162.26,211Z"/><path class="cls-16" d="M474.21,300.73l-4-16a5.83,5.83,0,0,0-5.33-4.27H431a3.22,3.22,0,0,0-3.2,4.27l4,16A5.84,5.84,0,0,0,437.1,305H471A3.22,3.22,0,0,0,474.21,300.73Z"/><path class="cls-14" d="M464.47,286.62a.74.74,0,0,0,.73-1,1.33,1.33,0,0,0-1.21-1H432.31a.74.74,0,0,0-.73,1,1.33,1.33,0,0,0,1.21,1Z"/><path class="cls-14" d="M465.4,290.35a.73.73,0,0,0,.73-1,1.33,1.33,0,0,0-1.21-1H433.24a.74.74,0,0,0-.73,1,1.32,1.32,0,0,0,1.21,1Z"/><path class="cls-14" d="M467.06,293.12a1.32,1.32,0,0,0-1.21-1H434.17a.73.73,0,0,0-.73,1,1.33,1.33,0,0,0,1.21,1h31.68A.73.73,0,0,0,467.06,293.12Z"/><path class="cls-14" d="M442.69,296.33h-7.48a.74.74,0,0,0-.73,1h0a1.33,1.33,0,0,0,1.22,1h7.47a.74.74,0,0,0,.73-1A1.33,1.33,0,0,0,442.69,296.33Z"/><path class="cls-12" d="M239.1,289a1.1,1.1,0,0,0,1.09-1.45h0a2,2,0,0,0-1.82-1.46H173.8a1.1,1.1,0,0,0-1.09,1.46h0a2,2,0,0,0,1.82,1.45Z"/><path class="cls-12" d="M240.31,293.88a1.1,1.1,0,0,0,1.09-1.46h0a2,2,0,0,0-1.82-1.45H175a1.09,1.09,0,0,0-1.09,1.45h0a2,2,0,0,0,1.82,1.46Z"/><path class="cls-12" d="M240.84,296H176.27a1.09,1.09,0,0,0-1.09,1.45,2,2,0,0,0,1.82,1.46h64.56a1.1,1.1,0,0,0,1.1-1.46A2,2,0,0,0,240.84,296Z"/><path class="cls-12" d="M322.43,289a1.1,1.1,0,0,0,1.09-1.45h0a2,2,0,0,0-1.82-1.46H257.13a1.1,1.1,0,0,0-1.09,1.46h0a2,2,0,0,0,1.82,1.45Z"/><path class="cls-12" d="M323.63,293.88a1.1,1.1,0,0,0,1.1-1.46h0a2,2,0,0,0-1.82-1.45H258.34a1.09,1.09,0,0,0-1.09,1.45h0a2,2,0,0,0,1.81,1.46Z"/><path class="cls-12" d="M324.17,296H259.6a1.1,1.1,0,0,0-1.1,1.45,2,2,0,0,0,1.82,1.46h64.57a1.1,1.1,0,0,0,1.1-1.46A2,2,0,0,0,324.17,296Z"/><path class="cls-12" d="M403.19,289a1.1,1.1,0,0,0,1.1-1.45h0a2,2,0,0,0-1.82-1.46H337.9a1.1,1.1,0,0,0-1.1,1.46h0a2,2,0,0,0,1.82,1.45Z"/><path class="cls-12" d="M404.4,293.88a1.1,1.1,0,0,0,1.09-1.46h0a2,2,0,0,0-1.82-1.45H339.1a1.1,1.1,0,0,0-1.09,1.45h0a2,2,0,0,0,1.82,1.46Z"/><path class="cls-12" d="M406.75,297.47a2,2,0,0,0-1.82-1.45H340.36a1.1,1.1,0,0,0-1.09,1.45,2,2,0,0,0,1.82,1.46h64.57A1.1,1.1,0,0,0,406.75,297.47Z"/><path class="cls-12" d="M419.24,307.21h-249a5.46,5.46,0,0,1-5-4l-5-19.94a3.58,3.58,0,0,1,.56-3.08,3.35,3.35,0,0,1,2.71-1.24h249a5.45,5.45,0,0,1,5,4l5,19.94A3.57,3.57,0,0,1,422,306,3.38,3.38,0,0,1,419.24,307.21ZM163.56,280.43a1.93,1.93,0,0,0-1.56.68,2.1,2.1,0,0,0-.29,1.83l5,19.94a4,4,0,0,0,3.56,2.87h249a2,2,0,0,0,1.57-.69,2.1,2.1,0,0,0,.29-1.83l-5-19.94a4,4,0,0,0-3.56-2.86Z"/><path class="cls-16" d="M172.19,74.34a.51.51,0,0,0-.58-.43l-5.59.78a5.84,5.84,0,0,0-2.85-4.4l-.34-.19a5.8,5.8,0,0,0-5.45-.2l-2.2-5.54a.52.52,0,0,0-1,.38l2.27,5.69a6,6,0,0,0-1,.89,6.45,6.45,0,0,0-.63.89l-.61,1.05-5.13-3a.52.52,0,0,0-.52.89l5.13,3-.34.6a5.56,5.56,0,0,0-.68,1.8l-7,1a.51.51,0,0,0,.07,1h.08l6.77-1a5.82,5.82,0,0,0,2.89,5.11l.33.19a5.82,5.82,0,0,0,5.66.1l2.41,6a.51.51,0,0,0,.48.32.46.46,0,0,0,.19,0,.5.5,0,0,0,.28-.66l-2.48-6.23a5.63,5.63,0,0,0,1.42-1.64l.35-.6,5.14,3a.57.57,0,0,0,.25.06A.53.53,0,0,0,170,83a.51.51,0,0,0-.19-.7l-5.13-3,.61-1.06a5.79,5.79,0,0,0,.46-1,6,6,0,0,0,.31-1.55l5.7-.8A.52.52,0,0,0,172.19,74.34Z"/><path class="cls-17" d="M165.28,78.25l-1.48,2.54a5.84,5.84,0,0,1-8,2.11l-.33-.19a5.84,5.84,0,0,1-2.11-8l1.47-2.54a6.45,6.45,0,0,1,.63-.89l10.24,6A5.79,5.79,0,0,1,165.28,78.25Z"/><path class="cls-16" d="M55.14,141.24l-6.45-1.83a6,6,0,0,0-.43-2.13l-.26-.64,5.49-2.25a.51.51,0,0,0-.39-.95l-5.49,2.25-.47-1.13a5.46,5.46,0,0,0-.5-1,5.62,5.62,0,0,0-1-1.19l2.84-5a.52.52,0,0,0-.19-.7.51.51,0,0,0-.7.2l-2.79,4.9a5.8,5.8,0,0,0-5.22-.42l-.36.15a5.82,5.82,0,0,0-3.49,4.2L30,134.1a.51.51,0,0,0-.63.35.52.52,0,0,0,.35.64l5.89,1.67a6,6,0,0,0,.11,1.33,5.81,5.81,0,0,0,.32,1l.46,1.13L31,142.5a.51.51,0,0,0,.19,1,.41.41,0,0,0,.19,0l5.5-2.25.26.64a5.74,5.74,0,0,0,1,1.64l-3.51,6.16a.5.5,0,0,0,.2.69.45.45,0,0,0,.25.07.49.49,0,0,0,.44-.26l3.38-5.94a5.84,5.84,0,0,0,5.82.82l.36-.14a5.86,5.86,0,0,0,3.53-4.43l6.25,1.77a.32.32,0,0,0,.14,0,.51.51,0,0,0,.14-1Z"/><path class="cls-17" d="M47.14,134.56l1.12,2.72a5.85,5.85,0,0,1-3.18,7.6l-.36.14a5.83,5.83,0,0,1-7.6-3.18L36,139.12a5.81,5.81,0,0,1-.32-1l11-4.49A5.46,5.46,0,0,1,47.14,134.56Z"/><path class="cls-18" d="M119.82,325.3l-.14.11c-2.15,1.64-16.75,11.6-49.55,7.19-.23,1.26-.43,2.51-.63,3.74-.1.62-.2,1.24-.29,1.85S69,339.39,69,340v0c-.08.6-.17,1.19-.25,1.79s-.15,1.19-.23,1.78l-.21,1.75v0c-.06.57-.13,1.15-.19,1.72l-.18,1.72c-.06.57-.11,1.14-.16,1.71s-.1,1.12-.15,1.68-.07.81-.1,1.22,0,.66-.07,1l-.06.85,0,.44c0,.48-.06,1-.08,1.42s-.06,1-.08,1.51a2.62,2.62,0,0,0,0,.28c0,.38,0,.75,0,1.12s0,.59,0,.88c0,.94-.06,1.86-.07,2.78,0,.43,0,.85,0,1.26s0,1,0,1.47v.12c0,.47,0,.94,0,1.42s0,.78,0,1.16,0,.67,0,1c0,.12,0,.24,0,.35l0,1c0,.36,0,.72,0,1.09s0,.78.05,1.16,0,.9.07,1.35c0,0,0,.08,0,.12,0,.44,0,.88.08,1.31s.07.92.1,1.37.07.9.12,1.35.07.89.12,1.33.08.83.13,1.25c0,.05,0,.1,0,.15,0,.4.09.8.14,1.2s.1.85.16,1.27v0c.06.41.11.83.17,1.24l.18,1.23v0c.07.39.13.79.19,1.19v0c.07.4.14.8.2,1.19s.14.8.22,1.2l.27,1.44.18.89c.07.37.15.74.23,1.1l0,.14c.07.34.15.69.23,1s.17.75.26,1.11c.18.76.36,1.5.56,2.24l.27,1c.09.35.19.69.28,1s.15.5.22.74.14.49.22.74l.18.57c.1.34.2.67.31,1,.21.66.43,1.31.65,1.95l.33.95c.12.31.23.62.34.93.32.85.64,1.67,1,2.48l.3.73c.14.34.28.68.43,1l.35.8c.63,1.42,1.29,2.79,2,4.09l.39.76c.32.6.64,1.19,1,1.76.11.21.23.41.34.61l.32.55.37.63.87,1.41.3.48c.32.49.63,1,1,1.44l.34.51c.75,1.09,1.5,2.11,2.25,3.08l.42.53c.72.91,1.43,1.77,2.14,2.58l.67.75.06.06.4.44c.8.86,1.58,1.65,2.34,2.38l.38.36.73.68c.24.21.46.42.69.61l0,0,.65.57,1.07.88.29.23c.63.5,1.21.93,1.75,1.32l.47.33c.45.31.86.58,1.22.8l.31.2.58.35L99,441l.11.06c.39.23.61.33.61.33q3.14-1,6.09-2.26a79.23,79.23,0,0,0,30-22.21l.06-.07c16.71-19.71,23.9-45.2,27-62.09q.51-2.81.88-5.27C130.72,341.94,120.86,327,119.82,325.3Z"/><path class="cls-16" d="M158.1,357.23c-2.8,15.39-9.35,38.64-24.59,56.6l0,.07a72.27,72.27,0,0,1-27.34,20.25q-2.69,1.13-5.55,2.06s-.2-.09-.56-.3l-.1-.06-.1-.06-.54-.32-.28-.18c-.32-.2-.7-.45-1.11-.73l-.43-.3c-.49-.35-1-.75-1.59-1.21l-.27-.21-1-.8-.6-.52,0,0-.62-.56-.67-.62-.34-.33c-.69-.66-1.41-1.38-2.14-2.17l-.36-.4,0-.06c-.21-.22-.41-.45-.62-.68-.64-.74-1.29-1.52-2-2.35-.13-.16-.26-.32-.38-.49-.68-.88-1.37-1.81-2-2.81l-.31-.45-.87-1.32-.27-.43c-.27-.42-.53-.85-.79-1.29-.11-.19-.23-.38-.34-.58s-.2-.33-.29-.5-.21-.37-.31-.55c-.3-.53-.59-1.06-.88-1.61l-.36-.69c-.61-1.19-1.2-2.44-1.78-3.73-.11-.24-.22-.49-.32-.73s-.27-.62-.4-.93l-.27-.66c-.3-.74-.59-1.49-.88-2.27-.1-.28-.2-.56-.31-.85l-.3-.86-.6-1.78c-.09-.3-.19-.6-.28-.91s-.11-.35-.16-.52-.14-.45-.2-.67l-.2-.68c-.09-.31-.17-.62-.26-.94s-.17-.6-.24-.9q-.27-1-.51-2c-.09-.34-.17-.67-.24-1l-.21-.93,0-.13-.21-1c-.06-.27-.11-.54-.16-.81-.09-.43-.17-.87-.25-1.31s-.13-.72-.19-1.09-.13-.72-.19-1.09v0c-.06-.36-.11-.72-.17-1.09v0c-.06-.37-.12-.74-.17-1.12l-.15-1.13v0l-.15-1.15-.12-1.1s0-.09,0-.14l-.12-1.14c0-.4-.07-.8-.11-1.21s-.07-.82-.1-1.23L71,377.13c0-.4,0-.8-.08-1.2v-.11c0-.41,0-.82-.07-1.23s0-.71,0-1.06l0-1,0-.93c0-.11,0-.21,0-.32,0-.3,0-.6,0-.9s0-.71,0-1.07,0-.86,0-1.29v-.1c0-.45,0-.89,0-1.34s0-.77,0-1.15c0-.84,0-1.68.06-2.54l0-.8c0-.34,0-.68,0-1,0-.09,0-.17,0-.26,0-.46,0-.92.07-1.38s0-.85.08-1.29c0-.13,0-.27,0-.4l.06-.78c0-.3,0-.6.06-.91l.09-1.11c0-.51.09-1,.13-1.53l.15-1.55c.06-.53.11-1.05.17-1.57s.11-1.05.17-1.58v0c.06-.53.12-1.06.19-1.6s.14-1.08.22-1.62.14-1.09.22-1.63v0c.07-.55.15-1.1.24-1.64s.17-1.12.26-1.68q.27-1.69.57-3.42c29.91,4,43.22-5.06,45.18-6.56l.13-.09c.94,1.55,9.93,15.17,40,22C158.67,353.92,158.4,355.53,158.1,357.23Z"/><path class="cls-14" d="M119,330.31l-19,105.6-.74-.44-.28-.18c-.32-.2-.7-.45-1.11-.73l-.43-.3c-.49-.35-1-.75-1.59-1.21l-.27-.21-1-.8-.6-.52,0,0-.62-.56-.67-.62-.34-.33c-.69-.66-1.41-1.38-2.14-2.17l-.36-.4,0-.06c-.21-.22-.41-.45-.62-.68-.64-.74-1.29-1.52-2-2.35-.13-.16-.26-.32-.38-.49-.68-.88-1.37-1.81-2-2.81l-.31-.45-.87-1.32-.27-.43c-.27-.42-.53-.85-.79-1.29-.11-.19-.23-.38-.34-.58s-.2-.33-.29-.5-.21-.37-.31-.55c-.3-.53-.59-1.06-.88-1.61l-.36-.69c-.61-1.19-1.2-2.44-1.78-3.73-.11-.24-.22-.49-.32-.73s-.27-.62-.4-.93l-.27-.66c-.3-.74-.59-1.49-.88-2.27-.1-.28-.2-.56-.31-.85l-.3-.86-.6-1.78c-.09-.3-.19-.6-.28-.91s-.11-.35-.16-.52-.14-.45-.2-.67l-.2-.68c-.09-.31-.17-.62-.26-.94s-.17-.6-.24-.9q-.27-1-.51-2c-.09-.34-.17-.67-.24-1l-.21-.93,0-.13-.21-1c-.06-.27-.11-.54-.16-.81-.09-.43-.17-.87-.25-1.31s-.13-.72-.19-1.09-.13-.72-.19-1.09v0c-.06-.36-.11-.72-.17-1.09v0c-.06-.37-.12-.74-.17-1.12l-.15-1.13v0l-.15-1.15-.12-1.1s0-.09,0-.14l-.12-1.14c0-.4-.07-.8-.11-1.21s-.07-.82-.1-1.23L71,377.13c0-.4,0-.8-.08-1.2v-.11c0-.41,0-.82-.07-1.23s0-.71,0-1.06l0-1,0-.93c0-.11,0-.21,0-.32,0-.3,0-.6,0-.9s0-.71,0-1.07,0-.86,0-1.29v-.1c0-.45,0-.89,0-1.34s0-.77,0-1.15c0-.84,0-1.68.06-2.54l0-.8c0-.34,0-.68,0-1,0-.09,0-.17,0-.26,0-.46,0-.92.07-1.38s0-.85.08-1.29c0-.13,0-.27,0-.4l.06-.78c0-.3,0-.6.06-.91l.09-1.11c0-.51.09-1,.13-1.53l.15-1.55c.06-.53.11-1.05.17-1.57s.11-1.05.17-1.58v0c.06-.53.12-1.06.19-1.6s.14-1.08.22-1.62.14-1.09.22-1.63v0c.07-.55.15-1.1.24-1.64s.17-1.12.26-1.68q.27-1.69.57-3.42C106.14,341.45,119,330.31,119,330.31Z"/></svg>