<svg xmlns="http://www.w3.org/2000/svg" xmlns:xlink="http://www.w3.org/1999/xlink" viewBox="0 0 169.19 216.99"><defs><style>.cls-1{fill:#fff;}.cls-2{fill:url(#radial-gradient);}.cls-3{fill:url(#radial-gradient-2);}.cls-4{fill:url(#radial-gradient-3);}.cls-5{fill:url(#radial-gradient-4);}.cls-6{fill:url(#radial-gradient-5);}.cls-7{fill:url(#radial-gradient-6);}.cls-8{fill:url(#radial-gradient-7);}.cls-9{fill:url(#radial-gradient-8);}.cls-10{fill:url(#radial-gradient-9);}.cls-11{fill:url(#radial-gradient-10);}.cls-12{fill:url(#radial-gradient-11);}.cls-13{fill:url(#radial-gradient-12);}.cls-14{fill:url(#radial-gradient-13);}.cls-15{fill:url(#radial-gradient-14);}.cls-16{fill:url(#radial-gradient-15);}.cls-17{fill:url(#radial-gradient-16);}.cls-18{fill:url(#radial-gradient-17);}.cls-19{fill:url(#radial-gradient-18);}.cls-20{fill:url(#radial-gradient-19);}.cls-21{fill:url(#radial-gradient-20);}.cls-22{fill:url(#radial-gradient-21);}.cls-23{fill:url(#radial-gradient-22);}.cls-24{fill:url(#radial-gradient-23);}.cls-25{fill:url(#radial-gradient-24);}.cls-26{fill:url(#radial-gradient-25);}.cls-27{fill:url(#radial-gradient-26);}.cls-28{fill:url(#radial-gradient-27);}.cls-29{fill:url(#radial-gradient-28);}.cls-30{fill:url(#radial-gradient-29);}.cls-31{fill:url(#radial-gradient-30);}.cls-32{fill:url(#radial-gradient-31);}.cls-33{fill:url(#radial-gradient-32);}.cls-34{fill:url(#radial-gradient-33);}.cls-35{fill:url(#radial-gradient-34);}.cls-36{fill:url(#radial-gradient-35);}.cls-37{fill:url(#radial-gradient-36);}.cls-38{fill:url(#radial-gradient-37);}.cls-39{fill:url(#radial-gradient-38);}.cls-40{fill:url(#radial-gradient-39);}.cls-41{fill:url(#radial-gradient-40);}.cls-42{fill:url(#radial-gradient-41);}.cls-43{fill:url(#radial-gradient-42);}.cls-44{fill:url(#radial-gradient-43);}.cls-45{fill:url(#radial-gradient-44);}.cls-46{fill:url(#radial-gradient-45);}.cls-47{fill:url(#radial-gradient-46);}.cls-48{fill:url(#radial-gradient-47);}.cls-49{fill:url(#radial-gradient-48);}.cls-50{fill:url(#radial-gradient-49);}.cls-51{fill:url(#radial-gradient-50);}.cls-52{fill:url(#radial-gradient-51);}.cls-53{fill:url(#radial-gradient-52);}.cls-54{fill:url(#radial-gradient-53);}.cls-55{fill:url(#radial-gradient-54);}.cls-56{fill:url(#radial-gradient-55);}.cls-57{fill:url(#radial-gradient-56);}.cls-58{fill:url(#radial-gradient-57);}.cls-59{fill:url(#radial-gradient-58);}.cls-60{fill:url(#radial-gradient-59);}.cls-61{fill:url(#radial-gradient-60);}.cls-62{fill:url(#radial-gradient-61);}.cls-63{fill:url(#radial-gradient-62);}.cls-64{fill:url(#radial-gradient-63);}.cls-65{fill:url(#radial-gradient-64);}.cls-66{fill:url(#radial-gradient-65);}.cls-67{fill:url(#radial-gradient-66);}.cls-68{fill:url(#radial-gradient-67);}.cls-69{fill:url(#radial-gradient-68);}.cls-70{fill:url(#radial-gradient-69);}.cls-71{fill:url(#radial-gradient-70);}.cls-72{fill:url(#radial-gradient-71);}.cls-73{fill:url(#radial-gradient-72);}.cls-74{fill:url(#radial-gradient-73);}.cls-75{fill:url(#radial-gradient-74);}.cls-76{fill:url(#radial-gradient-75);}.cls-77{fill:url(#radial-gradient-76);}.cls-78{fill:url(#radial-gradient-77);}.cls-79{fill:url(#radial-gradient-78);}.cls-80{fill:url(#radial-gradient-79);}.cls-81{fill:url(#radial-gradient-80);}.cls-82{fill:url(#radial-gradient-81);}.cls-83{fill:url(#radial-gradient-82);}.cls-84{fill:url(#radial-gradient-83);}.cls-85{fill:url(#radial-gradient-84);}.cls-86{fill:url(#radial-gradient-85);}.cls-87{fill:url(#radial-gradient-86);}.cls-88{fill:url(#radial-gradient-87);}.cls-89{fill:url(#radial-gradient-88);}.cls-90{fill:url(#radial-gradient-89);}.cls-91{fill:url(#radial-gradient-90);}.cls-92{fill:url(#radial-gradient-91);}.cls-93{fill:url(#radial-gradient-92);}.cls-94{fill:url(#radial-gradient-93);}.cls-95{fill:url(#radial-gradient-94);}.cls-96{fill:url(#radial-gradient-95);}</style><radialGradient id="radial-gradient" cx="153.75" cy="-43.85" r="7.68" gradientTransform="translate(-98.46 74.26)" gradientUnits="userSpaceOnUse"><stop offset="0" stop-color="#726658"/><stop offset="0.98" stop-color="#594a42"/></radialGradient><radialGradient id="radial-gradient-2" cx="57.8" cy="33.77" r="9.16" gradientUnits="userSpaceOnUse"><stop offset="0" stop-color="#5783a2"/><stop offset="1" stop-color="#38658c"/></radialGradient><radialGradient id="radial-gradient-3" cx="62.35" cy="9.73" r="70.83" gradientUnits="userSpaceOnUse"><stop offset="0" stop-color="#231f20" stop-opacity="0"/><stop offset="1" stop-color="#231f20" stop-opacity="0.2"/></radialGradient><radialGradient id="radial-gradient-4" cx="57.8" cy="33.77" r="9.16" gradientUnits="userSpaceOnUse"><stop offset="0" stop-color="#fff" stop-opacity="0.2"/><stop offset="1" stop-color="#fff" stop-opacity="0"/></radialGradient><radialGradient id="radial-gradient-5" cx="154.45" cy="-55.57" r="3.56" gradientTransform="matrix(0.81, -0.58, 0.58, 0.81, -44.34, 155.46)" xlink:href="#radial-gradient-2"/><radialGradient id="radial-gradient-6" cx="-92.8" cy="-219.93" r="7.68" gradientTransform="matrix(0, -1, -1, 0, -108.59, -62.38)" xlink:href="#radial-gradient"/><radialGradient id="radial-gradient-7" cx="-245.18" cy="33.77" r="9.16" gradientTransform="matrix(-1, 0, 0, 1, -136.33, 0)" xlink:href="#radial-gradient-2"/><radialGradient id="radial-gradient-8" cx="-240.63" cy="9.73" r="70.83" gradientTransform="matrix(-1, 0, 0, 1, -136.33, 0)" xlink:href="#radial-gradient-3"/><radialGradient id="radial-gradient-9" cx="-245.18" cy="33.77" r="9.16" gradientTransform="matrix(-1, 0, 0, 1, -136.33, 0)" xlink:href="#radial-gradient-4"/><radialGradient id="radial-gradient-10" cx="-92.1" cy="-231.65" r="3.56" gradientTransform="matrix(-0.81, -0.58, -0.58, 0.81, -91.99, 155.46)" xlink:href="#radial-gradient-2"/><radialGradient id="radial-gradient-11" cx="83.66" cy="29.75" r="47.19" gradientUnits="userSpaceOnUse"><stop offset="0" stop-color="#78d0e9"/><stop offset="0.97" stop-color="#36b0d6"/></radialGradient><radialGradient id="radial-gradient-12" cx="82.66" cy="34.69" r="117.93" xlink:href="#radial-gradient-3"/><radialGradient id="radial-gradient-13" cx="81.28" cy="55.71" r="70.4" xlink:href="#radial-gradient-11"/><radialGradient id="radial-gradient-14" cx="82.66" cy="-72.54" r="310.56" xlink:href="#radial-gradient-3"/><radialGradient id="radial-gradient-15" cx="137.13" cy="85.09" r="28.7" xlink:href="#radial-gradient-2"/><radialGradient id="radial-gradient-16" cx="136.46" cy="86.29" r="25.29" xlink:href="#radial-gradient-4"/><radialGradient id="radial-gradient-17" cx="135.21" cy="93.22" r="33.74" xlink:href="#radial-gradient-3"/><radialGradient id="radial-gradient-18" cx="155.77" cy="176.48" r="39.71" gradientUnits="userSpaceOnUse"><stop offset="0.01" stop-color="#d1d3d4"/><stop offset="0.98" stop-color="#a7a9ac"/></radialGradient><radialGradient id="radial-gradient-19" cx="146.96" cy="163.81" r="30.06" xlink:href="#radial-gradient-4"/><radialGradient id="radial-gradient-20" cx="150.66" cy="179.04" r="65.73" xlink:href="#radial-gradient-3"/><radialGradient id="radial-gradient-21" cx="134.39" cy="107.02" r="7.46" gradientTransform="matrix(1, 0, 0, 1, 0, 0)" xlink:href="#radial-gradient"/><radialGradient id="radial-gradient-22" cx="143.71" cy="150.52" r="10.06" xlink:href="#radial-gradient-2"/><radialGradient id="radial-gradient-23" cx="158.33" cy="166.66" r="22.43" gradientTransform="matrix(0.99, -0.04, -0.04, 0.87, 1.47, 5.16)" xlink:href="#radial-gradient-4"/><radialGradient id="radial-gradient-24" cx="143.71" cy="149.54" r="9.46" xlink:href="#radial-gradient-3"/><radialGradient id="radial-gradient-25" cx="132.56" cy="111.77" r="8.06" gradientTransform="matrix(1, 0, 0, 1, 0, 0)" xlink:href="#radial-gradient"/><radialGradient id="radial-gradient-26" cx="135.12" cy="114.7" r="10.79" gradientTransform="matrix(1, 0, 0, 1, 0, 0)" xlink:href="#radial-gradient"/><radialGradient id="radial-gradient-27" cx="145.54" cy="157.47" r="36.66" gradientUnits="userSpaceOnUse"><stop offset="0.01" stop-color="#fff"/><stop offset="0.97" stop-color="#e6e7e8"/></radialGradient><radialGradient id="radial-gradient-28" cx="138.41" cy="150.34" r="66.33" xlink:href="#radial-gradient-3"/><radialGradient id="radial-gradient-29" cx="137.18" cy="141.1" r="22.06" gradientUnits="userSpaceOnUse"><stop offset="0" stop-color="#fff" stop-opacity="0.6"/><stop offset="1" stop-color="#fff" stop-opacity="0"/></radialGradient><radialGradient id="radial-gradient-30" cx="150.47" cy="139.02" r="22.43" gradientTransform="matrix(0.99, -0.04, -0.04, 0.87, 1.47, 5.16)" xlink:href="#radial-gradient-4"/><radialGradient id="radial-gradient-31" cx="148.97" cy="133.68" r="22.43" gradientTransform="matrix(0.99, -0.04, -0.04, 0.87, 1.47, 5.16)" xlink:href="#radial-gradient-4"/><radialGradient id="radial-gradient-32" cx="147.31" cy="128.76" r="22.43" gradientTransform="matrix(0.99, -0.04, -0.04, 0.87, 1.47, 5.16)" xlink:href="#radial-gradient-4"/><radialGradient id="radial-gradient-33" cx="140.06" cy="89.47" r="20.87" xlink:href="#radial-gradient-4"/><radialGradient id="radial-gradient-34" cx="101" cy="43.88" r="25.13" xlink:href="#radial-gradient-3"/><radialGradient id="radial-gradient-35" cx="100.68" cy="45.93" r="21.33" xlink:href="#radial-gradient-2"/><radialGradient id="radial-gradient-36" cx="100.35" cy="47.98" r="17.56" gradientUnits="userSpaceOnUse"><stop offset="0" stop-color="#b9e78e"/><stop offset="0.97" stop-color="#88b951"/></radialGradient><radialGradient id="radial-gradient-37" cx="80.32" cy="21.95" r="54.37" xlink:href="#radial-gradient-3"/><radialGradient id="radial-gradient-38" cx="79.18" cy="27.52" r="45.65" xlink:href="#radial-gradient-2"/><radialGradient id="radial-gradient-39" cx="78.05" cy="33.09" r="36.93" xlink:href="#radial-gradient-36"/><radialGradient id="radial-gradient-40" cx="-304.08" cy="85.09" r="28.7" gradientTransform="matrix(-1, 0, 0, 1, -274.75, 0)" xlink:href="#radial-gradient-2"/><radialGradient id="radial-gradient-41" cx="-304.75" cy="86.29" r="25.29" gradientTransform="matrix(-1, 0, 0, 1, -274.75, 0)" xlink:href="#radial-gradient-4"/><radialGradient id="radial-gradient-42" cx="-306" cy="93.22" r="33.74" gradientTransform="matrix(-1, 0, 0, 1, -274.75, 0)" xlink:href="#radial-gradient-3"/><radialGradient id="radial-gradient-43" cx="-285.44" cy="176.48" r="39.71" gradientTransform="matrix(-1, 0, 0, 1, -274.75, 0)" xlink:href="#radial-gradient-18"/><radialGradient id="radial-gradient-44" cx="-294.25" cy="163.81" r="30.06" gradientTransform="matrix(-1, 0, 0, 1, -274.75, 0)" xlink:href="#radial-gradient-4"/><radialGradient id="radial-gradient-45" cx="-290.56" cy="179.04" r="65.73" gradientTransform="matrix(-1, 0, 0, 1, -274.75, 0)" xlink:href="#radial-gradient-3"/><radialGradient id="radial-gradient-46" cx="-306.82" cy="107.02" r="7.46" gradientTransform="matrix(-1, 0, 0, 1, -274.75, 0)" xlink:href="#radial-gradient"/><radialGradient id="radial-gradient-47" cx="-297.5" cy="150.52" r="10.06" gradientTransform="matrix(-1, 0, 0, 1, -274.75, 0)" xlink:href="#radial-gradient-2"/><radialGradient id="radial-gradient-48" cx="-288.19" cy="147.6" r="22.43" gradientTransform="matrix(-0.99, -0.04, 0.04, 0.87, -276.22, 5.16)" xlink:href="#radial-gradient-4"/><radialGradient id="radial-gradient-49" cx="-297.51" cy="149.54" r="9.46" gradientTransform="matrix(-1, 0, 0, 1, -274.75, 0)" xlink:href="#radial-gradient-3"/><radialGradient id="radial-gradient-50" cx="-308.65" cy="111.77" r="8.06" gradientTransform="matrix(-1, 0, 0, 1, -274.75, 0)" xlink:href="#radial-gradient"/><radialGradient id="radial-gradient-51" cx="-306.09" cy="114.7" r="10.79" gradientTransform="matrix(-1, 0, 0, 1, -274.75, 0)" xlink:href="#radial-gradient"/><radialGradient id="radial-gradient-52" cx="-295.68" cy="157.47" r="36.66" gradientTransform="matrix(-1, 0, 0, 1, -274.75, 0)" xlink:href="#radial-gradient-27"/><radialGradient id="radial-gradient-53" cx="-302.8" cy="150.34" r="66.33" gradientTransform="matrix(-1, 0, 0, 1, -274.75, 0)" xlink:href="#radial-gradient-3"/><radialGradient id="radial-gradient-54" cx="-304.03" cy="141.1" r="22.07" gradientTransform="matrix(-1, 0, 0, 1, -274.75, 0)" xlink:href="#radial-gradient-29"/><radialGradient id="radial-gradient-55" cx="-296.05" cy="119.96" r="22.43" gradientTransform="matrix(-0.99, -0.04, 0.04, 0.87, -276.22, 5.16)" xlink:href="#radial-gradient-4"/><radialGradient id="radial-gradient-56" cx="-297.55" cy="114.63" r="22.43" gradientTransform="matrix(-0.99, -0.04, 0.04, 0.87, -276.22, 5.16)" xlink:href="#radial-gradient-4"/><radialGradient id="radial-gradient-57" cx="-299.21" cy="109.71" r="22.43" gradientTransform="matrix(-0.99, -0.04, 0.04, 0.87, -276.22, 5.16)" xlink:href="#radial-gradient-4"/><radialGradient id="radial-gradient-58" cx="-301.16" cy="89.47" r="20.87" gradientTransform="matrix(-1, 0, 0, 1, -274.75, 0)" xlink:href="#radial-gradient-4"/><radialGradient id="radial-gradient-59" cx="69.54" cy="82.57" r="117.36" xlink:href="#radial-gradient-11"/><radialGradient id="radial-gradient-60" cx="86.48" cy="85.98" r="66.29" xlink:href="#radial-gradient-27"/><radialGradient id="radial-gradient-61" cx="86.36" cy="88.97" r="61.96" xlink:href="#radial-gradient-2"/><radialGradient id="radial-gradient-62" cx="64.71" cy="34.11" r="149.43" xlink:href="#radial-gradient-4"/><radialGradient id="radial-gradient-63" cx="91.31" cy="64.28" r="194.81" xlink:href="#radial-gradient-4"/><radialGradient id="radial-gradient-64" cx="87.21" cy="-45.3" r="354.16" xlink:href="#radial-gradient-4"/><radialGradient id="radial-gradient-65" cx="82.34" cy="-13.22" r="267" xlink:href="#radial-gradient-4"/><radialGradient id="radial-gradient-66" cx="69.54" cy="82.57" r="117.36" xlink:href="#radial-gradient-3"/><radialGradient id="radial-gradient-67" cx="84.85" cy="180.36" r="22.66" xlink:href="#radial-gradient-2"/><radialGradient id="radial-gradient-68" cx="84.85" cy="180.36" r="22.66" xlink:href="#radial-gradient-3"/><radialGradient id="radial-gradient-69" cx="79.84" cy="16.79" r="199.58" xlink:href="#radial-gradient-4"/><radialGradient id="radial-gradient-70" cx="81.67" cy="75.99" r="35.66" xlink:href="#radial-gradient-2"/><radialGradient id="radial-gradient-71" cx="80.01" cy="68.59" r="81.16" xlink:href="#radial-gradient-3"/><radialGradient id="radial-gradient-72" cx="77.91" cy="184.38" r="26.13" xlink:href="#radial-gradient-3"/><radialGradient id="radial-gradient-73" cx="77.91" cy="185.48" r="26.13" gradientTransform="matrix(1, 0, 0, 1, 0, 0)" xlink:href="#radial-gradient"/><radialGradient id="radial-gradient-74" cx="77.91" cy="185.48" r="26.13" xlink:href="#radial-gradient-3"/><radialGradient id="radial-gradient-75" cx="83.29" cy="154.45" r="8.64" xlink:href="#radial-gradient-3"/><radialGradient id="radial-gradient-76" cx="80.47" cy="141.98" r="17.92" xlink:href="#radial-gradient-27"/><radialGradient id="radial-gradient-77" cx="67.82" cy="156.25" r="15.15" xlink:href="#radial-gradient-3"/><radialGradient id="radial-gradient-78" cx="68.59" cy="158.25" r="12.04" xlink:href="#radial-gradient-2"/><radialGradient id="radial-gradient-79" cx="91.78" cy="152.43" r="14.22" xlink:href="#radial-gradient-3"/><radialGradient id="radial-gradient-80" cx="92.35" cy="155.32" r="11.3" xlink:href="#radial-gradient-2"/><radialGradient id="radial-gradient-81" cx="80.62" cy="97.24" r="56.66" gradientTransform="translate(0 -1.82) scale(1 0.83)" xlink:href="#radial-gradient-4"/><radialGradient id="radial-gradient-82" cx="115.1" cy="16.75" r="55.52" gradientTransform="translate(-14.61) scale(0.84 1)" xlink:href="#radial-gradient-4"/><radialGradient id="radial-gradient-83" cx="83.66" cy="29.75" r="47.19" xlink:href="#radial-gradient-4"/><radialGradient id="radial-gradient-84" cx="80.89" cy="110.73" r="56.66" gradientTransform="translate(0 -1.82) scale(1 0.83)" xlink:href="#radial-gradient-4"/><radialGradient id="radial-gradient-85" cx="81.97" cy="84.77" r="118.35" xlink:href="#radial-gradient-36"/><radialGradient id="radial-gradient-86" cx="70.6" cy="151.75" r="25.27" xlink:href="#radial-gradient-4"/><radialGradient id="radial-gradient-87" cx="93.59" cy="152.11" r="25.71" xlink:href="#radial-gradient-4"/><radialGradient id="radial-gradient-88" cx="48.2" cy="25.98" r="12.69" xlink:href="#radial-gradient-4"/><radialGradient id="radial-gradient-89" cx="77.45" cy="-23.98" r="147.37" xlink:href="#radial-gradient-4"/><radialGradient id="radial-gradient-90" cx="81.87" cy="177.65" r="27.04" xlink:href="#radial-gradient-4"/><radialGradient id="radial-gradient-91" cx="70.05" cy="157.88" r="42.66" xlink:href="#radial-gradient-4"/><radialGradient id="radial-gradient-92" cx="75.72" cy="169.58" r="48.3" xlink:href="#radial-gradient-4"/><radialGradient id="radial-gradient-93" cx="77.24" cy="-40.14" r="206.48" xlink:href="#radial-gradient-4"/><radialGradient id="radial-gradient-94" cx="72.69" cy="-21.45" r="138.84" xlink:href="#radial-gradient-4"/><radialGradient id="radial-gradient-95" cx="85.75" cy="-0.52" r="146.21" xlink:href="#radial-gradient-4"/></defs><title>robot2</title><g id="background"><rect class="cls-1" x="-161.19" y="-125.58" width="500" height="500"/></g><g id="objects"><rect class="cls-2" x="54.81" y="19.56" width="0.98" height="21.7" transform="translate(-7.38 37.8) rotate(-35.54)"/><path class="cls-3" d="M67.73,36.69a6.47,6.47,0,1,1-8.93-1.37A6.38,6.38,0,0,1,67.73,36.69Z"/><path class="cls-4" d="M67.73,36.69a6.16,6.16,0,0,0-4.24-2.54c.88.54,2,1.65.53,3.28-2.15,2.32-7.1,7.45-7.82,1.82a6.19,6.19,0,0,0,1,5,6.47,6.47,0,0,0,10.53-7.52Z"/><path class="cls-5" d="M67.73,36.69a6.47,6.47,0,1,0-1.6,8.89,5.93,5.93,0,1,1,1.51-8.36,6,6,0,0,1-1.51,8.36A6.38,6.38,0,0,0,67.73,36.69Z"/><path class="cls-6" d="M52.14,19.86a3.56,3.56,0,1,1-5-.83A3.56,3.56,0,0,1,52.14,19.86Z"/><rect class="cls-7" x="100.51" y="29.92" width="21.7" height="0.98" transform="translate(21.89 103.35) rotate(-54.46)"/><path class="cls-8" d="M98.92,36.69a6.48,6.48,0,1,0,8.93-1.37A6.38,6.38,0,0,0,98.92,36.69Z"/><path class="cls-9" d="M98.92,36.69a6.16,6.16,0,0,1,4.24-2.54c-.87.54-2,1.65-.52,3.28,2.14,2.32,7.09,7.45,7.81,1.82a6.19,6.19,0,0,1-1,5,6.48,6.48,0,0,1-10.54-7.52Z"/><path class="cls-10" d="M98.92,36.69a6.48,6.48,0,1,1,1.6,8.89A5.93,5.93,0,1,0,99,37.22a6,6,0,0,0,1.51,8.36A6.38,6.38,0,0,1,98.92,36.69Z"/><path class="cls-11" d="M114.51,19.86a3.56,3.56,0,1,0,5-.83A3.57,3.57,0,0,0,114.51,19.86Z"/><path class="cls-12" d="M117.83,88.79c-.3-31.13-9.59-56.46-34.54-56.21-27.41.28-34.23,25.08-34.53,56.21Z"/><path class="cls-13" d="M102.61,68.87l-.16.26L96,76.71l-4.26-7.58L85.7,76.71l-4.6-7.58-5.74,7.58-4.94-7.58L65,76.71l-5.27-7.58-.26-.26H49.84a157.2,157.2,0,0,0-1.08,17.72h69.07a127.79,127.79,0,0,0-1.33-17.72Z"/><path class="cls-14" d="M102.61,71.06l-.16.27L96,78.9l-4.26-7.57L85.7,78.9l-4.6-7.57L75.36,78.9l-4.94-7.57L65,78.9l-5.27-7.57-.26-.27H49.84a157.24,157.24,0,0,0-1.08,17.73h69.07a127.82,127.82,0,0,0-1.33-17.73Z"/><path class="cls-15" d="M97.07,35.68c3.87,3.25,12.24,11.6,14.47,24.41,2.93,16.82,8,23.4-14.26,24.49s-46.79,4.76-43.86-15c2.62-17.72,5.84-28.36,21-35.91C54.37,38.82,49,61.34,48.76,88.79h69.07C117.59,64.24,111.76,43.31,97.07,35.68Z"/><path class="cls-16" d="M135.64,111.23l.6-12.32a9,9,0,1,0-17.43,4.38L124,114Z"/><path class="cls-17" d="M124.87,92.75a9,9,0,0,0-2.62,1.13,9.46,9.46,0,0,1,2-.77,9,9,0,0,1,10.92,6.53l-.59,12.11.63-.15.6-12.33A9,9,0,0,0,124.87,92.75Z"/><path class="cls-18" d="M136,103.29c-.34,2.62-1.19,5.53-3.29,6-3.73.86-11-15.72-4.52-17.17a9.18,9.18,0,0,0-2.89.24,9,9,0,0,0-6.52,10.91L124,114l11.67-2.75Z"/><path class="cls-19" d="M140.22,168.44a1.67,1.67,0,0,1-.94,0A11.72,11.72,0,1,1,151.69,165a1.64,1.64,0,0,1-2.75-1.71,5.41,5.41,0,1,0-8.19,2.28,1.65,1.65,0,0,1,.5,2.07A1.68,1.68,0,0,1,140.22,168.44Z"/><path class="cls-20" d="M137.79,166a9.52,9.52,0,0,1,2.88-17,9.28,9.28,0,0,1,2.55-.35,9.54,9.54,0,0,1,9.18,7,9.44,9.44,0,0,1-.48,6.44,7.42,7.42,0,0,0-.28-2,7.63,7.63,0,0,0-7.33-5.57,7.44,7.44,0,0,0-2,.28A7.61,7.61,0,0,0,137.79,166Z"/><path class="cls-21" d="M140.09,148.54a11.74,11.74,0,0,1,14.43,8.15c0,.09,0,.18,0,.27a11.4,11.4,0,0,0-.42-2.83,11.71,11.71,0,0,0-22.62,6.08A11.72,11.72,0,0,1,140.09,148.54Z"/><path class="cls-22" d="M138.08,111.12a2.58,2.58,0,0,1-1.78,3.17l-10,2.78a2.57,2.57,0,0,1-3.16-1.78h0a2.57,2.57,0,0,1,1.79-3.17l10-2.78a2.57,2.57,0,0,1,3.16,1.78Z"/><path class="cls-23" d="M145.7,143.14a2.16,2.16,0,0,1-1.5,2.66l-8.41,2.34a2.16,2.16,0,0,1-2.66-1.5h0a2.17,2.17,0,0,1,1.5-2.66l8.41-2.34a2.16,2.16,0,0,1,2.66,1.5Z"/><path class="cls-24" d="M145.09,144.09c.15.56-.39,1.2-1.22,1.43l-6.05,1.69c-.83.23-1.62,0-1.78-.6h0c-.16-.56.39-1.2,1.21-1.43l6.06-1.68c.83-.23,1.62,0,1.78.59Z"/><path class="cls-25" d="M135.18,145.26l8.41-2.34a2.17,2.17,0,0,1,2.19.65,2.19,2.19,0,0,0-2.74-1.93L134.63,144a2.17,2.17,0,0,0-1.5,2.66,2,2,0,0,0,.48.85A2.16,2.16,0,0,1,135.18,145.26Z"/><path class="cls-26" d="M139.32,115.58a2.57,2.57,0,0,1-1.78,3.16l-10,2.79a2.57,2.57,0,0,1-3.16-1.79h0a2.57,2.57,0,0,1,1.78-3.16l10-2.79a2.56,2.56,0,0,1,3.16,1.79Z"/><path class="cls-27" d="M140.56,120a2.58,2.58,0,0,1-1.78,3.17l-10,2.79a2.58,2.58,0,0,1-3.16-1.79h0a2.57,2.57,0,0,1,1.79-3.17l10-2.78a2.57,2.57,0,0,1,3.16,1.78Z"/><path class="cls-28" d="M141.91,124.89c.38,1.36,3.33,16.25,2,16.63l-10,2.78c-1.37.38-6.53-13.88-6.91-15.25h0a2.57,2.57,0,0,1,1.78-3.16l10-2.79a2.56,2.56,0,0,1,3.16,1.79Z"/><path class="cls-29" d="M141.91,124.89a2.56,2.56,0,0,0-3.16-1.79l-10,2.79a2.57,2.57,0,0,0-1.78,3.16c.38,1.37,5.54,15.63,6.91,15.25l.47-.13c-1.25.34-5.93-12.59-6.27-13.83a2.33,2.33,0,0,1,1.62-2.87l9.08-2.53a2.34,2.34,0,0,1,2.87,1.62c.34,1.24,3,14.74,1.78,15.09l.46-.13C145.24,141.14,142.29,126.25,141.91,124.89Z"/><polygon class="cls-30" points="129.94 125.55 128.54 126.58 136.28 143.63 140.96 142.33 136.88 123.62 129.94 125.55"/><path class="cls-31" d="M138.33,120.42c.15.56-.39,1.2-1.22,1.43l-6.05,1.69c-.83.23-1.63,0-1.78-.6h0c-.16-.56.39-1.2,1.21-1.43l6.06-1.68c.82-.23,1.62,0,1.78.59Z"/><path class="cls-32" d="M137.05,115.85c.15.56-.39,1.2-1.22,1.43L129.78,119c-.83.23-1.63,0-1.78-.6h0c-.16-.56.39-1.2,1.21-1.43l6.06-1.68c.82-.23,1.62,0,1.78.59Z"/><path class="cls-33" d="M135.58,111.65c.16.56-.38,1.2-1.21,1.43l-6.05,1.68c-.83.23-1.63,0-1.78-.59h0c-.16-.56.38-1.2,1.21-1.43l6.05-1.69c.83-.23,1.63,0,1.78.6Z"/><path class="cls-34" d="M135.43,97.74c1.12,3.3.15,6.61-2.17,7.4s-1.5-2.31-2.62-5.61-3.74-5.56-1.43-6.34S134.32,94.44,135.43,97.74Z"/><rect class="cls-35" x="86.18" y="49.83" width="22.81" height="13.68" rx="3.72"/><rect class="cls-36" x="87.28" y="50.92" width="20.61" height="11.48" rx="2.62"/><rect class="cls-37" x="88.37" y="52.02" width="18.42" height="9.29" rx="1.53"/><rect class="cls-38" x="57.12" y="49.83" width="22.81" height="13.68" rx="3.72"/><rect class="cls-39" x="58.21" y="50.92" width="20.61" height="11.48" rx="2.62"/><rect class="cls-40" x="59.31" y="52.02" width="18.42" height="9.29" rx="1.53"/><path class="cls-41" d="M30.82,111.23l-.6-12.32a9,9,0,1,1,17.43,4.38L42.5,114Z"/><path class="cls-42" d="M41.59,92.75a9,9,0,0,1,2.62,1.13,9.46,9.46,0,0,0-2-.77,9,9,0,0,0-10.91,6.53l.58,12.11-.63-.15-.6-12.33A9,9,0,0,1,41.59,92.75Z"/><path class="cls-43" d="M30.43,103.29c.34,2.62,1.2,5.53,3.29,6,3.73.86,11-15.72,4.52-17.17a9.18,9.18,0,0,1,2.89.24,9,9,0,0,1,6.52,10.91L42.5,114l-11.68-2.75Z"/><path class="cls-44" d="M26.24,168.44a1.71,1.71,0,0,0,1,0A11.72,11.72,0,1,0,14.77,165a1.67,1.67,0,0,0,.8.51,1.65,1.65,0,0,0,2-2.22,5.33,5.33,0,0,1-.23-3.54,5.41,5.41,0,1,1,8.41,5.82,1.65,1.65,0,0,0,.53,2.91Z"/><path class="cls-45" d="M28.67,166a9.52,9.52,0,0,0-2.88-17,9.23,9.23,0,0,0-2.55-.35,9.52,9.52,0,0,0-8.7,13.41,7.42,7.42,0,0,1,.28-2,7.63,7.63,0,0,1,7.33-5.57,7.44,7.44,0,0,1,2,.28A7.61,7.61,0,0,1,28.67,166Z"/><path class="cls-46" d="M26.38,148.54A11.73,11.73,0,0,0,12,156.69a2.61,2.61,0,0,0-.06.27,11.4,11.4,0,0,1,.42-2.83,11.71,11.71,0,0,1,22.62,6.08A11.73,11.73,0,0,0,26.38,148.54Z"/><path class="cls-47" d="M28.38,111.12a2.57,2.57,0,0,0,1.79,3.17l10,2.78a2.57,2.57,0,0,0,3.16-1.78h0a2.58,2.58,0,0,0-1.78-3.17l-10-2.78a2.57,2.57,0,0,0-3.16,1.78Z"/><path class="cls-48" d="M20.76,143.14a2.16,2.16,0,0,0,1.5,2.66l8.41,2.34a2.16,2.16,0,0,0,2.66-1.5h0a2.16,2.16,0,0,0-1.5-2.66l-8.41-2.34a2.16,2.16,0,0,0-2.66,1.5Z"/><path class="cls-49" d="M21.37,144.09c-.15.56.39,1.2,1.22,1.43l6.05,1.69c.83.23,1.63,0,1.78-.6h0c.16-.56-.39-1.2-1.21-1.43l-6.06-1.68c-.82-.23-1.62,0-1.78.59Z"/><path class="cls-50" d="M31.28,145.26l-8.41-2.34a2.15,2.15,0,0,0-2.18.65,2.14,2.14,0,0,1,2.73-1.93L31.83,144a2.15,2.15,0,0,1,1,3.51A2.16,2.16,0,0,0,31.28,145.26Z"/><path class="cls-51" d="M27.14,115.58a2.56,2.56,0,0,0,1.79,3.16l10,2.79a2.56,2.56,0,0,0,3.16-1.79h0a2.57,2.57,0,0,0-1.78-3.16l-10-2.79a2.57,2.57,0,0,0-3.16,1.79Z"/><path class="cls-52" d="M25.9,120a2.57,2.57,0,0,0,1.79,3.17l10,2.79a2.58,2.58,0,0,0,3.16-1.79h0A2.57,2.57,0,0,0,39.08,121l-10-2.78A2.57,2.57,0,0,0,25.9,120Z"/><path class="cls-53" d="M24.55,124.89c-.38,1.36-3.33,16.25-2,16.63l10,2.78c1.37.38,6.53-13.88,6.91-15.25h0a2.57,2.57,0,0,0-1.78-3.16l-10-2.79a2.57,2.57,0,0,0-3.16,1.79Z"/><path class="cls-54" d="M24.55,124.89a2.57,2.57,0,0,1,3.16-1.79l10,2.79a2.57,2.57,0,0,1,1.78,3.16c-.38,1.37-5.54,15.63-6.91,15.25l-.46-.13c1.24.34,5.92-12.59,6.26-13.83a2.33,2.33,0,0,0-1.62-2.87l-9.08-2.53a2.34,2.34,0,0,0-2.87,1.62c-.34,1.24-3,14.74-1.78,15.09l-.46-.13C21.22,141.14,24.17,126.25,24.55,124.89Z"/><polygon class="cls-55" points="36.52 125.55 37.92 126.58 30.19 143.63 25.5 142.33 29.59 123.62 36.52 125.55"/><path class="cls-56" d="M28.14,120.42c-.16.56.38,1.2,1.21,1.43l6.06,1.69c.82.23,1.62,0,1.78-.6h0c.15-.56-.39-1.2-1.22-1.43l-6-1.68c-.83-.23-1.63,0-1.78.59Z"/><path class="cls-57" d="M29.42,115.85c-.16.56.38,1.2,1.21,1.43L36.69,119c.82.23,1.62,0,1.78-.6h0c.15-.56-.39-1.2-1.22-1.43l-6.05-1.68c-.83-.23-1.63,0-1.78.59Z"/><path class="cls-58" d="M30.88,111.65c-.16.56.39,1.2,1.21,1.43l6.06,1.68c.82.23,1.62,0,1.78-.59h0c.15-.56-.39-1.2-1.22-1.43l-6.05-1.69c-.83-.23-1.63,0-1.78.6Z"/><path class="cls-59" d="M31,97.74c-1.12,3.3-.14,6.61,2.18,7.4s1.49-2.31,2.61-5.61,3.75-5.56,1.43-6.34S32.14,94.44,31,97.74Z"/><path class="cls-60" d="M125.28,104.52a11.89,11.89,0,0,0-11.89-11.89H53.2a11.89,11.89,0,0,0-11.89,11.89l17.37,70.81C60.17,183,64,187.22,70.57,187.22H95c6.56,0,10.9-4.21,11.89-11.89Z"/><path class="cls-61" d="M60.86,144.45a1.11,1.11,0,0,1-1.09-.94l-4.38-29.17a1.08,1.08,0,0,1,.25-.88,1.1,1.1,0,0,1,.83-.38h53.65a1.1,1.1,0,0,1,.83.38,1.08,1.08,0,0,1,.25.88l-4.39,29.17a1.1,1.1,0,0,1-1.08.94Z"/><polygon class="cls-62" points="105.73 143.35 60.86 143.35 56.47 114.17 110.12 114.17 105.73 143.35"/><path class="cls-63" d="M46.76,126.76c13.51-10.66,29.52-23.24,43.55-34.13H65.9c-7.21,5.9-15.25,12.48-22.9,18.78Z"/><path class="cls-64" d="M109.23,166.41l6.35-24.49-44.85,45.3H89C95.44,180.57,102.28,173.55,109.23,166.41Z"/><path class="cls-65" d="M125.28,104.52a11.83,11.83,0,0,0-3.08-8C101.75,116,76.63,139.57,54.91,160l3.77,15.35a23.83,23.83,0,0,0,1.1,4l61.08-57.74Z"/><path class="cls-66" d="M119.87,94.55a11.86,11.86,0,0,0-6.48-1.92h-8.08C89,107.35,68.53,125.74,50.51,142l3,12.34C74,135.77,99,113.27,119.87,94.55Z"/><path class="cls-67" d="M113.39,92.63h-1.13a11.44,11.44,0,0,1,11.44,11.44L106,172.21c-1,7.39-5.13,11.44-11.45,11.44H71.05c-6.32,0-10-4.05-11.44-11.44L42.89,104.07A11.44,11.44,0,0,1,54.33,92.63H53.2a11.89,11.89,0,0,0-11.89,11.89l17.37,70.81C60.17,183,64,187.22,70.57,187.22H95c6.56,0,10.9-4.21,11.89-11.89l18.36-70.81A11.89,11.89,0,0,0,113.39,92.63Z"/><path class="cls-68" d="M109.73,191.19A4.76,4.76,0,0,1,105,196H61.61a4.76,4.76,0,0,1-4.76-4.76h0a4.76,4.76,0,0,1,4.76-4.75H105a4.75,4.75,0,0,1,4.75,4.75Z"/><path class="cls-69" d="M105,186.44h-.13a4.11,4.11,0,0,1-3,6.95H64.34a4.11,4.11,0,0,1-3-6.93,4.75,4.75,0,0,0,.26,9.49H105a4.76,4.76,0,0,0,0-9.51Z"/><path class="cls-70" d="M113.39,92.63H53.2a11.89,11.89,0,0,0-11.89,11.89l7.55,30.77a82.55,82.55,0,0,0,16.07,1.57c26.6,0,49.49-12.5,59.87-30.48l.48-1.86A11.89,11.89,0,0,0,113.39,92.63Z"/><path class="cls-71" d="M123.25,92.45a5.39,5.39,0,0,1-5.38,5.39H48.72a5.39,5.39,0,0,1-5.39-5.39h0a5.39,5.39,0,0,1,5.39-5.39h69.15a5.38,5.38,0,0,1,5.38,5.39Z"/><path class="cls-72" d="M117.87,87.06h-3.52a4.84,4.84,0,0,1,0,9.68H52.24a4.84,4.84,0,0,1,0-9.68H48.72a5.39,5.39,0,0,0,0,10.78h69.15a5.39,5.39,0,0,0,0-10.78Z"/><path class="cls-73" d="M117,197.36a4.94,4.94,0,0,1-4.94,4.94H54.51a4.94,4.94,0,0,1-4.94-4.94h0a4.94,4.94,0,0,1,4.94-4.93h57.57a4.94,4.94,0,0,1,4.94,4.93Z"/><path class="cls-74" d="M117,198.46a4.94,4.94,0,0,1-4.94,4.93H54.51a4.94,4.94,0,0,1-4.94-4.93h0a4.94,4.94,0,0,1,4.94-4.94h57.57a4.94,4.94,0,0,1,4.94,4.94Z"/><path class="cls-75" d="M112.08,193.52h-2.66a4.48,4.48,0,0,1,0,9H57.17a4.48,4.48,0,0,1,0-9H54.51a4.94,4.94,0,1,0,0,9.87h57.57a4.94,4.94,0,1,0,0-9.87Z"/><path class="cls-76" d="M83.29,163.09a8.64,8.64,0,1,1,8.64-8.64A8.65,8.65,0,0,1,83.29,163.09Z"/><path class="cls-77" d="M90.83,154.45a7.54,7.54,0,1,1-7.54-7.54A7.53,7.53,0,0,1,90.83,154.45Z"/><path class="cls-78" d="M71.56,171.31A5.35,5.35,0,1,1,76.9,166,5.35,5.35,0,0,1,71.56,171.31Z"/><path class="cls-79" d="M75.81,166a4.25,4.25,0,1,1-4.25-4.25A4.26,4.26,0,0,1,75.81,166Z"/><path class="cls-80" d="M94.56,171.86a5.35,5.35,0,1,1,5.35-5.34A5.35,5.35,0,0,1,94.56,171.86Z"/><path class="cls-81" d="M98.81,166.52a4.25,4.25,0,1,1-4.25-4.25A4.25,4.25,0,0,1,98.81,166.52Z"/><path class="cls-82" d="M112.38,91.35a3.05,3.05,0,0,1-3.29,2.74H57a3.05,3.05,0,0,1-3.29-2.74h0A3,3,0,0,1,57,88.61h52.13a3,3,0,0,1,3.29,2.74Z"/><path class="cls-83" d="M101.12,41.59c0,4.31-8.37.68-18.37.68s-17.82,3.63-17.82-.68S73,33.77,83,33.77,101.12,37.27,101.12,41.59Z"/><path class="cls-84" d="M83.29,32.58c-27.41.28-34.23,25.08-34.53,56.21h1.57c.29-29.71,6.8-53.39,33-53.65,23.82-.24,32.68,23.94,33,53.65h1.58C117.53,57.66,108.24,32.33,83.29,32.58Z"/><path class="cls-85" d="M112.66,102.59a3.05,3.05,0,0,1-3.29,2.74H57.23a3.06,3.06,0,0,1-3.29-2.74h0a3.05,3.05,0,0,1,3.29-2.74h52.14a3,3,0,0,1,3.29,2.74Z"/><path class="cls-86" d="M108.38,125.74l-2.6,2.07-2.19-7.4-4.11,7.68-1.65-3.57-2.19,3.84L94,122.88l-1.92,5.48-3.56-4.93-2.74,4.66-1.1-11L83.3,136.59l-1.64-14.81L78.91,127l-3-4.66-2.47,5.48-1.64-8-3,15.36L65.48,121l-6.91,7.14.19,1.29,6.11-6.22,2.83,12.29a1.1,1.1,0,0,0,1.07.85h0a1.1,1.1,0,0,0,1.06-.88l2-10,.55,2.62a1.08,1.08,0,0,0,1,.87h.12a1.09,1.09,0,0,0,1-.65l1.64-3.64,1.92,3a1.11,1.11,0,0,0,.92.5h0a1.09,1.09,0,0,0,.92-.59l1.08-2,1.25,11.25a1.09,1.09,0,0,0,1.09,1h0a1.1,1.1,0,0,0,1.08-1l.55-7.85a1.09,1.09,0,0,0,.58.35,1,1,0,0,0,.24,0,1.09,1.09,0,0,0,.94-.54l1.89-3.21L91.19,129a1.08,1.08,0,0,0,.88.46h.16a1.09,1.09,0,0,0,.88-.73l.8-2.29.68,2.25a1.08,1.08,0,0,0,.92.77h.13a1.1,1.1,0,0,0,1-.55l1.14-2,.75,1.64a1.11,1.11,0,0,0,1,.63h0a1.08,1.08,0,0,0,1-.58l2.86-5.32,1.43,4.84a1.1,1.1,0,0,0,1,.79,1.09,1.09,0,0,0,.69-.24l.41-.31,1.26-1,.24-1.59Z"/><path class="cls-87" d="M74.49,162.9a4.24,4.24,0,0,0-6.88,4.63C71.09,167.26,73.88,165.36,74.49,162.9Z"/><path class="cls-88" d="M97.45,163.42a4.24,4.24,0,0,0-7.14,3.1,4.06,4.06,0,0,0,.35,1.67A8.54,8.54,0,0,0,97.45,163.42Z"/><path class="cls-89" d="M50.66,21.06A2.46,2.46,0,1,1,48.2,18.6,2.46,2.46,0,0,1,50.66,21.06Z"/><path class="cls-90" d="M51.09,63.4a60.5,60.5,0,0,0,16.17,2.18c17.95,0,33.52-7.67,41.26-18.87C103,37.83,94.84,32.47,83.29,32.58,64,32.78,54.87,45.18,51.09,63.4Z"/><path class="cls-91" d="M98.38,182.1c0,.55-6.83,1-15.26,1s-15.26-.45-15.26-1,6.83-1,15.26-1S98.38,181.54,98.38,182.1Z"/><path class="cls-92" d="M103.13,189.5a1.82,1.82,0,0,1-1.82,1.83H66.39a1.82,1.82,0,0,1-1.82-1.83h0a1.82,1.82,0,0,1,1.82-1.83h34.92a1.82,1.82,0,0,1,1.82,1.83Z"/><path class="cls-93" d="M111,197.09a2.65,2.65,0,0,1-2.65,2.65H60.64A2.65,2.65,0,0,1,58,197.09h0a2.64,2.64,0,0,1,2.65-2.65h47.7a2.64,2.64,0,0,1,2.65,2.65Z"/><path class="cls-94" d="M110.82,50.93A37.14,37.14,0,0,0,104.14,41C85.52,52.72,65,65.56,49.38,75.35c-.37,4.16-.56,8.52-.61,13Z"/><path class="cls-95" d="M50.94,64.1C64.63,56,82.32,45.62,98.34,36.39a28.36,28.36,0,0,0-15-3.81c-.74,0-1.46,0-2.17.09-8,5.23-16.9,11-25.3,16.53A58.06,58.06,0,0,0,50.94,64.1Z"/><path class="cls-96" d="M115.23,64.1a68.61,68.61,0,0,0-2.37-8.21c-18.82,11.8-38.14,24-52.11,32.9H78Z"/></g></svg>