<svg xmlns="http://www.w3.org/2000/svg" xmlns:xlink="http://www.w3.org/1999/xlink" viewBox="0 0 500 500"><defs><style>.cls-1{fill:#fff;}.cls-2{fill:url(#linear-gradient);}.cls-3{fill:url(#radial-gradient);}.cls-4{fill:url(#radial-gradient-2);}.cls-5{fill:url(#radial-gradient-3);}.cls-6{fill:url(#radial-gradient-4);}.cls-7{fill:url(#radial-gradient-5);}.cls-8{fill:url(#radial-gradient-6);}.cls-9{fill:url(#radial-gradient-7);}.cls-10{fill:url(#radial-gradient-8);}.cls-11{fill:url(#radial-gradient-9);}.cls-12{fill:url(#radial-gradient-10);}.cls-13{fill:url(#radial-gradient-11);}.cls-14{fill:url(#radial-gradient-12);}.cls-15{fill:url(#radial-gradient-13);}.cls-16{fill:url(#radial-gradient-14);}.cls-17{fill:url(#radial-gradient-15);}.cls-18{fill:url(#radial-gradient-16);}.cls-19{fill:url(#radial-gradient-17);}.cls-20{fill:url(#radial-gradient-18);}.cls-21{fill:url(#radial-gradient-19);}.cls-22{fill:url(#radial-gradient-20);}.cls-23{fill:url(#radial-gradient-21);}.cls-24{fill:url(#radial-gradient-22);}.cls-25{fill:url(#radial-gradient-23);}.cls-26{fill:url(#radial-gradient-24);}.cls-27{fill:url(#radial-gradient-25);}.cls-28{fill:url(#radial-gradient-26);}.cls-29{fill:url(#radial-gradient-27);}.cls-30{fill:url(#radial-gradient-28);}.cls-31{fill:url(#radial-gradient-29);}.cls-32{fill:url(#radial-gradient-30);}.cls-33{fill:url(#radial-gradient-31);}.cls-34{fill:url(#radial-gradient-32);}.cls-35{fill:url(#radial-gradient-33);}.cls-36{fill:url(#radial-gradient-34);}.cls-37{fill:url(#radial-gradient-35);}.cls-38{fill:url(#radial-gradient-36);}.cls-39{fill:url(#radial-gradient-37);}.cls-40{fill:url(#radial-gradient-38);}.cls-41{fill:url(#radial-gradient-39);}.cls-42{fill:url(#radial-gradient-40);}.cls-43{fill:url(#radial-gradient-41);}.cls-44{fill:url(#radial-gradient-42);}.cls-45{fill:url(#radial-gradient-43);}.cls-46{fill:url(#radial-gradient-44);}.cls-47{fill:url(#radial-gradient-45);}.cls-48{fill:url(#radial-gradient-46);}.cls-49{fill:url(#radial-gradient-47);}.cls-50{fill:url(#radial-gradient-48);}.cls-51{fill:url(#radial-gradient-49);}.cls-52{fill:url(#radial-gradient-50);}.cls-53{fill:url(#radial-gradient-51);}.cls-54{fill:url(#radial-gradient-52);}.cls-55{fill:url(#radial-gradient-53);}.cls-56{fill:url(#radial-gradient-54);}.cls-57{fill:url(#radial-gradient-55);}.cls-58{fill:url(#radial-gradient-56);}.cls-59{fill:url(#radial-gradient-57);}.cls-60{fill:url(#radial-gradient-58);}.cls-61{fill:url(#radial-gradient-59);}.cls-62{fill:url(#radial-gradient-60);}.cls-63{fill:url(#radial-gradient-61);}.cls-64{fill:url(#radial-gradient-62);}.cls-65{fill:url(#radial-gradient-63);}.cls-66{fill:url(#radial-gradient-64);}.cls-67{fill:url(#radial-gradient-65);}.cls-68{fill:url(#radial-gradient-66);}.cls-69{fill:url(#radial-gradient-67);}.cls-70{fill:url(#radial-gradient-68);}.cls-71{fill:url(#radial-gradient-69);}.cls-72{fill:url(#radial-gradient-70);}.cls-73{fill:url(#radial-gradient-71);}.cls-74{fill:url(#radial-gradient-72);}.cls-75{fill:url(#radial-gradient-73);}.cls-76{fill:url(#radial-gradient-74);}.cls-77{fill:url(#radial-gradient-75);}.cls-78{fill:url(#radial-gradient-76);}.cls-79{fill:url(#radial-gradient-77);}.cls-80{fill:url(#radial-gradient-78);}.cls-81{fill:url(#radial-gradient-79);}.cls-82{fill:url(#radial-gradient-80);}.cls-83{fill:url(#radial-gradient-81);}.cls-84{fill:url(#radial-gradient-82);}.cls-85{fill:url(#radial-gradient-83);}.cls-86{fill:url(#radial-gradient-84);}.cls-87{fill:url(#radial-gradient-85);}.cls-88{fill:url(#radial-gradient-86);}.cls-89{fill:url(#radial-gradient-87);}.cls-90{fill:url(#radial-gradient-88);}.cls-91{fill:url(#radial-gradient-89);}.cls-92{fill:url(#radial-gradient-90);}.cls-93{fill:url(#radial-gradient-91);}.cls-94{fill:url(#radial-gradient-92);}.cls-95{fill:url(#radial-gradient-93);}.cls-96{fill:url(#radial-gradient-94);}.cls-97{fill:url(#radial-gradient-95);}</style><linearGradient id="linear-gradient" y1="362.5" x2="0" y2="362.5" gradientUnits="userSpaceOnUse"><stop offset="0" stop-color="#231f20" stop-opacity="0.2"/><stop offset="1" stop-color="#231f20" stop-opacity="0.2"/></linearGradient><radialGradient id="radial-gradient" cx="314.93" cy="81.73" r="7.68" gradientTransform="translate(-98.46 74.24)" gradientUnits="userSpaceOnUse"><stop offset="0" stop-color="#726658"/><stop offset="0.98" stop-color="#594a42"/></radialGradient><radialGradient id="radial-gradient-2" cx="218.99" cy="159.35" r="9.16" gradientUnits="userSpaceOnUse"><stop offset="0" stop-color="#5783a2"/><stop offset="1" stop-color="#38658c"/></radialGradient><radialGradient id="radial-gradient-3" cx="223.54" cy="135.31" r="70.83" gradientUnits="userSpaceOnUse"><stop offset="0" stop-color="#231f20" stop-opacity="0"/><stop offset="1" stop-color="#231f20" stop-opacity="0.2"/></radialGradient><radialGradient id="radial-gradient-4" cx="218.99" cy="159.35" r="9.16" gradientUnits="userSpaceOnUse"><stop offset="0" stop-color="#fff" stop-opacity="0.2"/><stop offset="1" stop-color="#fff" stop-opacity="0"/></radialGradient><radialGradient id="radial-gradient-5" cx="315.64" cy="70.01" r="3.56" gradientTransform="matrix(0.81, -0.58, 0.58, 0.81, -87.31, 272.52)" xlink:href="#radial-gradient-2"/><radialGradient id="radial-gradient-6" cx="68.38" cy="-94.36" r="7.68" gradientTransform="matrix(0, -1, -1, 0, 178.19, 224.38)" xlink:href="#radial-gradient"/><radialGradient id="radial-gradient-7" cx="-83.99" cy="159.35" r="9.16" gradientTransform="matrix(-1, 0, 0, 1, 186.05, 0)" xlink:href="#radial-gradient-2"/><radialGradient id="radial-gradient-8" cx="-79.44" cy="135.31" r="70.83" gradientTransform="matrix(-1, 0, 0, 1, 186.05, 0)" xlink:href="#radial-gradient-3"/><radialGradient id="radial-gradient-9" cx="-83.99" cy="159.35" r="9.16" gradientTransform="matrix(-1, 0, 0, 1, 186.05, 0)" xlink:href="#radial-gradient-4"/><radialGradient id="radial-gradient-10" cx="69.09" cy="-106.07" r="3.56" gradientTransform="matrix(-0.81, -0.58, -0.58, 0.81, 273.36, 272.52)" xlink:href="#radial-gradient-2"/><radialGradient id="radial-gradient-11" cx="244.85" cy="155.33" r="47.19" gradientUnits="userSpaceOnUse"><stop offset="0" stop-color="#78d0e9"/><stop offset="0.97" stop-color="#36b0d6"/></radialGradient><radialGradient id="radial-gradient-12" cx="243.85" cy="160.26" r="117.93" xlink:href="#radial-gradient-3"/><radialGradient id="radial-gradient-13" cx="242.47" cy="181.28" r="70.4" xlink:href="#radial-gradient-11"/><radialGradient id="radial-gradient-14" cx="243.85" cy="53.04" r="310.56" xlink:href="#radial-gradient-3"/><radialGradient id="radial-gradient-15" cx="298.32" cy="210.66" r="28.7" xlink:href="#radial-gradient-2"/><radialGradient id="radial-gradient-16" cx="297.65" cy="211.86" r="25.29" xlink:href="#radial-gradient-4"/><radialGradient id="radial-gradient-17" cx="296.4" cy="218.8" r="33.74" xlink:href="#radial-gradient-3"/><radialGradient id="radial-gradient-18" cx="316.96" cy="302.05" r="39.71" gradientUnits="userSpaceOnUse"><stop offset="0.01" stop-color="#d1d3d4"/><stop offset="0.98" stop-color="#a7a9ac"/></radialGradient><radialGradient id="radial-gradient-19" cx="308.15" cy="289.38" r="30.06" xlink:href="#radial-gradient-4"/><radialGradient id="radial-gradient-20" cx="311.84" cy="304.61" r="65.73" xlink:href="#radial-gradient-3"/><radialGradient id="radial-gradient-21" cx="295.58" cy="232.6" r="7.46" gradientTransform="matrix(1, 0, 0, 1, 0, 0)" xlink:href="#radial-gradient"/><radialGradient id="radial-gradient-22" cx="304.9" cy="276.1" r="10.06" xlink:href="#radial-gradient-2"/><radialGradient id="radial-gradient-23" cx="319.52" cy="292.23" r="22.43" gradientTransform="matrix(0.99, -0.04, -0.04, 0.87, 7.77, 27.83)" xlink:href="#radial-gradient-4"/><radialGradient id="radial-gradient-24" cx="304.89" cy="275.12" r="9.46" xlink:href="#radial-gradient-3"/><radialGradient id="radial-gradient-25" cx="293.75" cy="237.35" r="8.06" gradientTransform="matrix(1, 0, 0, 1, 0, 0)" xlink:href="#radial-gradient"/><radialGradient id="radial-gradient-26" cx="296.31" cy="240.27" r="10.79" gradientTransform="matrix(1, 0, 0, 1, 0, 0)" xlink:href="#radial-gradient"/><radialGradient id="radial-gradient-27" cx="306.73" cy="283.05" r="36.66" gradientUnits="userSpaceOnUse"><stop offset="0.01" stop-color="#fff"/><stop offset="0.97" stop-color="#e6e7e8"/></radialGradient><radialGradient id="radial-gradient-28" cx="299.6" cy="275.92" r="66.33" xlink:href="#radial-gradient-3"/><radialGradient id="radial-gradient-29" cx="298.37" cy="266.68" r="22.06" gradientUnits="userSpaceOnUse"><stop offset="0" stop-color="#fff" stop-opacity="0.6"/><stop offset="1" stop-color="#fff" stop-opacity="0"/></radialGradient><radialGradient id="radial-gradient-30" cx="311.65" cy="264.59" r="22.43" gradientTransform="matrix(0.99, -0.04, -0.04, 0.87, 7.77, 27.83)" xlink:href="#radial-gradient-4"/><radialGradient id="radial-gradient-31" cx="310.16" cy="259.26" r="22.43" gradientTransform="matrix(0.99, -0.04, -0.04, 0.87, 7.77, 27.83)" xlink:href="#radial-gradient-4"/><radialGradient id="radial-gradient-32" cx="308.5" cy="254.34" r="22.43" gradientTransform="matrix(0.99, -0.04, -0.04, 0.87, 7.77, 27.83)" xlink:href="#radial-gradient-4"/><radialGradient id="radial-gradient-33" cx="301.24" cy="215.05" r="20.87" xlink:href="#radial-gradient-4"/><radialGradient id="radial-gradient-34" cx="262.19" cy="169.46" r="25.13" xlink:href="#radial-gradient-3"/><radialGradient id="radial-gradient-35" cx="261.86" cy="171.51" r="21.33" xlink:href="#radial-gradient-2"/><radialGradient id="radial-gradient-36" cx="261.53" cy="173.56" r="17.56" gradientUnits="userSpaceOnUse"><stop offset="0" stop-color="#b9e78e"/><stop offset="0.97" stop-color="#88b951"/></radialGradient><radialGradient id="radial-gradient-37" cx="241.5" cy="147.53" r="54.37" xlink:href="#radial-gradient-3"/><radialGradient id="radial-gradient-38" cx="240.37" cy="153.1" r="45.65" xlink:href="#radial-gradient-2"/><radialGradient id="radial-gradient-39" cx="239.23" cy="158.66" r="36.93" xlink:href="#radial-gradient-36"/><radialGradient id="radial-gradient-40" cx="-142.9" cy="210.66" r="28.7" gradientTransform="matrix(-1, 0, 0, 1, 47.62, 0)" xlink:href="#radial-gradient-2"/><radialGradient id="radial-gradient-41" cx="-143.56" cy="211.86" r="25.29" gradientTransform="matrix(-1, 0, 0, 1, 47.62, 0)" xlink:href="#radial-gradient-4"/><radialGradient id="radial-gradient-42" cx="-144.82" cy="218.8" r="33.74" gradientTransform="matrix(-1, 0, 0, 1, 47.62, 0)" xlink:href="#radial-gradient-3"/><radialGradient id="radial-gradient-43" cx="-124.25" cy="302.05" r="39.71" gradientTransform="matrix(-1, 0, 0, 1, 47.62, 0)" xlink:href="#radial-gradient-18"/><radialGradient id="radial-gradient-44" cx="-133.07" cy="289.38" r="30.06" gradientTransform="matrix(-1, 0, 0, 1, 47.62, 0)" xlink:href="#radial-gradient-4"/><radialGradient id="radial-gradient-45" cx="-129.37" cy="304.61" r="65.73" gradientTransform="matrix(-1, 0, 0, 1, 47.62, 0)" xlink:href="#radial-gradient-3"/><radialGradient id="radial-gradient-46" cx="-145.64" cy="232.6" r="7.46" gradientTransform="matrix(-1, 0, 0, 1, 47.62, 0)" xlink:href="#radial-gradient"/><radialGradient id="radial-gradient-47" cx="-136.32" cy="276.1" r="10.06" gradientTransform="matrix(-1, 0, 0, 1, 47.62, 0)" xlink:href="#radial-gradient-2"/><radialGradient id="radial-gradient-48" cx="-127" cy="273.18" r="22.43" gradientTransform="matrix(-0.99, -0.04, 0.04, 0.87, 39.85, 27.83)" xlink:href="#radial-gradient-4"/><radialGradient id="radial-gradient-49" cx="-136.32" cy="275.12" r="9.46" gradientTransform="matrix(-1, 0, 0, 1, 47.62, 0)" xlink:href="#radial-gradient-3"/><radialGradient id="radial-gradient-50" cx="-147.47" cy="237.35" r="8.06" gradientTransform="matrix(-1, 0, 0, 1, 47.62, 0)" xlink:href="#radial-gradient"/><radialGradient id="radial-gradient-51" cx="-144.91" cy="240.27" r="10.79" gradientTransform="matrix(-1, 0, 0, 1, 47.62, 0)" xlink:href="#radial-gradient"/><radialGradient id="radial-gradient-52" cx="-134.49" cy="283.05" r="36.66" gradientTransform="matrix(-1, 0, 0, 1, 47.62, 0)" xlink:href="#radial-gradient-27"/><radialGradient id="radial-gradient-53" cx="-141.62" cy="275.92" r="66.33" gradientTransform="matrix(-1, 0, 0, 1, 47.62, 0)" xlink:href="#radial-gradient-3"/><radialGradient id="radial-gradient-54" cx="-142.84" cy="266.68" r="22.07" gradientTransform="matrix(-1, 0, 0, 1, 47.62, 0)" xlink:href="#radial-gradient-29"/><radialGradient id="radial-gradient-55" cx="-134.87" cy="245.54" r="22.43" gradientTransform="matrix(-0.99, -0.04, 0.04, 0.87, 39.85, 27.83)" xlink:href="#radial-gradient-4"/><radialGradient id="radial-gradient-56" cx="-136.36" cy="240.2" r="22.43" gradientTransform="matrix(-0.99, -0.04, 0.04, 0.87, 39.85, 27.83)" xlink:href="#radial-gradient-4"/><radialGradient id="radial-gradient-57" cx="-138.02" cy="235.28" r="22.43" gradientTransform="matrix(-0.99, -0.04, 0.04, 0.87, 39.85, 27.83)" xlink:href="#radial-gradient-4"/><radialGradient id="radial-gradient-58" cx="-139.97" cy="215.05" r="20.87" gradientTransform="matrix(-1, 0, 0, 1, 47.62, 0)" xlink:href="#radial-gradient-4"/><radialGradient id="radial-gradient-59" cx="230.73" cy="208.15" r="117.36" xlink:href="#radial-gradient-11"/><radialGradient id="radial-gradient-60" cx="247.67" cy="211.56" r="66.29" xlink:href="#radial-gradient-27"/><radialGradient id="radial-gradient-61" cx="247.54" cy="214.55" r="61.96" xlink:href="#radial-gradient-2"/><radialGradient id="radial-gradient-62" cx="225.9" cy="159.69" r="149.43" xlink:href="#radial-gradient-4"/><radialGradient id="radial-gradient-63" cx="252.5" cy="189.86" r="194.81" xlink:href="#radial-gradient-4"/><radialGradient id="radial-gradient-64" cx="248.39" cy="80.27" r="354.16" xlink:href="#radial-gradient-4"/><radialGradient id="radial-gradient-65" cx="243.53" cy="112.36" r="267" xlink:href="#radial-gradient-4"/><radialGradient id="radial-gradient-66" cx="230.73" cy="208.15" r="117.36" xlink:href="#radial-gradient-3"/><radialGradient id="radial-gradient-67" cx="246.04" cy="305.94" r="22.66" xlink:href="#radial-gradient-2"/><radialGradient id="radial-gradient-68" cx="246.04" cy="305.94" r="22.66" xlink:href="#radial-gradient-3"/><radialGradient id="radial-gradient-69" cx="241.03" cy="142.37" r="199.58" xlink:href="#radial-gradient-4"/><radialGradient id="radial-gradient-70" cx="242.86" cy="201.57" r="35.66" xlink:href="#radial-gradient-2"/><radialGradient id="radial-gradient-71" cx="241.2" cy="194.17" r="81.16" xlink:href="#radial-gradient-3"/><radialGradient id="radial-gradient-72" cx="239.1" cy="309.96" r="26.13" xlink:href="#radial-gradient-3"/><radialGradient id="radial-gradient-73" cx="239.1" cy="311.06" r="26.13" gradientTransform="matrix(1, 0, 0, 1, 0, 0)" xlink:href="#radial-gradient"/><radialGradient id="radial-gradient-74" cx="239.1" cy="311.06" r="26.13" xlink:href="#radial-gradient-3"/><radialGradient id="radial-gradient-75" cx="244.48" cy="280.03" r="8.64" xlink:href="#radial-gradient-3"/><radialGradient id="radial-gradient-76" cx="241.66" cy="267.55" r="17.92" xlink:href="#radial-gradient-27"/><radialGradient id="radial-gradient-77" cx="229.01" cy="281.83" r="15.15" xlink:href="#radial-gradient-3"/><radialGradient id="radial-gradient-78" cx="229.77" cy="283.82" r="12.04" xlink:href="#radial-gradient-2"/><radialGradient id="radial-gradient-79" cx="252.97" cy="278.01" r="14.22" xlink:href="#radial-gradient-3"/><radialGradient id="radial-gradient-80" cx="253.54" cy="280.9" r="11.3" xlink:href="#radial-gradient-2"/><radialGradient id="radial-gradient-81" cx="241.8" cy="222.81" r="56.66" gradientTransform="translate(0 19.11) scale(1 0.83)" xlink:href="#radial-gradient-4"/><radialGradient id="radial-gradient-82" cx="276.29" cy="142.33" r="55.52" gradientTransform="translate(11.92) scale(0.84 1)" xlink:href="#radial-gradient-4"/><radialGradient id="radial-gradient-83" cx="244.85" cy="155.33" r="47.19" xlink:href="#radial-gradient-4"/><radialGradient id="radial-gradient-84" cx="242.08" cy="236.3" r="56.66" gradientTransform="translate(0 19.11) scale(1 0.83)" xlink:href="#radial-gradient-4"/><radialGradient id="radial-gradient-85" cx="243.16" cy="210.34" r="118.35" xlink:href="#radial-gradient-36"/><radialGradient id="radial-gradient-86" cx="231.79" cy="277.33" r="25.27" xlink:href="#radial-gradient-4"/><radialGradient id="radial-gradient-87" cx="254.78" cy="277.69" r="25.71" xlink:href="#radial-gradient-4"/><radialGradient id="radial-gradient-88" cx="209.38" cy="151.55" r="12.69" xlink:href="#radial-gradient-4"/><radialGradient id="radial-gradient-89" cx="238.63" cy="101.59" r="147.37" xlink:href="#radial-gradient-4"/><radialGradient id="radial-gradient-90" cx="243.05" cy="303.22" r="27.04" xlink:href="#radial-gradient-4"/><radialGradient id="radial-gradient-91" cx="231.24" cy="283.46" r="42.66" xlink:href="#radial-gradient-4"/><radialGradient id="radial-gradient-92" cx="236.9" cy="295.16" r="48.3" xlink:href="#radial-gradient-4"/><radialGradient id="radial-gradient-93" cx="238.43" cy="85.43" r="206.48" xlink:href="#radial-gradient-4"/><radialGradient id="radial-gradient-94" cx="233.88" cy="104.13" r="138.84" xlink:href="#radial-gradient-4"/><radialGradient id="radial-gradient-95" cx="246.94" cy="125.06" r="146.21" xlink:href="#radial-gradient-4"/></defs><title>215738-P2CB1M-156</title><g id="background"><rect class="cls-1" width="500" height="500"/></g><g id="objects"><polygon class="cls-2" points="0 362.75 0 362.75 0 362.75 0 362.75 0 362.25 0 362.25 0 362.25 0 362.25 0 362.75"/><rect class="cls-3" x="215.99" y="145.14" width="0.98" height="21.7" transform="translate(-50.34 154.88) rotate(-35.54)"/><path class="cls-4" d="M228.92,162.26a6.48,6.48,0,1,1-8.93-1.37A6.4,6.4,0,0,1,228.92,162.26Z"/><path class="cls-5" d="M228.92,162.26a6.17,6.17,0,0,0-4.24-2.53c.87.54,2,1.65.52,3.27-2.14,2.33-7.09,7.45-7.81,1.83a6.2,6.2,0,0,0,1,5,6.48,6.48,0,0,0,10.54-7.53Z"/><path class="cls-6" d="M228.92,162.26a6.48,6.48,0,1,0-1.6,8.9,5.93,5.93,0,1,1,1.5-8.37,6,6,0,0,1-1.5,8.37A6.4,6.4,0,0,0,228.92,162.26Z"/><path class="cls-7" d="M213.33,145.44a3.56,3.56,0,1,1-5-.83A3.57,3.57,0,0,1,213.33,145.44Z"/><rect class="cls-8" x="261.7" y="155.5" width="21.7" height="0.98" transform="translate(-12.8 287.11) rotate(-54.46)"/><path class="cls-9" d="M260.11,162.26a6.47,6.47,0,1,0,8.93-1.37A6.39,6.39,0,0,0,260.11,162.26Z"/><path class="cls-10" d="M260.11,162.26a6.15,6.15,0,0,1,4.24-2.53c-.88.54-2,1.65-.53,3.27,2.15,2.33,7.1,7.45,7.82,1.83a6.21,6.21,0,0,1-1,5,6.47,6.47,0,0,1-10.53-7.53Z"/><path class="cls-11" d="M260.11,162.26a6.47,6.47,0,1,1,1.6,8.9,5.93,5.93,0,1,0-1.51-8.37,6,6,0,0,0,1.51,8.37A6.39,6.39,0,0,1,260.11,162.26Z"/><path class="cls-12" d="M275.7,145.44a3.56,3.56,0,1,0,5-.83A3.56,3.56,0,0,0,275.7,145.44Z"/><path class="cls-13" d="M279,214.36c-.3-31.12-9.58-56.45-34.53-56.2-27.42.27-34.23,25.08-34.53,56.2Z"/><path class="cls-14" d="M263.8,194.44l-.16.27-6.42,7.57L253,194.71l-6.08,7.57-4.59-7.57-5.75,7.57-4.93-7.57-5.41,7.57-5.26-7.57-.26-.27H211A157.38,157.38,0,0,0,210,212.17H279a129.54,129.54,0,0,0-1.32-17.73Z"/><path class="cls-15" d="M263.8,196.63l-.16.27-6.42,7.58L253,196.9l-6.08,7.58-4.59-7.58-5.75,7.58-4.93-7.58-5.41,7.58-5.26-7.58-.26-.27H211A157.53,157.53,0,0,0,210,214.36H279a129.54,129.54,0,0,0-1.32-17.73Z"/><path class="cls-16" d="M258.26,161.25c3.86,3.26,12.24,11.61,14.47,24.42,2.92,16.81,8,23.39-14.26,24.49s-46.79,4.75-43.87-15c2.63-17.71,5.85-28.36,21-35.91-20.06,5.14-25.4,27.66-25.66,55.1H279C278.78,189.82,273,168.89,258.26,161.25Z"/><path class="cls-17" d="M296.83,236.81l.6-12.33A9,9,0,1,0,280,228.87l5.15,10.68Z"/><path class="cls-18" d="M286.06,218.32a8.92,8.92,0,0,0-2.62,1.13,9.44,9.44,0,0,1,2-.76,9,9,0,0,1,10.91,6.52l-.58,12.11.62-.14.6-12.33A9,9,0,0,0,286.06,218.32Z"/><path class="cls-19" d="M297.22,228.86c-.35,2.62-1.2,5.53-3.29,6-3.73.87-11-15.72-4.52-17.16a8.63,8.63,0,0,0-2.89.24A9,9,0,0,0,280,228.87l5.15,10.68,11.68-2.74Z"/><path class="cls-20" d="M301.41,294a1.55,1.55,0,0,1-1,0,11.72,11.72,0,1,1,12.42-3.45,1.62,1.62,0,0,1-.8.5,1.65,1.65,0,0,1-1.31-.18,1.66,1.66,0,0,1-.65-2,5.29,5.29,0,0,0,.23-3.53,5.41,5.41,0,1,0-10.43,2.9,5.33,5.33,0,0,0,2,2.91,1.65,1.65,0,0,1,.49,2.08A1.62,1.62,0,0,1,301.41,294Z"/><path class="cls-21" d="M299,291.58a9.53,9.53,0,0,1,2.88-17,9.52,9.52,0,0,1,11.73,6.62,9.5,9.5,0,0,1-.48,6.44,7.82,7.82,0,0,0-.28-2A7.64,7.64,0,0,0,305.5,280a7.78,7.78,0,0,0-2,.28,7.63,7.63,0,0,0-5.29,9.37A7.93,7.93,0,0,0,299,291.58Z"/><path class="cls-22" d="M301.27,274.11a11.73,11.73,0,0,1,14.43,8.15,2.8,2.8,0,0,1,.06.28,11.55,11.55,0,0,0-.42-2.84,11.71,11.71,0,0,0-22.62,6.09A11.73,11.73,0,0,1,301.27,274.11Z"/><path class="cls-23" d="M299.27,236.7a2.57,2.57,0,0,1-1.79,3.16l-10,2.79a2.56,2.56,0,0,1-3.16-1.79h0a2.56,2.56,0,0,1,1.78-3.16l10-2.79a2.57,2.57,0,0,1,3.16,1.79Z"/><path class="cls-24" d="M306.89,268.72a2.15,2.15,0,0,1-1.5,2.65L297,273.72a2.16,2.16,0,0,1-2.66-1.51h0a2.15,2.15,0,0,1,1.5-2.65l8.41-2.34a2.16,2.16,0,0,1,2.66,1.5Z"/><path class="cls-25" d="M306.28,269.67c.15.56-.39,1.2-1.22,1.43L299,272.79c-.83.23-1.63,0-1.78-.6h0c-.16-.56.39-1.2,1.21-1.43l6.06-1.69c.82-.23,1.62,0,1.78.6Z"/><path class="cls-26" d="M296.37,270.84l8.41-2.34a2.14,2.14,0,0,1,2.18.64,2,2,0,0,0-.07-.42,2.16,2.16,0,0,0-2.66-1.5l-8.41,2.34a2.15,2.15,0,0,0-1.5,2.65,2.18,2.18,0,0,0,.47.86A2.15,2.15,0,0,1,296.37,270.84Z"/><path class="cls-27" d="M300.51,241.15a2.57,2.57,0,0,1-1.79,3.17l-10,2.78a2.57,2.57,0,0,1-3.16-1.78h0a2.57,2.57,0,0,1,1.78-3.17l10-2.78a2.57,2.57,0,0,1,3.16,1.78Z"/><path class="cls-28" d="M301.75,245.61a2.56,2.56,0,0,1-1.79,3.16l-10,2.79a2.56,2.56,0,0,1-3.16-1.79h0a2.56,2.56,0,0,1,1.78-3.16l10-2.79a2.57,2.57,0,0,1,3.16,1.79Z"/><path class="cls-29" d="M303.1,250.46c.38,1.37,3.33,16.25,2,16.63l-10,2.79c-1.37.38-6.53-13.89-6.91-15.25h0a2.56,2.56,0,0,1,1.78-3.17l10-2.78a2.55,2.55,0,0,1,3.16,1.78Z"/><path class="cls-30" d="M303.1,250.46a2.55,2.55,0,0,0-3.16-1.78l-10,2.78a2.56,2.56,0,0,0-1.78,3.17c.38,1.36,5.54,15.63,6.91,15.25l.46-.13c-1.24.34-5.92-12.59-6.26-13.83a2.32,2.32,0,0,1,1.62-2.87l9.08-2.53a2.34,2.34,0,0,1,2.87,1.62c.34,1.24,3,14.73,1.77,15.08l.47-.13C306.43,266.71,303.48,251.83,303.1,250.46Z"/><polygon class="cls-31" points="291.13 251.13 289.73 252.16 297.46 269.21 302.15 267.9 298.06 249.2 291.13 251.13"/><path class="cls-32" d="M299.51,246c.16.56-.39,1.2-1.21,1.43l-6.06,1.68c-.82.23-1.62,0-1.78-.59h0c-.15-.56.39-1.2,1.22-1.43l6.05-1.69c.83-.23,1.63,0,1.78.6Z"/><path class="cls-33" d="M298.23,241.43c.16.56-.38,1.2-1.21,1.43L291,244.54c-.82.23-1.62,0-1.78-.59h0c-.15-.56.39-1.2,1.22-1.43l6.05-1.69c.83-.23,1.63,0,1.78.6Z"/><path class="cls-34" d="M296.77,237.23c.16.55-.39,1.2-1.21,1.43l-6.06,1.68c-.82.23-1.62,0-1.78-.6h0c-.15-.56.39-1.2,1.22-1.43l6.05-1.68c.83-.23,1.62,0,1.78.6Z"/><path class="cls-35" d="M296.62,223.32c1.12,3.3.14,6.61-2.18,7.39s-1.5-2.31-2.61-5.61-3.75-5.55-1.43-6.34S295.5,220,296.62,223.32Z"/><rect class="cls-36" x="247.37" y="175.4" width="22.81" height="13.68" rx="3.72"/><rect class="cls-37" x="248.46" y="176.5" width="20.61" height="11.48" rx="2.62"/><rect class="cls-38" x="249.56" y="177.6" width="18.42" height="9.29" rx="1.53"/><rect class="cls-39" x="218.3" y="175.4" width="22.81" height="13.68" rx="3.72"/><rect class="cls-40" x="219.4" y="176.5" width="20.61" height="11.48" rx="2.62"/><rect class="cls-41" x="220.5" y="177.6" width="18.42" height="9.29" rx="1.53"/><path class="cls-42" d="M192,236.81l-.59-12.33a9,9,0,0,1,17.43,4.39l-5.16,10.68Z"/><path class="cls-43" d="M202.78,218.32a9,9,0,0,1,2.62,1.13,9.44,9.44,0,0,0-2-.76,9,9,0,0,0-10.92,6.52l.59,12.11-.63-.14-.6-12.33A9,9,0,0,1,202.78,218.32Z"/><path class="cls-44" d="M191.62,228.86c.34,2.62,1.19,5.53,3.29,6,3.73.87,11-15.72,4.52-17.16a8.65,8.65,0,0,1,2.89.24,9,9,0,0,1,6.52,10.91l-5.16,10.68L192,236.81Z"/><path class="cls-45" d="M187.43,294a1.51,1.51,0,0,0,.94,0A11.71,11.71,0,1,0,176,290.54a1.56,1.56,0,0,0,.79.5,1.64,1.64,0,0,0,2-2.22,5.35,5.35,0,0,1-.22-3.53,5.41,5.41,0,1,1,8.41,5.81,1.64,1.64,0,0,0,.53,2.91Z"/><path class="cls-46" d="M189.86,291.58a9.53,9.53,0,0,0-2.88-17,9.69,9.69,0,0,0-2.56-.35,9.55,9.55,0,0,0-9.17,7,9.44,9.44,0,0,0,.48,6.44,7.42,7.42,0,0,1,.28-2,7.63,7.63,0,0,1,7.33-5.57,7.84,7.84,0,0,1,2,.28,7.61,7.61,0,0,1,5.28,9.37A7.51,7.51,0,0,1,189.86,291.58Z"/><path class="cls-47" d="M187.56,274.11a11.74,11.74,0,0,0-14.43,8.15c0,.09,0,.19,0,.28a11.55,11.55,0,0,1,.42-2.84,11.71,11.71,0,0,1,22.62,6.09A11.73,11.73,0,0,0,187.56,274.11Z"/><path class="cls-48" d="M189.56,236.7a2.58,2.58,0,0,0,1.79,3.16l10,2.79a2.57,2.57,0,0,0,3.16-1.79h0a2.56,2.56,0,0,0-1.79-3.16l-10-2.79a2.58,2.58,0,0,0-3.17,1.79Z"/><path class="cls-49" d="M182,268.72a2.15,2.15,0,0,0,1.5,2.65l8.41,2.35a2.16,2.16,0,0,0,2.66-1.51h0a2.16,2.16,0,0,0-1.5-2.65l-8.41-2.34a2.16,2.16,0,0,0-2.66,1.5Z"/><path class="cls-50" d="M182.56,269.67c-.15.56.39,1.2,1.21,1.43l6.06,1.69c.83.23,1.62,0,1.78-.6h0c.15-.56-.39-1.2-1.22-1.43l-6-1.69c-.83-.23-1.62,0-1.78.6Z"/><path class="cls-51" d="M192.47,270.84l-8.41-2.34a2.16,2.16,0,0,0-2.19.64,2.07,2.07,0,0,1,.08-.42,2.16,2.16,0,0,1,2.66-1.5l8.41,2.34a2.16,2.16,0,0,1,1.5,2.65,2.08,2.08,0,0,1-.48.86A2.16,2.16,0,0,0,192.47,270.84Z"/><path class="cls-52" d="M188.33,241.15a2.58,2.58,0,0,0,1.78,3.17l10,2.78a2.57,2.57,0,0,0,3.16-1.78h0a2.57,2.57,0,0,0-1.79-3.17l-10-2.78a2.57,2.57,0,0,0-3.16,1.78Z"/><path class="cls-53" d="M187.09,245.61a2.57,2.57,0,0,0,1.78,3.16l10,2.79a2.57,2.57,0,0,0,3.16-1.79h0a2.57,2.57,0,0,0-1.79-3.16l-10-2.79a2.56,2.56,0,0,0-3.16,1.79Z"/><path class="cls-54" d="M185.74,250.46c-.38,1.37-3.33,16.25-2,16.63l10,2.79c1.37.38,6.53-13.89,6.91-15.25h0a2.58,2.58,0,0,0-1.78-3.17l-10-2.78a2.55,2.55,0,0,0-3.16,1.78Z"/><path class="cls-55" d="M185.74,250.46a2.55,2.55,0,0,1,3.16-1.78l10,2.78a2.58,2.58,0,0,1,1.78,3.17c-.38,1.36-5.54,15.63-6.91,15.25l-.47-.13c1.24.34,5.93-12.59,6.27-13.83a2.32,2.32,0,0,0-1.62-2.87l-9.08-2.53a2.33,2.33,0,0,0-2.87,1.62c-.34,1.24-3,14.73-1.78,15.08l-.46-.13C182.41,266.71,185.36,251.83,185.74,250.46Z"/><polygon class="cls-56" points="197.71 251.13 199.11 252.16 191.37 269.21 186.69 267.9 190.77 249.2 197.71 251.13"/><path class="cls-57" d="M189.32,246c-.15.56.39,1.2,1.22,1.43l6.05,1.68c.83.23,1.63,0,1.78-.59h0c.16-.56-.39-1.2-1.21-1.43l-6.06-1.69c-.82-.23-1.62,0-1.78.6Z"/><path class="cls-58" d="M190.6,241.43c-.15.56.39,1.2,1.22,1.43l6.05,1.68c.83.23,1.62,0,1.78-.59h0c.16-.56-.39-1.2-1.21-1.43l-6.06-1.69c-.82-.23-1.62,0-1.78.6Z"/><path class="cls-59" d="M192.07,237.23c-.16.55.38,1.2,1.21,1.43l6.05,1.68c.83.23,1.63,0,1.78-.6h0c.16-.56-.38-1.2-1.21-1.43l-6.05-1.68c-.83-.23-1.63,0-1.78.6Z"/><path class="cls-60" d="M192.22,223.32c-1.12,3.3-.15,6.61,2.17,7.39s1.5-2.31,2.62-5.61,3.74-5.55,1.43-6.34S193.33,220,192.22,223.32Z"/><path class="cls-61" d="M286.47,230.09a11.89,11.89,0,0,0-11.89-11.89h-60.2a11.9,11.9,0,0,0-11.89,11.89l17.38,70.81c1.48,7.68,5.32,11.89,11.89,11.89h24.45c6.57,0,10.9-4.21,11.89-11.89Z"/><path class="cls-62" d="M222,270a1.1,1.1,0,0,1-1.08-.93l-4.39-29.18a1.11,1.11,0,0,1,.26-.87,1.08,1.08,0,0,1,.83-.39H271.3a1.12,1.12,0,0,1,1.09,1.26L268,269.09a1.1,1.1,0,0,1-1.08.93Z"/><polygon class="cls-63" points="266.92 268.92 222.04 268.92 217.66 239.75 271.3 239.75 266.92 268.92"/><path class="cls-64" d="M208,252.33c13.5-10.65,29.52-23.23,43.55-34.13H227.09c-7.22,5.9-15.25,12.49-22.91,18.78Z"/><path class="cls-65" d="M270.42,292l6.35-24.49-44.85,45.29h18.25Z"/><path class="cls-66" d="M286.47,230.09a11.81,11.81,0,0,0-3.08-8c-20.45,19.46-45.57,43-67.29,63.42l3.77,15.35a24.28,24.28,0,0,0,1.09,4l61.09-57.73Z"/><path class="cls-67" d="M281.06,220.13a11.89,11.89,0,0,0-6.48-1.93H266.5c-16.3,14.73-36.79,33.11-54.8,49.41l3,12.33C235.22,261.35,260.22,238.85,281.06,220.13Z"/><path class="cls-68" d="M274.58,218.2h-1.14a11.45,11.45,0,0,1,11.45,11.44l-17.68,68.15c-.95,7.39-5.12,11.44-11.44,11.44H232.24c-6.32,0-10-4.05-11.45-11.44l-16.72-68.15a11.45,11.45,0,0,1,11.45-11.44h-1.14a11.9,11.9,0,0,0-11.89,11.89l17.38,70.81c1.48,7.68,5.32,11.89,11.89,11.89h24.45c6.57,0,10.9-4.21,11.89-11.89l18.37-70.81A11.89,11.89,0,0,0,274.58,218.2Z"/><path class="cls-69" d="M270.92,316.77a4.76,4.76,0,0,1-4.76,4.76H222.8a4.76,4.76,0,0,1-4.76-4.76h0A4.76,4.76,0,0,1,222.8,312h43.36a4.76,4.76,0,0,1,4.76,4.76Z"/><path class="cls-70" d="M266.16,312H266a4.12,4.12,0,0,1-3,7H225.53a4.1,4.1,0,0,1-3-6.93,4.75,4.75,0,0,0,.26,9.49h43.36a4.76,4.76,0,1,0,0-9.52Z"/><path class="cls-71" d="M274.58,218.2h-60.2a11.9,11.9,0,0,0-11.89,11.89L210,260.86a82,82,0,0,0,16.08,1.58c26.6,0,49.49-12.5,59.86-30.48l.49-1.87A11.89,11.89,0,0,0,274.58,218.2Z"/><path class="cls-72" d="M284.44,218a5.39,5.39,0,0,1-5.39,5.39H209.91a5.39,5.39,0,0,1-5.39-5.39h0a5.38,5.38,0,0,1,5.39-5.38h69.14a5.38,5.38,0,0,1,5.39,5.38Z"/><path class="cls-73" d="M279.05,212.64h-3.51a4.84,4.84,0,0,1,0,9.67H213.43a4.84,4.84,0,1,1,0-9.67h-3.52a5.39,5.39,0,1,0,0,10.77h69.14a5.39,5.39,0,1,0,0-10.77Z"/><path class="cls-74" d="M278.2,322.94a4.93,4.93,0,0,1-4.93,4.93H215.69a4.93,4.93,0,0,1-4.93-4.93h0a4.94,4.94,0,0,1,4.93-4.94h57.58a4.93,4.93,0,0,1,4.93,4.94Z"/><path class="cls-75" d="M278.2,324a4.93,4.93,0,0,1-4.93,4.94H215.69a4.94,4.94,0,0,1-4.93-4.94h0a4.93,4.93,0,0,1,4.93-4.93h57.58A4.93,4.93,0,0,1,278.2,324Z"/><path class="cls-76" d="M273.27,319.1H270.6a4.48,4.48,0,1,1,0,8.95H218.36a4.48,4.48,0,1,1,0-8.95h-2.67a4.94,4.94,0,0,0,0,9.87h57.58a4.94,4.94,0,0,0,0-9.87Z"/><path class="cls-77" d="M244.48,288.66a8.64,8.64,0,1,1,8.64-8.63A8.65,8.65,0,0,1,244.48,288.66Z"/><path class="cls-78" d="M252,280a7.54,7.54,0,1,1-7.54-7.54A7.55,7.55,0,0,1,252,280Z"/><path class="cls-79" d="M232.74,296.89a5.35,5.35,0,1,1,5.35-5.35A5.35,5.35,0,0,1,232.74,296.89Z"/><path class="cls-80" d="M237,291.54a4.25,4.25,0,1,1-4.25-4.25A4.25,4.25,0,0,1,237,291.54Z"/><path class="cls-81" d="M255.75,297.44a5.35,5.35,0,1,1,5.34-5.35A5.36,5.36,0,0,1,255.75,297.44Z"/><path class="cls-82" d="M260,292.09a4.25,4.25,0,1,1-4.25-4.25A4.25,4.25,0,0,1,260,292.09Z"/><path class="cls-83" d="M273.57,216.92a3,3,0,0,1-3.29,2.74H218.15a3,3,0,0,1-3.29-2.74h0a3.05,3.05,0,0,1,3.29-2.74h52.13a3.05,3.05,0,0,1,3.29,2.74Z"/><path class="cls-84" d="M262.31,167.16c0,4.32-8.38.69-18.37.69s-17.82,3.63-17.82-.69,8.1-7.81,18.09-7.81S262.31,162.85,262.31,167.16Z"/><path class="cls-85" d="M244.48,158.16c-27.42.27-34.23,25.08-34.53,56.2h1.57c.29-29.7,6.79-53.38,33-53.64,23.81-.24,32.67,23.94,33,53.64H279C278.71,183.24,269.43,157.91,244.48,158.16Z"/><path class="cls-86" d="M273.85,228.16a3.06,3.06,0,0,1-3.29,2.75H218.42a3.05,3.05,0,0,1-3.29-2.75h0a3.05,3.05,0,0,1,3.29-2.74h52.14a3.06,3.06,0,0,1,3.29,2.74Z"/><path class="cls-87" d="M269.56,251.31,267,253.39l-2.19-7.4-4.12,7.67L259,250.1l-2.19,3.84-1.65-5.49-1.92,5.49L249.7,249,247,253.66l-1.1-11-1.37,19.46-1.65-14.8-2.74,5.21-3-4.66-2.47,5.48L233,245.44l-3,15.35-3.29-14.26-6.92,7.15L220,255l6.1-6.22L228.89,261a1.09,1.09,0,0,0,1.07.85h0A1.1,1.1,0,0,0,231,261l2-10,.54,2.62a1.1,1.1,0,0,0,1,.87h.12a1.09,1.09,0,0,0,1-.65l1.64-3.65,1.92,3a1.1,1.1,0,0,0,.92.5h.05a1.1,1.1,0,0,0,.92-.58l1.08-2.05,1.25,11.25a1.09,1.09,0,0,0,1.09,1h0a1.09,1.09,0,0,0,1.07-1l.55-7.85a1.14,1.14,0,0,0,.59.34,1,1,0,0,0,.24,0,1.09,1.09,0,0,0,.94-.54l1.89-3.22,2.58,3.58a1.09,1.09,0,0,0,.89.45h.16a1.12,1.12,0,0,0,.88-.72l.8-2.3.68,2.25a1.1,1.1,0,0,0,.92.78h.13a1.08,1.08,0,0,0,.95-.55l1.14-2,.75,1.63a1.09,1.09,0,0,0,1,.64h0a1.09,1.09,0,0,0,1-.58l2.85-5.32,1.44,4.84a1.06,1.06,0,0,0,.72.73,1,1,0,0,0,.33.06,1.1,1.1,0,0,0,.69-.25l.4-.3,1.27-1,.23-1.6Z"/><path class="cls-88" d="M235.68,288.48a4.24,4.24,0,0,0-6.88,4.63C232.28,292.84,235.07,290.93,235.68,288.48Z"/><path class="cls-89" d="M258.64,289a4.23,4.23,0,0,0-7.14,3.09,4.27,4.27,0,0,0,.34,1.68A8.58,8.58,0,0,0,258.64,289Z"/><path class="cls-90" d="M211.84,146.63a2.46,2.46,0,1,1-2.46-2.45A2.46,2.46,0,0,1,211.84,146.63Z"/><path class="cls-91" d="M212.28,189a60,60,0,0,0,16.17,2.18c18,0,33.51-7.66,41.25-18.87-5.49-8.87-13.68-14.24-25.22-14.12C225.14,158.35,216.06,170.76,212.28,189Z"/><path class="cls-92" d="M259.57,307.67c0,.56-6.84,1-15.26,1s-15.27-.45-15.27-1,6.84-1,15.27-1S259.57,307.12,259.57,307.67Z"/><path class="cls-93" d="M264.32,315.08a1.83,1.83,0,0,1-1.83,1.83H227.58a1.83,1.83,0,0,1-1.83-1.83h0a1.83,1.83,0,0,1,1.83-1.83h34.91a1.83,1.83,0,0,1,1.83,1.83Z"/><path class="cls-94" d="M272.18,322.66a2.65,2.65,0,0,1-2.65,2.65H221.82a2.65,2.65,0,0,1-2.65-2.65h0a2.65,2.65,0,0,1,2.65-2.65h47.71a2.65,2.65,0,0,1,2.65,2.65Z"/><path class="cls-95" d="M272,176.5a37.47,37.47,0,0,0-6.68-9.91c-18.62,11.7-39.11,24.55-54.75,34.33-.37,4.17-.56,8.52-.61,13Z"/><path class="cls-96" d="M212.13,189.67c13.68-8.15,31.38-18.47,47.39-27.71a28.3,28.3,0,0,0-15-3.8c-.74,0-1.46,0-2.17.08-8,5.23-16.9,11-25.3,16.54A57.6,57.6,0,0,0,212.13,189.67Z"/><path class="cls-97" d="M276.42,189.68a71.26,71.26,0,0,0-2.37-8.22c-18.82,11.81-38.14,24-52.11,32.9H239.2Z"/></g></svg>